<svg xmlns="http://www.w3.org/2000/svg" viewBox="0 0 793 930" version="1.1" width="793" height="930">
	<path d="M 436.03518375848796 34.934258545910666 C 434.5823844420447 37.648838899671354, 434.5391479540707 37.54472074018543, 439.2345125992727 42.63858991281553 C 443.08184366208883 46.81245128007004, 443.4911243898671 47.75899112418452, 443.71071881064745 52.990671606323716 C 444.0109920615037 60.144467682882436, 443.8421115623723 60.346164027827754, 429 70.55988907599311 C 422.675 74.91249151117655, 416.825 79.00641653519291, 416 79.6575002404739 C 400.50029274429625 91.88975094449125, 389.91367724093914 101.81089379594953, 382.5551641745192 111 C 377.57186093156326 117.22301031922872, 370 128.43394744978633, 370 129.58924212905524 C 370 129.89196616416734, 368.7388361683425 132.0207283358576, 367.1974137074278 134.31982473281136 C 365.65599124651305 136.6189211297651, 363.1060781710266 141.65, 361.5309402063467 145.5 C 357.46128105518505 155.44718436308943, 354.9787241462428 161.23119871527123, 353.9182862563078 163.2364311555619 C 353.4132288153385 164.19146829112094, 353 165.61646829112092, 353 166.40309782222855 C 353 167.18972735333617, 352.63001834240777 167.98333333333332, 352.1778185386839 168.16666666666666 C 351.72561873496 168.35, 348.5292086202688 175.475, 345.0746849504811 184 C 331.9721882830873 216.33406245452056, 331.05027218810653 217.8303757432812, 319.3538588423021 225.7461134620642 C 312.7481650120461 230.2166240591991, 300.45801404702837 236.9999999999999, 298.96401671922456 236.99999999999994 C 298.04922702007383 237, 294.56876604099705 238.44843894630287, 284.5 243.01938802418584 C 282.3 244.01812887588477, 277.125 246.0642978709063, 273 247.56643023534477 C 268.875 249.06856259978323, 263.475 251.1754713763056, 261 252.2484497387278 C 258.525 253.32142810115, 255.4875 254.60447260365441, 254.25 255.09965974429315 C 253.0125 255.5948468849319, 250.9875 256.40515311506795, 249.75 256.90034025570657 C 248.5125 257.3955273963452, 245.36740428700722 258.74552739634515, 242.7608984155716 259.90034025570657 C 240.15439254413602 261.055153115068, 237.77593462543635 262, 237.4754363740168 262 C 236.90728751561937 261.99999999999994, 218.8081637399853 270.37487707241837, 215.76356884443712 272.04657594627076 C 214.80853170887752 272.5709591758219, 213.3835317088775 273, 212.59690217777043 273 C 211.81027264666335 273, 211.01666666666665 273.40407688147474, 210.83333333333331 273.89794862549945 C 210.56082883580675 274.6320337424887, 201.5173205483158 279.5851346719415, 186.25780196533515 287.3578895456619 C 185.02459304626947 287.9860502955479, 184.01209304626948 288.8375, 184.00780196533515 289.25 C 184.0035108844008 289.6625, 183.51845639133526 290, 182.92990309185612 290 C 181.91245188702536 290, 165.30325019304567 301.21830196226324, 160 305.4874738466879 C 158.625 306.59436323100954, 153.44401108511298 311.55, 148.48669130025104 316.5 C 126.45595331997201 338.4982082526513, 117.18569505937513 357.7445843745504, 112.92634750553935 390.3283370816249 C 112.33883771112495 394.82275168673124, 111.43985116964464 400.975, 110.92859963558311 404 C 109.49924514052213 412.45727994830645, 107.02999778290632 440.9895521090024, 105.0437258557383 472 C 103.44796895428836 496.9135758111772, 102.07341215711136 509.58377330628764, 99.3481373000239 524.5 C 97.94130587874902 532.2, 96.38748261279079 540.75, 95.8951967090056 543.5 C 95.40291080522042 546.25, 94.54468630368478 550.75, 93.98803115003753 553.5 C 93.43137599639027 556.25, 92.54881617721644 561.425, 92.02678710742899 565 C 88.76094731351826 587.3653775985783, 87.64672521279216 593.7948692121049, 80.84902534697562 629.5 C 80.32546824976053 632.25, 79.45842737848218 637.425, 78.92226785524596 641 C 78.38610833200974 644.575, 77.47007973468992 650.65, 76.88664875009081 654.5 C 76.30321776549171 658.35, 75.61752909275938 676.1785515662722, 75.36289614401898 694.119003480605 L 74.89992714630915 726.7380069612099 78.10570124909086 729.4354880269062 C 81.20023163768444 732.0393636784096, 81.3733395330737 732.06993517904, 83.09425104784629 730.3164845463014 C 84.6812421018146 728.6994865520151, 84.94194741142383 725.5897668030472, 85.46818132665638 702 C 85.79331634721638 687.425, 86.49514199593784 672.35, 87.02779387937073 668.5 C 87.56044576280362 664.65, 88.69472293542832 655.875, 89.5484098185367 649 C 91.76120460778286 631.1796908479196, 93.85807453233309 616.3709518957759, 95.07068469432014 610 C 95.64644571088705 606.975, 96.33957518919047 602.475, 96.61097242388328 600 C 96.8823696585761 597.525, 97.50538643992789 594.6, 97.99545416022059 593.5 C 98.48552188051329 592.4, 99.11942044484157 589.7, 99.40411763650565 587.5 C 99.68881482816973 585.3, 100.37335796064438 581.025, 100.92532459756043 578 C 101.47729123447648 574.975, 102.37188618666568 569.8, 102.91331338020308 566.5 C 106.29881806620982 545.8653410889299, 110.44265247664653 532.1076107022178, 114.66305360948633 527.4902949352296 C 116.53827487244483 525.438715374065, 122.31525587062158 523, 125.29994415969074 523 C 126.83576285385372 523, 139.92490847935596 518.9740404380898, 144.5 517.0944466039939 C 150.03032606741445 514.8224118851368, 173.5439444139218 502.6133609137458, 173.83333333333334 501.8636064776521 C 174.01666666666668 501.3886229149435, 174.59642869295539 501, 175.12169339175267 501 C 179.71902761533767 500.9999999999997, 208.36168492913876 476.37333541079926, 218.44623622923362 463.75 C 220.53331459751962 461.13749999999993, 222.577843759179 458.99999999999994, 222.98963436625442 459 C 224.63551298414995 459, 226.0656231265141 476.82794812616254, 224.97384702183646 483.73546564498395 C 223.20100020700923 494.9520240392726, 221.9868344238811 498.46541971077295, 213.99660041004535 515.5 C 211.93273801578894 519.9, 209.01307102306131 526.425, 207.50845153731728 530 C 206.00383205157326 533.575, 203.86689630335778 538.525, 202.75970543017172 541 C 201.6525145569857 543.475, 200.35363911434823 546.5125, 199.87331555764402 547.75 C 199.3929920009398 548.9875, 198.5838961256061 551.0125, 198.07532472356908 552.25 C 197.56675332153208 553.4875, 196.86683292688846 555.85, 196.51994606880547 557.5 C 196.17305921072247 559.15, 195.16696066935742 563.65, 194.28417153243862 567.5 C 192.32280877285004 576.0538508672325, 192.06567444047656 604.2933431191374, 193.8607663823492 614 C 195.73450397528507 624.1319199730951, 197.29008182949863 630.4129057037031, 198.18251375135839 631.450000000008 C 198.6321311881113 631.9725000000124, 199.00000000000003 633.1674746652573, 199.00000000000003 634.1054992561077 C 199.00000000000003 635.0435238469581, 199.96389772525222 637.7660238469546, 201.1419949450049 640.1554992560998 C 202.32009216475763 642.5449746652449, 203.60988399192772 645.4, 204.00819900538295 646.5 C 211.261551619184 666.5311000229933, 227.56315533080237 680.1471591974373, 255.4336199767527 689.4535392593191 C 266.2039754161618 693.0499278518306, 291.9937306336042 695.1047463765495, 301.5 693.1239134152743 C 304.25 692.5508925557178, 309.425 691.5847499902238, 313 690.9769299363986 C 319.493683233304 689.8728765399256, 333.61011852360116 685.4979213145656, 335.5 684.0037465125168 C 336.05 683.5689064702234, 338.1875 682.2651743966962, 340.25 681.1065641269008 C 350.1774772762634 675.5297994600212, 351.53433689090195 674.7246362763196, 352 674.1340908463737 C 352.275 673.7853408808681, 354.75 671.7112393602681, 357.5 669.5249763561515 C 360.25 667.3387133520347, 365.5856162762496 662.3887133520346, 369.3569250583324 658.5249763561515 C 383.62501307871696 643.907202333831, 385.0996750239931 639.0443434781214, 377.52802369970533 631.5798859804465 C 374.94250281007817 629.0309689789378, 371.6732481336369 626.8783206903074, 369.7780236997054 626.4768805899193 C 366.51764296969674 625.7862776491148, 358.07805169769557 622.6595772038901, 354.7635688444459 620.9143241618026 C 353.80853170889117 620.4114458728111, 351.7610317088885 620, 350.21356884444 620 C 348.66610597999147 620, 346.9724999999908 619.5960915244061, 346.4499999999941 619.1024256097915 C 344.05681002066825 616.8413034662547, 310.2473429722225 615.0737697367871, 304 616.8831712598671 C 302.075 617.4407039497509, 298.31596142307455 618.1428421262833, 295.6465809401656 618.4434783188283 C 291.21353200327445 618.9427458313786, 290.55197536776245 618.7318985713625, 288.0085224561958 616.0091233192138 C 286.47697077292133 614.3695918768809, 284.91380801484195 611.7843217218307, 284.53482743824156 610.2640785302133 C 282.513479651448 602.1556413160181, 277.4454071961532 594.7780394595475, 271.9819060977762 591.9907691798714 C 267.2511304698793 589.5773075423566, 264.8919880133915 589.4991412711199, 260.7003400731156 591.616973206918 C 250.9766583299221 596.5298676156782, 248.0052930197822 607.7325657470619, 254.66065107326318 614.3879238005359 C 259.53246916023795 619.2597418875052, 270.54151047041273 617.6622615211053, 273.73191305304726 611.620565070851 C 274.6339838894147 609.9123047404388, 274.87354322147735 610.0401448535168, 276.3621875190289 613.0242030851257 C 277.262984383563 614.8298932040086, 278 618.2631389221257, 278 620.6536380142747 C 278 624.3910603309544, 277.4395867890933 625.5604132109067, 274.00000000000006 629 C 271.80000000000007 631.2, 269.3250000000001 633, 268.50000000000006 633 C 267.675 633, 267 633.45, 267 634 C 267 634.553777537779, 264.3648335813037 635, 261.0945007439111 635 C 254.38231700155197 635, 248.87530279174692 632.5867232435497, 244.1681581633157 627.5825597020003 C 240.33204052744532 623.5043846022658, 236 610.9344813039359, 236 603.8817292070254 C 235.99999999999997 600.8667781431702, 235.58269576609197 597.9725000000124, 235.07265725798217 597.450000000008 C 234.56261874987237 596.9275000000035, 233.9302058236736 592.9, 233.66729519976263 588.5 C 232.72946662660618 572.8047585506237, 228.91975043498357 561.1553220858686, 222.8258177445544 555.3486846667888 C 221.18152170029902 553.781908100055, 219.19804614421525 550.9825442203999, 218.41809428659047 549.1278760453331 C 216.88785240786822 545.4890733617117, 216.47174210507558 535.3788780734702, 217.82976672944721 534.8333333333333 C 219.0768765136636 534.3323452283, 232.00000000000003 507.93853126454366, 232 505.8924583845303 C 232 504.9165249668511, 232.45 503.8399186938125, 233 503.5 C 233.54999999999998 503.1600813061876, 233.99999999999997 501.87352365872243, 234 500.64098300563296 C 234.00000000000003 499.40844235254355, 234.403908475593 497.97250000001225, 234.89757439020661 497.4500000000079 C 238.29625005386336 493.8528141670236, 238.2369090670014 463.31081430820376, 234.80001604817107 447.23804657214913 C 234.01414790345697 443.5629027454576, 233.98722349641258 441.30118147181344, 234.71073313997806 439.73804657214913 C 241.3915944577505 425.3041166604988, 243.30785248554005 419.81189292246046, 245.43535604536024 409 C 247.30441907764902 399.5014920999035, 247.1585509982422 374.10433459152034, 245.16386016368716 361.729728822321 C 243.58887798515488 351.95889957138127, 240.14863225197826 336.0364067796081, 237.98417829536362 328.5 C 237.3523388997731 326.3, 236.5955359355482 323.2569921313009, 236.3023939304195 321.7377602917797 C 236.0092519252908 320.2185284522585, 235.37129156157556 318.7294708047898, 234.88470423327453 318.4287432974047 C 234.39811690497353 318.1280157900196, 233.99999999999997 317.0085236587188, 234 315.940983005625 C 234 314.87344235253124, 233.55 314, 233 314 C 232.45 314, 232 313.35072208179173, 232.00000000000003 312.55716018175946 C 232.00000000000006 311.22779023215173, 228.32107095098186 304.15378686369945, 227.0296723951819 303 C 224.67543136639978 300.89662737286517, 215.8660046536855 285.74263146724536, 216.59462648097087 285.0496102395991 C 217.6083532313642 284.0854143690569, 223.689466333598 280.5993720945601, 229 277.9381397256939 C 235.19604500323942 274.8331569579744, 252.0598875697663 267, 252.5484961292638 267 C 252.8088115152963 267, 255.15439254413434 266.0551531150681, 257.7608984155705 264.90034025570685 C 260.36740428700676 263.74552739634555, 263.4 262.4557355691755, 264.5 262.03413619532887 C 265.6 261.6125368214822, 267.7375 260.75738370641415, 269.25 260.133795939622 C 270.7625 259.5102081728299, 273.0125 258.59588185575285, 274.25 258.1019596794507 C 275.4875 257.6080375031486, 278.075 256.55054083452296, 280 255.75196708250485 C 281.925 254.95339333048673, 285.075 253.73709723742866, 287 253.04908687570912 C 288.925 252.36107651398962, 291.625 251.33336500978535, 293 250.765283533033 C 294.375 250.19720205628064, 296.625 249.29011415837815, 298 248.7495326488052 C 299.375 248.20895113923228, 301.2813940200019 247.36915931206218, 302.2364311555599 246.88332858842722 C 303.19146829111787 246.39749786479226, 304.4156323476051 245.99999999999997, 304.9567957255316 245.99999999999994 C 306.9749372012092 245.99999999999983, 316.74500619094647 241.0049065424106, 324.0140349320735 236.25670228323838 C 337.4852363245883 227.45717512410005, 342.43947572057306 220.8953942333342, 349.5008329697065 202.5 C 350.9787151539274 198.65, 353.0456159020156 193.5875, 354.09394574323585 191.25 C 355.1422755844562 188.91250000000002, 356.85847215241347 185.08750000000003, 357.9077158942522 182.75 C 361.7691558142387 174.1475033130517, 367 160.76207515845692, 367 159.48337011453378 C 367 158.75918321820686, 367.3500654970431 158.01666666666665, 367.77792332676245 157.83333333333331 C 368.20578115648175 157.65, 369.84754728830137 154.575, 371.42629250858386 151 C 373.00503772886634 147.425, 375.48123050346084 142.7, 376.9289431187939 140.5 C 378.3766557341269 138.3, 380.1859304664568 135.2625, 380.94955363508245 133.75 C 381.7131768037081 132.2375, 382.7119185320705 131, 383.16897969811 131 C 383.6260408641495 131, 384 130.3625, 384 129.58333333333334 C 384 128.80416666666667, 384.36049339654096 128.01666666666668, 384.80109643675763 127.83333333333334 C 385.2416994769743 127.65, 387.8236713925011 124.35, 390.5388118045949 120.5 C 396.20489937555993 112.46563203470095, 399.6938034462059 108.40211253799748, 405.9007145262732 102.60802304907051 C 408.3211075157234 100.34861037208174, 411.2461075157234 97.59343544678302, 412.4007145262732 96.48541210396228 C 413.55532153682293 95.37738876114153, 418.325 91.82820523960903, 423 88.59833761166786 C 427.675 85.36846998372668, 432.4 81.95459009510832, 433.5 81.01193785918261 C 439.86254038435567 75.55951702329128, 441.1339809624105 78.38314474203314, 436.6842683319418 88.08359223389091 C 434.81317054645365 92.16261650525091, 432.0324679116806 99.325, 430.5049291435572 104 C 428.9773903754338 108.675, 427.3842933321155 113.4, 426.9647134917387 114.5 C 424.90325487543896 119.90446479957981, 423.90715829949346 123.38151783243075, 421.4352303061811 133.8016488006615 C 418.9176494714107 144.41422412340108, 418.5177928196303 145.2932660848689, 414.8770915969992 148.2190133457524 C 412.7446912186497 149.93265700518856, 411 152.06941504489072, 411 152.96736454509053 C 411 153.86531404529035, 410.5732065761294 155.02749999999943, 410.05157016917644 155.54999999999964 C 409.52993376222344 156.07249999999985, 408.4301640056287 158.975, 407.6076373767436 162 C 403.34184706438066 177.68826496521882, 399.98693728289925 190.91139247779623, 397.9664559259081 200 C 397.5385106545664 201.925, 396.08803419816763 207.775, 394.7431749116886 213 C 393.39831562520953 218.225, 391.73670668612635 226.55, 391.0507106026148 231.5 C 390.3647145191032 236.45, 389.3337772318177 242.975, 388.75973885309145 246 C 387.59130403512233 252.15728051528401, 386.52351126073177 260.73405985643575, 385.097932727124 275.4125450983938 C 384.5684427150407 280.8644449025104, 383.8513717372731 286.45604615690183, 383.5044416654183 287.83832566370813 C 383.15751159356347 289.22060517051443, 382.880246157058 299.3849598762372, 382.8882962509618 310.4257805653143 C 382.90523257357546 333.65419297207626, 384.32326799195914 343.07417359690663, 389.1726354264972 352.17251869748463 C 393.3056015178987 359.9267572236771, 396.8402554677089 362.42857142857133, 403.6627591233248 362.4285714285714 C 409.36081678812883 362.42857142857144, 412.3806154730327 360.52143120071, 415.07900272622635 355.21869431490796 C 415.8399021699411 353.7234124417086, 417.47573405560746 350.91445157688713, 418.7141846943737 348.9765590597492 C 419.95263533314 347.0386665426112, 421.3423969231211 342.70020943693135, 421.8025437832206 339.3355432693495 C 422.2626906433201 335.9708771017676, 423.36809128637447 332.4890515707711, 424.2589896566747 331.5981532004684 C 426.25721556327414 329.5999272938634, 434.138028106664 325.6594788674509, 439.5 323.97756650415545 C 441.7 323.28748321523545, 444.5202091417704 322.25505728017083, 445.76713142615654 321.6832866484563 C 448.88568952169913 320.25328579382824, 503.4525866413539 320.3056422737387, 505.20373357183524 321.74031556947716 C 505.9166801073259 322.3244158171225, 508.975 323.0307129971634, 512 323.30986485845693 C 518.8381645230593 323.94090166984313, 526.5785997583255 325.4730895911201, 530.4309685622258 326.95820071427727 C 532.5061589654841 327.7581989770157, 534.7344756457618 327.7937497342826, 538.0627666726821 327.0799590821682 C 540.8146206338077 326.48979205123607, 543.9897638884745 326.42347186901867, 545.7210499934979 326.91999819077773 C 550.3939523807582 328.2601689618322, 561 334.2614046814672, 561 335.5653092273966 C 561 336.2157062198754, 557.3772839638763 339.1262305734207, 552.9495199197252 342.0331411241639 C 535.5584036150992 353.45073677086447, 526.5518125204184 369.9874093348791, 525.279480966565 392.837087832944 C 524.4577366813464 407.59471344397394, 526.2049763775699 418.5832330058222, 532.5442099758025 438.5255053992789 C 537.8897815536968 455.34186700721995, 552.9084244367019 486.61196183034195, 563.9908064097338 504 C 568.0220872992446 510.325, 572.7761996187759 517.7846143815518, 574.5555004531366 520.576920847893 C 576.8982066271267 524.2533950404764, 577.8550718599664 527.011851784766, 578.0243430761743 530.576920847893 C 578.4006722109738 538.502895423391, 578.1772206644379 539.3204834370566, 574.4894035870079 543.5109291381934 C 570.2600423928262 548.3167283583283, 564.3165177867259 559.7394914073932, 563.4017814635412 564.8200493467539 C 563.0373723742982 566.8440222060392, 562.3928411748624 568.95, 561.9694899092392 569.5 C 560.5877076656416 571.295152856954, 559.8627865689172 585.3576369109368, 560.8353898408077 591.5 C 561.3579233919346 594.8, 562.5087244032138 600.109455553541, 563.3927254214283 603.2987901189802 C 565.6380851325123 611.3996895420025, 565.4532160377598 620.3428783324048, 562.9024941289365 627.014116932188 C 560.1540019856068 634.2026100463751, 559.8604639529956 646.1228767010095, 562.3181894445624 650.7421074189157 C 563.9790978081879 653.8637412056062, 572.9178141289885 659.9702832908905, 575.8560956591261 659.9906159383652 C 578.2388005878635 660.0071040450543, 585.208597597515 653.745003585623, 586.6517012638155 650.2911703557534 C 588.1252196254329 646.7645445138112, 587.5499883483516 644.5312655061219, 584.5205075303247 642.0170197385032 C 582.6470568940914 640.4621938076161, 578 642.3522014114462, 578 644.66897969811 C 578 645.4836447970742, 576.8265800039129 646, 574.9752491529363 646 C 570.1814849277478 646, 568.539327710664 639.8803966023503, 571.601472314395 633.4274058602535 C 574.5412432112414 627.2322985625376, 584.4389170624577 627.7879808042868, 591.945319668997 634.5695646011602 C 597.7312829711518 639.7968348444346, 598.7726026308853 643.1320311356513, 596.5748839154702 649.3973894294534 C 594.2804756399927 655.9383947989305, 592.7444551393777 657.6008600046529, 586.2511632947084 660.5709553543504 C 579.0765732016844 663.852683202263, 574.774713519949 663.669510110447, 566.9708492247239 659.7500000000001 C 561.9567911342803 657.2316769440897, 559.7511452715828 655.374343162939, 557.1736988407035 651.5 C 555.3442332030904 648.75, 552.7567332030904 645.2663960638463, 551.4236988407035 643.7586579196585 C 550.0906644783165 642.2509197754707, 549 640.5634197754707, 549 640.0086579196585 C 549 639.4538960638463, 548.55 639, 548 639 C 547.45 639, 547 638.5355481436775, 547 637.9678847637276 C 547 634.3464804872905, 531.6449876919063 616.0896187880786, 524.8602657584047 611.6440982374834 C 516.9233347123666 606.4436212806323, 498.7068958947783 601.993431442225, 482.6137120442827 601.3234649935808 C 472.1804799463384 600.8891248703662, 470.58639405242593 601.124760804792, 463 604.2227412388328 C 454.98659735610835 607.4950949327368, 440.89570153315293 618.2663089944512, 438.66466468689504 622.8249017554147 C 434.6512116727189 631.0254377024471, 434.5833798784066 633.1903033408785, 438.15664644809465 639.0384081210719 C 439.99205269105255 642.0422836544824, 441.7526118207966 644.725, 442.069000069748 645 C 442.38538831869937 645.275, 444.79644338605556 648.875, 447.4269002194284 653 C 460.8423683705655 674.0377168791946, 494.2268835047169 697.4636994977553, 518.8153123686171 703.0933949603115 C 533.1539843505853 706.3763357713236, 555.3166135579369 707.9232511966751, 561.4290020350326 706.0677610997878 C 563.1180509157647 705.5550297046711, 566.525 704.5853444386339, 569 703.9129049530386 C 574.4174735395377 702.4410168236839, 596 692.0676747114378, 596 690.9357292945849 C 596 690.4952046201759, 596.9608228779308 689.8298220060695, 598.1351619509574 689.4571012632375 C 602.1852073327142 688.1716667938712, 617.3845284969666 671.8703136549622, 620.7861782323203 665.1637653064907 C 622.5537802045441 661.6788362250606, 624 658.1852302450683, 624 657.4001964620633 C 624 656.6151626790582, 624.397497864791 655.1914682911374, 624.8833285884245 654.2364311555725 C 628.4709141688985 647.1840211499954, 629.1394558349357 643.5368086534461, 629.6925212011975 628 C 629.9701621574463 620.200461871706, 629.7045724672251 613.995852201054, 628.9862350492456 611.5 C 628.3530475877092 609.3, 627.3410563356218 605.7, 626.7373656001625 603.5 C 626.1336748647032 601.3, 625.3420334527277 599.05, 624.9781624624392 598.5 C 624.6142914721506 597.95, 623.6132698889473 595.7, 622.7536700553206 593.5 C 621.8940702216939 591.3, 618.7201017756079 584.325, 615.7004068417962 578 C 607.205054821242 560.2057847869498, 603.9999999999999 552.9732676652822, 604 551.5968969226643 C 604 550.9019369485083, 603.6915978776993 550.0249312110092, 603.3146619504429 549.6479952837774 C 602.3177507567683 548.6510840901678, 600.0326542420388 541.7955940418847, 600.0150563381663 539.7488889255067 C 600.0067753521748 538.7857778345353, 598.2 536.2509372388248, 596 534.1159098239276 C 593.8 531.9808824090304, 592 529.9242395354104, 592 529.545592326994 C 592 529.1669451185777, 591.3092315480246 528.166374405169, 590.4649589956102 527.3221018527524 C 589.620686443196 526.4778293003358, 587.055104560884 523.0224721574779, 584.7636659238061 519.6435304241793 C 582.4722272867282 516.2645886908807, 579.7879957387036 512.6276473490135, 578.7987069281958 511.56143855336325 C 577.8094181176881 510.495229757713, 577 509.28382666125816, 577 508.86943167235256 C 577 508.4550366834469, 574.5935638191968 504.15238933443345, 571.6523640426594 499.3079931189893 C 566.1795371747195 490.2938003469352, 555.8860418339816 470.0576981867193, 552.6749122437849 462 C 551.6885827050544 459.525, 550.4582290025403 456.7186059799998, 549.9407929048647 455.76356884444397 C 549.4233568071891 454.80853170888815, 549 453.21103170889086, 549 452.2135688444499 C 549 451.21610598000905, 548.6394756858392 449.9725000000093, 548.1988348574205 449.45000000000596 C 547.7581940290016 448.9275000000027, 545.6674144763692 443.1, 543.5526580737928 436.5 C 541.4379016712163 429.9, 539.3747181938718 423.6, 538.9678059019161 422.5 C 535.0285342901321 411.85102512598974, 533.3745977470574 393.63565404709146, 535.4266469049063 383.5 C 537.0731926019859 375.36724280239997, 544.373585791221 361.7773017988475, 549.6622068285411 357 C 560.6143134149413 347.1067748800373, 565.181850743824 344.97527328698646, 575.2391015844274 345.0642044077615 C 582.5364911952512 345.1287314884824, 593.2304452464372 346.8971119130723, 594.5989299862172 348.2655966528823 C 595.0028518271232 348.66951849379706, 596.1644393133198 349.00000000000006, 597.1802355110985 349.00000000000006 C 598.1960317088774 349.00000000000006, 599.8085317088807 349.4140610785411, 600.7635688444391 349.9201357300914 C 601.7186059799976 350.42621038164157, 606.4995603889031 352.7020820454089, 611.3879119753403 354.9776283162409 C 630.0325818745137 363.65679312461367, 636.6777014474781 369.6021322639603, 649.6053850491227 389.1705176958254 C 654.4974232721052 396.575501639164, 659.1595351365212 403.72894677078716, 659.9656336367136 405.0670624327659 C 660.7717321369062 406.40517809474466, 662.9092321369062 409.91701930842913, 664.7156336367136 412.87115401873143 C 666.5220351365211 415.8252887290338, 668 418.45582200430385, 668 418.7167835193316 C 668 418.9777450343594, 668.8298401410198 420.38572572593023, 669.8440892022662 421.8456295006001 C 671.6098374953376 424.3872365837795, 677.1128112670574 434.50779669978925, 684.8809323994013 449.5 C 686.8757870422212 453.35, 689.3318619142032 458.975, 690.3388765593612 462 C 692.2611892531055 467.77448990095235, 693.0467094601106 469.88909561032665, 694.7965598249804 474 C 695.3818432623037 475.375, 696.397175404452 478.975, 697.0528534741986 482 C 697.7085315439452 485.025, 698.5885792413795 488.4, 699.0085150240525 489.5 C 700.064386896026 492.2658015989441, 702.8045688346705 502.86802979489903, 705.9867568592574 516.5 C 707.1422633990098 521.45, 708.5461378169755 527.3, 709.1064777880699 529.5 C 710.4947202626579 534.9505007703245, 711.9975063670024 542.6766864186017, 712.6075779569783 547.5 C 712.885842572226 549.7, 713.5124324915857 552.4, 714 553.5 C 714.4875675084143 554.6, 715.1054410060686 557.3, 715.3730522170099 559.5 C 715.640663427951 561.7, 716.3678910153862 565.975, 716.9891135224213 569 C 719.8057027840356 582.7151864587903, 721.6209886916396 600.8767290316778, 722.936268675623 628.5 L 723.8885671818293 648.5 727.5219865193055 651.8346673783788 C 731.0281970250779 655.052585463069, 731.2238521216636 655.1073917383661, 733.1104114886214 653.4000789760833 C 734.973348454756 651.7141441927328, 735.0446928237221 650.473944344798, 734.625352995165 627.0654115977046 C 734.3833177262521 613.5544352189671, 733.7349357154019 598.9, 733.1845040821646 594.5 C 731.239950081378 578.9557669167024, 730.8452415790716 576.4797485345059, 729.9962522893306 574.5 C 729.5245316629794 573.4, 728.9136278763254 570.25, 728.6386883189884 567.5 C 728.3637487616514 564.75, 727.490179445429 559.575, 726.6974231718275 556 C 725.9046668982259 552.425, 724.944612319972 547.25, 724.5639685534854 544.5 C 724.1833247869989 541.75, 723.4795905143989 538.15, 723.0001146143741 536.5 C 721.6171889335593 531.7409967357544, 718.8404310608865 519.8082661022785, 718.2857634159838 516.2407316224335 C 718.0070566791835 514.4481340147719, 717.3787435182597 512.7340763673031, 716.8895119472643 512.4317146280586 C 716.4002803762689 512.129352888814, 716 510.5850813061876, 716 509 C 716 507.41491869381247, 715.55 505.8399186938125, 715 505.5 C 714.45 505.1600813061875, 714 503.8046975182254, 714 502.4880360267508 C 714 501.17137453527624, 713.5967777723707 499.06043218274493, 713.1039506052682 497.79705302112575 C 712.6111234381657 496.5336738595066, 710.9819963522913 491, 709.4836681922138 485.5 C 706.6555298395747 475.11858866837844, 703.5469798659109 465.13324917510556, 701.9343668477647 461.25 C 701.4204650814942 460.0125, 700.6070079990602 457.9875, 700.126684442356 456.75 C 699.6463608856518 455.5125, 698.3220347609629 452.475, 697.1837374986028 450 C 696.0454402362426 447.525, 694.1452711220807 443.25, 692.9611394671317 440.5 C 690.5113112041777 434.8105754373111, 690.0267999615639 433.83352327671577, 683.5683748891583 421.5588070663413 C 680.9809168170823 416.64115095282904, 677.9945268920815 411.3966842280991, 676.9319528336009 409.90443656694146 C 675.8693787751204 408.4121889057838, 675 406.8918045961651, 675 406.5258047677887 C 675 406.15980493941237, 673.65 403.8981927939074, 672 401.4999999999999 C 670.35 399.10180720609236, 669 396.85168472719243, 669 396.4997278246666 C 669 395.7106863674569, 656.4577560440946 377.6195884514646, 653.0546881877527 373.5 C 645.9395490128618 364.8867585329454, 629.0417193132694 349.99999999999994, 626.380043263432 349.99999999999994 C 626.0942122624518 349.99999999999994, 623.8981927939075 348.65, 621.5 347 C 619.1018072060924 345.34999999999997, 616.5232283358575 344, 615.7698247328113 344 C 615.0164211297651 344, 613.9725 343.5773860114502, 613.45 343.0608578032226 C 612.9275 342.544329594995, 608.6949473815737 340.7215232883992, 604.0443275146081 339.01017712189866 C 599.3937076476426 337.29883095539805, 593.9937076476426 335.20056308819505, 592.0443275146081 334.3473596392253 C 590.0949473815737 333.4941561902556, 587.4875 332.3919624968514, 586.25 331.8980403205493 C 585.0125 331.40411814424715, 582.9875 330.5965670648359, 581.75 330.10348236630193 C 580.5125 329.610397667768, 576.9102732215474 328.04016755693976, 573.7450516034388 326.61408212001703 C 570.5798299853302 325.1879966830943, 565.1798299853301 322.84855700190656, 561.7450516034388 321.41532727293327 C 558.3102732215475 319.98209754396, 553.925 318.1239097064471, 552 317.2860209673491 C 546.2023144759762 314.7624804928499, 517.5374937292987 300.6495439156467, 517 300.0540004161875 C 516.725 299.74930018728435, 515.375 298.85627123121674, 514 298.0694916249262 C 512.625 297.28271201863555, 509.025 295.22644078741865, 506 293.4999999999998 C 502.975 291.7735592125809, 499.375 289.7172879813641, 498 288.9305083750736 C 496.625 288.14372876878315, 495.275 287.2453006264495, 495 286.93400139210996 C 494.725 286.62270215777045, 492.475 284.9459981578147, 490 283.20799250331936 C 478.5213586290171 275.1474092270803, 478.3877317644201 274, 488.9276405153353 274 C 503.97289092487785 274, 525.8825550078208 269.2759580233895, 539.5 263.0958643565975 C 541.7 262.09742404163745, 545.3 260.73765640569417, 547.5 260.07415849894585 C 549.7 259.4106605921975, 552.4 258.5098983046606, 553.5 258.07246452664174 C 557.6487786285093 256.42263188152106, 562.956864521369 254.92254343689396, 571.0962077201707 253.0996987494728 C 581.1995776672989 250.8370009146052, 590.7657087660257 248.28625998223993, 593.5 247.12588661804844 C 594.6 246.65907068975562, 597.3 245.73503074862285, 599.5 245.07246452664225 C 601.7 244.40989830466165, 604.4 243.47323975178466, 605.5 242.99100107580452 C 606.6 242.50876239982438, 612.225 240.46704577887232, 618 238.45385302924444 C 645.5300504528846 228.85674515588735, 657.6635688837935 220.59633257476162, 665.4870973367822 206.12497674199625 C 669.0911124080629 199.45854933183878, 675.8661114294011 192, 678.3175686986788 192 C 680.4425227642662 191.99999999999994, 702.986159919113 180.36452901326615, 710 175.6477136469324 C 718.4431802950704 169.9696653741982, 728.9023070235569 159.97982999220355, 734.2420026993523 152.49342719615106 C 737.7168259503276 147.621627737652, 745.1388886302824 133.57173881285834, 748.5016818803797 125.5 C 749.4182310058828 123.3, 750.5495207960962 120.7678985215234, 751.0156591919651 119.87310782560758 C 753.9303784099179 114.2780663946823, 751.9441802223557 100.09291941270922, 748.0042523990811 98.36606575544984 C 746.089185563744 97.52670008256565, 712.9573676079528 95.71295507552003, 698.5 95.65603967912145 C 687.91541038783 95.61437053645112, 681.8669269048236 96.11780203660699, 653.5 99.40151035299586 C 633.178263765241 101.75392076747018, 618.4501880784962 102.30379018406562, 606.5 101.15624485665165 C 594.2380819135567 99.97876491133171, 579.4184909602835 97.37965206071041, 576.7635688444389 95.94096323439038 C 575.8085317088802 95.42343345547567, 573.6975893563489 95, 572.0725858388138 95 C 570.4475823212787 95, 568.8399186938125 94.55, 568.5 94 C 568.1600813061875 93.45, 566.7774176787218 93, 565.4274141611872 93 C 564.0774106436526 93, 562.1914682911213 92.57155007164087, 561.2364311555621 92.04788904809082 C 560.281394020003 91.52422802454078, 555.675 89.77871278334533, 551 88.16896628987872 C 546.325 86.55921979641212, 539.8 84.01610265993544, 536.5 82.51759487548611 C 533.2 81.01908709103678, 529.4875 79.38960233223223, 528.25 78.89651763369821 C 527.0125 78.40343293516419, 524.9875 77.59716006481, 523.75 77.1048001440222 C 522.5125 76.61244022323442, 519.025 75.07930134757828, 516 73.69782486478634 C 512.975 72.3163483819944, 508.025 70.19712766936863, 505 68.98844550339572 C 498.8665199051634 66.53772550141927, 462.1969126053124 48.21764167799445, 461 47.006107878690145 C 459.1022734687117 45.08519918052151, 439.7256264047482 33, 438.5434889362356 33 C 437.7332721556428 33, 436.6045348256564 33.8704163456598, 436.03518375848796 34.934258545910666 M 480.6291570629984 68.53047686325826 C 483.8581206783493 69.92223913805032, 490.1 72.78408527848293, 494.5 74.89013495310854 C 511.2339871293152 82.8998186233093, 523.225269099743 88.33199551471773, 530.3747713913463 91.14178382745149 C 533.1936471261058 92.24961536194566, 537.075 93.84179966608781, 539 94.6799711699896 C 540.925 95.51814267389139, 543.4 96.58916237276821, 544.5 97.0600149452714 C 548.053368330806 98.5810264176454, 561.3513931778378 102.71284655125514, 566.7530833318608 103.97425512778995 C 569.6422791643844 104.64894328992368, 572.2563368118531 105.60574467977112, 572.5621003262358 106.10048043856202 C 572.8678638406185 106.5952161973529, 574.1264763412809 107, 575.3590169943744 107 C 576.591557647468 107, 578.0274999999992 107.40390847559365, 578.5499999999995 107.89757439020812 C 579.0724999999998 108.39124030482259, 581.3 109.04378351323831, 583.5 109.34767040890972 C 585.7 109.65155730458112, 590.65 110.47418065274248, 594.5 111.17572229371274 C 608.2061409914089 113.67323622682508, 648.1897398478707 112.54556737670885, 672 108.9899676747314 C 689.6309700568339 106.3571248801076, 728.3912671390326 106.09128203077255, 736.665305775603 108.54645174645941 C 739.882111295764 109.50097998124993, 740.2377916601367 113.01459586757453, 737.8913330429027 120.65785657773121 C 735.6281129518945 128.02997943256844, 730.1034395216968 140.2898194264066, 728.7996221862138 140.83333333333337 C 728.3598299837962 141.0166666666667, 728 141.61130952380898, 728 142.15476190476062 C 728 142.69821428571228, 727.4375 143.72318043516503, 726.75 144.4324644591001 C 726.0625 145.14174848303514, 724.15 147.42340887238504, 722.5 149.50282087987767 C 720.85 151.5822328873703, 719.275 153.5582820622867, 719 153.8940412685808 C 718.0219136798589 155.0882284923541, 704.2680275310338 166, 703.7408848327107 165.99999999999997 C 703.4458225071045 165.99999999999994, 700.345916104724 167.73146926723254, 696.8522039385316 169.84770948273905 C 693.3584917723392 171.96394969824553, 686.1038501928621 175.8007602583398, 680.7307782063601 178.3739551718374 C 675.3577062198582 180.947150085335, 670.0059737041254 183.82818081810242, 668.8380392825095 184.77624568909835 C 661.8289655098963 190.46582594210528, 660.1001388902351 192.48007877366226, 657.0979188601503 198.45463919289094 C 651.998303700881 208.60311551326527, 645.6025904679033 214.52821435279486, 635 218.9265316347189 C 631.975 220.1814051317287, 627.925 221.88217470935555, 626 222.70601958500086 C 624.075 223.52986446064617, 621.6 224.55102950408838, 620.5 224.9752752370947 C 619.4 225.399520970101, 616.25 226.7606471134084, 613.5 228 C 605.8007549766176 231.46984783429278, 605.4383519524453 231.6013685954289, 590 236.52845500878004 C 570.2801504713527 242.82196373206943, 569.6539540764871 243, 567.2380190293989 243 C 566.0720272570419 243, 564.8399186938125 243.45, 564.5 244 C 564.1600813061875 244.55, 562.5850813061876 245, 561 245 C 559.4149186938124 245, 557.8399186938125 245.45000000000002, 557.5 246 C 557.1600813061875 246.55, 556.1085396200172 247.00000000000003, 555.1632406973991 247 C 553.1244288665008 246.99999999999997, 538.2563077772331 251.61408594735792, 535.7635688444371 253.02038097098364 C 534.8085317088776 253.55917143694262, 533.2110317088782 253.99999999999997, 532.2135688444387 254 C 531.216105979999 254, 529.9725000000022 254.37175386076413, 529.4500000000014 254.82611969058692 C 528.9275000000007 255.2804855204097, 526.475 256.2317777289044, 524 256.94010237613065 C 521.525 257.64842702335693, 518.6 258.5960094901136, 517.5 259.04584119114554 C 513.3105922302552 260.7590488487643, 497.3466444851157 262.850145275882, 487.78494722522504 262.9381767011929 C 484.0916681990988 262.9721795155368, 479.0366785129198 263.6902947875498, 476.55163681149395 264.53398841677733 C 471.76025344096854 266.16070543427435, 469.305114930805 265.4230111074335, 464.95854075972704 261.0506162353277 C 458.68792727651277 254.7427523499258, 448 232.4888070613073, 448 225.74026760757147 C 448 225.0024214197344, 447.4375 223.17030208238498, 446.75 221.66889130235057 C 445.6526474196768 219.2724156753021, 445.0115282570343 218.9733043335407, 441.5 219.21952676023494 C 437.5545378051419 219.49617590127554, 437.4957845888175 219.55841399377238, 437.19082648841413 223.7842937019857 C 436.66256901517517 231.1044879644748, 442.93098789057683 247.67091076698551, 450.3436043587154 258.54496996788964 C 456.62853563483543 267.7647528966163, 477.8500998744843 289, 480.77901078937003 289 C 481.3588881885498 288.99999999999994, 481.9833333333333 289.3721276263916, 482.16666666666663 289.8269502808703 C 482.68075457104436 291.1023256916217, 503.76092748286294 305.294416515233, 510.5002444640969 308.9023492892695 C 513.8003789193502 310.6690955772079, 517.6253789193502 313.0271382679397, 519.0002444640969 314.1424441575623 L 521.5 316.17027304778526 519 315.51921432830414 C 511.01836388081966 313.44060881185703, 500.95215441130495 312.7030204932248, 480 312.66154039316757 C 451.794152715089 312.60569976959215, 442.22413180531134 313.9741712874056, 429.36249236313085 319.90248454443037 C 419.99350818276736 324.2209288120523, 414.50352577264266 329.8131060095233, 409 340.6440201214434 C 405.5825859390146 347.36947571272856, 403.95830765830686 349.57692819488716, 402.2483399240915 349.81976849552234 C 399.80353775005716 350.16696597946105, 397 347.98663367893937, 397 345.7380952380886 C 397 344.9654761904682, 396.6695184937961 344.0028518271248, 396.26559665288016 343.59892998621433 C 394.7611633527842 342.0944966861386, 393.03604991196994 331.1272015261909, 392.47492744756096 319.5 C 391.4819145205914 298.92345539106304, 394.08128173242204 253.7386270503367, 397.01959470149257 240.5 C 397.62995713818793 237.75, 398.371333578861 233.7, 398.6670979029884 231.5 C 398.96286222711575 229.3, 399.6087596951773 227.0724999999998, 400.1024256097918 226.5499999999995 C 400.5960915244063 226.02749999999924, 401 224.25944908423875, 401 222.6209979649762 C 401 220.9825468457136, 401.41950750509477 218.26004684571384, 401.93223890021056 216.57099796497667 C 402.4449702953264 214.8819490842395, 403.30821224621064 211.7, 403.8505543466199 209.5 C 404.3928964470292 207.3, 405.9983889419345 201.75637360042512, 407.41831544640934 197.18083022316694 C 408.8382419508842 192.60528684590875, 410 187.68723593014852, 410 186.2518281881442 C 410 183.5827874468789, 411.5522417771505 177.87226811391517, 413.12275557795647 174.76356884443786 C 413.6052400100804 173.8085317088787, 414.01594593707824 171.78353170887868, 414.0354354157294 170.26356884443786 C 414.0753524634476 167.1504824825251, 416.43418114575536 162.25633576523117, 417.2398897798788 163.6149004080017 C 417.52859360631794 164.10170518360076, 418.08182841228927 165.97774801554374, 418.46930045981503 167.78388447898612 C 419.31568067024557 171.72914496875782, 423.0199555629469 174.46279155551082, 426.3776991788119 173.62005155380655 C 429.28898204124073 172.88936606821665, 430.50921123696133 166.92375117414593, 429.4619197797982 158.54151350671583 C 428.77515255235613 153.04481429920483, 430.61397194695576 139.35661244614215, 432.1681812921267 138.3960582451938 C 432.625681581457 138.11330751652477, 433 136.2529727429587, 433 134.26198097060256 C 433 132.27098919824644, 433.4298268347428 129.26004684571515, 433.95517074387294 127.57099796497752 C 442.16819432975274 101.16506072251069, 444.6974045847372 95.42909139152557, 453.66574776090016 82.86958769555646 C 466.57677282017534 64.7886485783165, 468.98125645273956 63.509946878709755, 480.6291570629984 68.53047686325826 M 211.26294582696914 295.53567309969645 C 212.54113884440156 296.8138661171289, 214.24165575540883 299.12873681319223, 215.04187229587419 300.6798302020595 C 215.84208883633954 302.2309235909268, 216.76126451266006 303.725, 217.0844849099198 304 C 218.87266403256118 305.5214054029245, 225.15158844569237 318.47587619921137, 227.0206646654127 324.5 C 228.21518584125266 328.35, 229.99544952053324 333.975, 230.97680617492517 337 C 231.95816282931708 340.025, 233.28650285543105 345.875, 233.92867289962294 350 C 234.5708429438148 354.125, 235.57444775409422 359.75, 236.15890581135503 362.5 C 237.7810805094462 370.1326784519975, 238.40168642242924 397.46574683367544, 237.13711955105208 405.5830297934468 C 236.53022551044904 409.4786961798426, 235.27067044596575 415.1036961798426, 234.33810829664475 418.0830297934468 C 232.36849549392318 424.3755151073814, 223.5521431134946 441.8836867808356, 219.07999618641497 448.3837295286051 C 217.38599828388672 450.8458710817798, 216 453.1764887333796, 216 453.5628798654935 C 216 453.9492709976075, 215.20752808448296 454.9931921273726, 214.23895129885102 455.88270459830494 C 213.27037451321905 456.77221706923723, 211.29124760767547 459.075, 209.84089150875417 461 C 204.93890338290174 467.5062139906773, 191.97971199221854 479.3920499140772, 180.63962296675285 487.7826499495096 C 176.71283033503877 490.68810742173997, 172.70735607680268 493.72560742173994, 171.73856905956154 494.5326499495096 C 170.76978204232037 495.33969247727936, 169.34478204232036 496, 168.57190239289486 496 C 167.79902274346938 496, 167.01666666666668 496.3719315550597, 166.83333333333334 496.82651456679923 C 166.51392958657468 497.61849011495815, 147.84387285624038 507, 146.58717333237942 507 C 146.25223974244494 506.99999999999994, 144.0706074558682 507.86912587383745, 141.7391015844311 508.93139083074993 C 139.40759571299398 509.99365578766236, 135.25 511.6189326250748, 132.5 512.5431171361108 C 114.284557664386 518.6647279245633, 113.3630930520778 518.1142392948293, 114.44241433229863 501.755404338745 C 114.85084858810598 495.56493195243524, 115.56190223065873 483.75, 116.0225335379714 475.5 C 117.79821149367096 443.69724820706233, 122.2964536640782 397.09018304742983, 124.99835126893217 382.5 C 125.50761276271837 379.75, 126.19698164714582 375.925, 126.53028212321539 374 C 127.10923936245005 370.6561923383088, 127.40960699821382 369.72550986604773, 129.75767325516642 364 C 138.86988715879386 341.7808354205195, 152.4459180984304 324.69711030677917, 173 309.58497791645016 C 181.3099098892264 303.47522030241123, 197.25533450118988 293.7933287819763, 200.360967522463 292.97169066363676 C 203.9769597666026 292.01502996256426, 208.90016763403165 293.1728949067589, 211.26294582696914 295.53567309969645 M 589.4743198537684 547.9503400731157 C 590.3134439341958 549.5730271133294, 591 551.4684356722832, 591 552.162359093013 C 591 553.3120710482785, 595.4785237358361 563.0333218919321, 603.0831358171829 578.3904648674352 C 604.6874111177323 581.6302205445246, 606 584.8552205445246, 606 585.5571315341019 C 606 586.2590425236792, 606.3598299837961 586.9833333333333, 606.7996221862136 587.1666666666667 C 607.9135120964606 587.6310067552117, 613.8501582891934 600.2212590862715, 615.6075235819851 605.8461866312564 C 617.5862587453917 612.1796689018626, 617.5080667868749 631.5903578082157, 615.4633111087819 641.6460758636279 C 613.039186250566 653.567459120561, 607.3058567617342 664.3866023756955, 598.910278168853 672.8826609984791 C 595.042037624989 676.7971974493156, 591.4892893732002 680, 591.0152820537667 680 C 590.541274734333 680, 588.8814241870127 681.0594747917143, 587.3267252819437 682.3543884260316 C 583.068134817521 685.9013818904094, 572.3221514778968 691.174700222787, 563.7337719092156 693.9320309370321 C 559.0118991137294 695.4480054912113, 540.6137406665052 695.4791430645936, 532 693.9857380868184 C 522.0721580449958 692.2645011506033, 510.92547551122857 688.700564285363, 505 685.3530085666239 C 503.625 684.5762119864095, 500.475 682.9665708190934, 498 681.7760281948102 C 495.525 680.5854855705271, 493.275 679.3613390622154, 493 679.0557026207841 C 492.725 678.7500661793529, 491.1913891280788 677.7659703421508, 489.5919758401752 676.8688229825573 C 483.9584735283619 673.7088631632092, 477.50532995493813 668.4115644797316, 469.0424574676056 660 C 460.2705780442447 651.2813020060889, 459.2925439972354 650.095311795661, 453.7863198447293 641.5 C 446.18516980445133 629.6344724093636, 446.183713150815 628.8163135752353, 453.75 621.1002281680496 C 461.783209623117 612.9079757751239, 467.3937924004899 610.9447710478802, 482.8729538413123 610.9097857628246 C 507.2958736874396 610.8545862085093, 522.5374433399762 617.6654541031576, 533.34541744957 633.4639773447968 C 537.7186754298988 639.8565738798475, 542.5355903165478 647.6888348566598, 544.9665146637261 652.3597785702773 C 545.7730977287755 653.9096022419089, 548.7945239916662 657.7690037611397, 551.6807952479276 660.9362263907904 C 566.5354179214941 677.2368069355241, 591.2949905847078 676.5949525528874, 601.0296566598797 659.6569319778279 C 606.6061656853615 649.9539772096597, 607.5092473494042 646.5128552462052, 606.0134302737342 640.6666528852951 C 603.1488647873024 629.4708791625897, 594.7079176229017 621.9430531949461, 582.263652211791 619.4860682259712 C 578.307758581508 618.7050200188354, 575.522347135743 615.0314068043056, 573.4255380338506 607.8296886684838 C 572.572069913499 604.8983599008177, 571.4521778066479 601.1180509157601, 570.9368889075148 599.4290020350227 C 570.4216000083817 597.7399531542851, 570 595.2969022385249, 570 594 C 570 592.7030977614751, 569.4646615339295 590.1615437163778, 568.8103589642878 588.3521021220059 C 567.2834175921188 584.1294208134444, 569.6038565373694 570.6832052580814, 573.3579912554223 562 C 575.8824163487787 556.1610776142755, 584.8999013682776 545, 587.0929773051032 545 C 587.5635916264417 545, 588.635195773341 546.3276530329022, 589.4743198537684 547.9503400731157 M 215.56585899310357 560.9863453167076 C 220.9529358522123 561.0219522137072, 225.1176033895697 577.1453096181785, 227.45119832581207 607 C 228.17660184050322 616.2804012370124, 229.03914820766627 620.3150555826068, 231.29931845681867 625 C 238.39456205659263 639.7072203544279, 259.78932667216367 647.5936327481639, 273.0350790938063 640.3843908013828 C 275.88546766622466 638.8330149182484, 279.66630598396057 635.8712246628502, 281.43694202210827 633.8026346782756 C 285.3612705532502 629.2179393931889, 289.24184412033907 627.5222133172506, 301.6536007213606 624.968395426787 C 313.15795554149895 622.601282688249, 326.28879537232467 622.4413326134306, 336.79215833208434 624.5403637859129 C 343.75931109068483 625.9327055415748, 345.87776595636194 626.5244021434852, 352.5 628.9276541119123 C 358.44591942429156 631.0854670895833, 364.34253421903657 634.6723039534503, 366.175276798295 637.2461535647546 C 369.02831383179574 641.2528746082983, 367.89744858885416 643.2196799659235, 355.96724691658767 655 C 346.3382260185965 664.5080494788983, 331.83868277003074 674.4335299810299, 325.75 675.6848374433004 C 324.2375 675.9956768494851, 323 676.592675288453, 323 677.0115006410068 C 323 679.1352686929731, 285.42472207607574 683.6367425570388, 277 682.5222462478991 C 270.55130677975575 681.6691564097017, 262.78507415631276 679.933381669245, 260.76356884443834 678.89335841496 C 259.8085317088794 678.402011286732, 258.33992572888224 678, 257.5000000000001 678 C 256.660074271118 678, 255.19146829112074 677.5891077656012, 254.23643115556177 677.0869061457804 C 253.28139402000278 676.5847045259595, 249.8 674.9346499141178, 246.5 673.4201181194654 C 235.26505984634247 668.2638532486378, 221.1131477234415 657.1044514378245, 221.02673378518227 653.3333333333333 C 221.01203020333202 652.6916666666666, 220.60991816843867 652.0166666666667, 220.1331514854193 651.8333333333333 C 218.4576859396696 651.1890586926598, 210.80788021686973 633.9179158643101, 208.8023410615458 626.2515012864865 C 204.82174062058786 611.0351774525486, 203.6075258810385 590.3986972556658, 205.60346594079445 571.8842457002238 C 206.61140787396215 562.5345199902175, 208.13681319070412 559.5323857395963, 211.43014349878274 560.4168225359178 C 212.56856457445224 560.7225499895413, 214.4296365468966 560.9788352408967, 215.56585899310357 560.9863453167076 M 269.01375172604344 599.2818033718704 C 271.3016460380819 601.1229937655731, 274.00193594425366 605.703938496479, 273.98468722548296 607.714816705655 C 273.9724473188679 609.1417610382537, 273.79128090231893 609.218709726627, 273.0818952490241 608.0982688916938 C 272.36787119686755 606.9705019267928, 271.1973130945585 606.8936896387727, 267.0927621979142 607.7052606232405 C 263.32076294934586 608.4510779417868, 261.5628864410253 608.4008599592148, 260.34809523629065 607.5125829429089 C 257.77619764087524 605.631965505611, 259.37919134815456 601.2785471284013, 263.2704238772021 599.5761081134582 C 267.3053543388518 597.8108003377812, 267.1930119214254 597.8165570883968, 269.01375172604344 599.2818033718704 M 134.2860389305839 714.4507537085289 C 119.22109683399248 719.1589034795945, 109.18682881022836 731.1806817083112, 110.19316383759202 743.3157591652467 C 110.77248972193395 750.3016677226724, 113.58097818379652 754.1586396481787, 120.58301371406799 757.5844164262478 L 126.11776979756029 760.2923202609444 120.80888489878015 763.1922393172742 C 100.6547137952867 774.2012300868764, 96.0853804633063 796.0237620264365, 110.80509476127422 810.9690185389738 C 118.77174368957617 819.0577361165452, 125.07616198909719 821.3330167046933, 138 820.7837289605361 C 149.84151915777565 820.2804418301897, 156.39037120292303 817.4525443881752, 163.76014912871008 809.6600909053791 C 171.11347070627698 801.8850375843374, 174.22692883008358 795.1749955365281, 174.78334038221698 785.9032026252687 C 175.56222797154103 772.9241686679884, 170.9011810850762 766.9068699490662, 159.50661398216675 766.181318586023 C 152.66208682656773 765.7454919361575, 148.3333296189377 767.1510854974025, 143.2061501641625 771.4742527675726 C 132.80578890655315 780.2436944817622, 133.6684503041848 797, 144.52028690863466 797 C 149.2279257087339 797, 151.6160774255925 795.6431045390809, 153.5747477358347 791.8554538177923 C 155.67487046056857 787.7942642896022, 154.1967231672829 786.1697709051483, 150.56593808817036 788.5487526589064 C 145.1907194290795 792.0707311935222, 139.7752591624573 786.2410309496928, 142.04198494612945 779.372784363687 C 144.321552394524 772.465627151383, 153.91628851074387 769.3071750969889, 159.63927755836147 773.5800033711049 C 164.86241697165823 777.4796400083748, 166.411686952737 780.5940987914616, 166.8324304106895 788.0402190550233 C 167.17335220806316 794.0736930300372, 166.8597482665019 795.7663755133299, 164.5119345797629 800.5651338440671 C 154.86640065010016 820.2798950965527, 126.24179902663285 822.1154226417023, 116.80822626252802 803.6240924201152 C 112.19729782673778 794.5859260258586, 113.75135397789354 780.4277172294517, 120.29954957200488 771.8164358212376 C 124.458727729673 766.3468598093687, 132.76312415858283 761.3338796011936, 140.21419295260995 759.794886275229 C 144.60099676446782 758.8888066274103, 146 758.1769481752651, 146 756.8508790388207 C 146 755.3281098797169, 145.06233701561814 755.1276538819341, 138.75 755.3009554435295 C 132.71644777160716 755.4666031300457, 130.88270758083502 755.1161547070309, 127.8209517552626 753.2122911160014 C 117.6169618042631 746.8672374743361, 117.35132344527918 730.0530987558249, 127.3372836810415 722.5975029326374 C 131.1540256174321 719.747893624438, 138.5121355816385 720.0385415858426, 149.28630652689424 723.4644971439232 C 160.70545735360875 727.095542487655, 170.26000319169987 726.7957886932494, 177.45225264364393 722.5808497822807 C 182.02751305498072 719.8995685969701, 183.12640231288222 717.1976985892461, 179.39237123420799 717.8106254911786 C 174.2275096092272 718.6584177478609, 167.7051707113465 717.9028774930258, 160.0737749520643 715.5727814621282 C 150.65964397575453 712.6983624286809, 141.2090039066553 712.2871638481629, 134.2860389305839 714.4507537085289 M 476.9717234099717 714.8769585765854 C 453.5648292694665 722.3686696663528, 434.9326632105723 744.822686138758, 435.02196200049093 765.4315012274278 C 435.0460984690566 771.0018344650465, 437.55431596758876 777.4654609309182, 440.81818926767664 780.368263285867 C 443.11871008978125 782.4142854950729, 450.41165382695254 783.6154655725517, 454.4221484190173 782.60889550467 C 457.9815096028061 781.7155527146135, 463.7569159380466 776.3968079900952, 466.0514754054226 771.8990998698201 C 468.6910323941979 766.7251407412211, 466.68381082604344 765.7147311472362, 462.8956087437036 770.3104770675701 C 453.3291324985812 781.9162713783994, 441.1098429893194 773.7722140757124, 442.2165078475038 756.5280241238823 C 443.85638228319954 730.9752959811626, 477.0743013039381 710.5125353819996, 499 721.5484998142604 C 511.20815418982164 727.6932871384898, 516.2456759340131 741.5189902974112, 510.6418221261564 753.5 C 508.2043559424941 758.711289765491, 502.95263179096673 764.5628710738522, 499.82096837554764 765.556822430241 C 496.75536188298696 766.5298081337595, 497.7826154135968 767.7880042387415, 502.25 768.5319381516247 C 510.4112799473299 769.8910002175663, 516.7690208704842 774.5688427677359, 520.5546879091485 782 C 522.7859825981105 786.3799683109596, 523.6250815254798 799.0016840543997, 522.0679938747808 804.7631297193353 C 520.6341544133089 810.0685395630279, 515.8487954018264 815.6546627252055, 512.0167396788402 816.496323349772 C 507.4911580918537 817.4903078062563, 502.10528340631055 813.8344120040309, 502.0318033718705 809.7186152036611 C 501.9822778986594 806.9445720811578, 499.62772689883275 806.6970827308579, 495.6445073915535 809.0472397556634 C 491.35650394886784 811.5772237032721, 491.4089479038234 811.3612028737215, 494.14865649535466 815.2087687966202 C 498.535646955552 821.3697287800699, 509.0513842069858 822.9180475612313, 516.5724506321716 818.5104090693646 C 521.8515710976966 815.4166384188183, 528.3192780475695 806.0060352252212, 530.0098992801898 798.9587351699586 C 531.7568868406436 791.6764738959495, 530.8637134616454 779.5348219208815, 528.2001606851017 774.3574464346705 C 525.6657165400037 769.4310304448854, 519.037924180129 763.4976500355136, 514.3360058360545 761.9458770451627 L 510.962999398325 760.8326845345047 513.5292978159027 757.7828121510667 C 526.6607024291316 742.1770244487009, 521.5363491094637 719.8003766191495, 503.6121790967228 714.4774701460146 C 496.8736493472933 712.4763418596198, 483.8625516233088 712.6714504970573, 476.9717234099717 714.8769585765854 M 206.5 725.8813557151582 C 201.8837977941261 728.7647580873818, 197.41998741824239 733.9472642046065, 194.3392906006183 740 C 191.59203663923478 745.3976107924592, 191.5293671516193 745.9095568301632, 190.97289886692124 767.5 C 190.36749389030678 790.9891405346199, 189.77475020724657 793.8901111675398, 183.89292817876884 802.150368507054 C 181.9132118533506 804.9306237116516, 181.89083142570794 808, 183.85027545650047 808 C 184.35245023354824 808, 186.16127983055992 805.8625, 187.8698967831931 803.25 L 190.97647306070792 798.5 191.00297833275098 807 C 191.03549934160628 817.4291921554689, 192.29227803997077 820.379302780311, 196.8913845541258 820.8222025720763 C 198.7315619184321 820.9994139867183, 201.5455654139513 820.6024465311259, 203.14472565527956 819.94005267076 C 206.3621384607045 818.607356651, 214.21991434623772 810.3324467144441, 216.7973654241005 805.5626555384201 L 218.45233196819208 802.5 219.0141277391832 807.5 C 219.71683730683444 813.754137214414, 221.25561236175065 816.5753062767666, 225.3138218934111 819.0497727841442 C 228.79491639864534 821.172347208904, 236.16636736040866 821.6476441928824, 240.4349003388255 820.0247508470637 C 242.10156700549211 819.3910853098154, 243 819.3910853098154, 243 820.0247508470637 C 243 821.5619332977445, 246.46211132978254 821.1731794125006, 252.33235997223767 818.9768379256933 C 256.18847175333946 817.534081613576, 259.3264341834608 815.2901981043282, 263.2705811147581 811.1551719278443 L 268.80141707082015 805.356668004302 269.4356688506924 809.3230607381835 C 271.9062605966885 824.7732927449093, 290.7852552819653 825.0513340340366, 301.74041690314164 809.7988304464317 C 309.5582336220179 798.9143467961491, 312.340737767289 779.9827807147898, 308.1341829403979 766.297006936561 C 304.24747529884496 753.6518367882098, 294.9618120671581 745, 285.2769748010471 745 C 279.54312638246245 745, 277.1634370675834 746.3645921288372, 275.35676083223166 750.688576997672 C 273.51457221792583 755.0975549528436, 273.8277650960356 755.3927382260969, 278.89905820826357 754.0271808018338 C 286.81977587774463 751.8943530240482, 295.18141376125766 756.3343064066074, 300.5742704959551 765.5365206530823 C 303.2324543053265 770.0723683723375, 305.2313460434011 779.3993274547239, 304.30468581907417 782.942881596148 C 303.77696391909495 784.9608932417324, 303.6420498278374 784.9860346705611, 301.88304550967916 783.3941576409266 C 299.4776372172601 781.2172930544859, 291.2384264752585 780.4361782398163, 286.65117738362164 781.9501069641178 C 281.8556794500638 783.5327640040806, 274.19977773498124 790.5710728886512, 267.99622387169745 799.1001867235746 C 261.5071746841162 808.0218210675375, 256.12618143977045 813.3848173692976, 251.08132905536797 815.9585090119285 C 245.6855721480427 818.7112187841682, 245.32304109485952 818.5332748048875, 249.2688011224012 815.0688516153618 C 258.5134230315057 806.951966073224, 261.0548772776645 793.3040778121851, 254.62772524124802 786.2908408823537 C 251.5310717226651 782.9118069506269, 250.72843515718694 782.5774943067307, 244.8073245037981 782.2004663892596 C 232.80522094759107 781.4362300197738, 223.75188530847305 787.9035615597631, 211.50806048125418 805.9880944035025 C 206.80340131864648 812.9370310589532, 202.75530694898876 816.5848393551639, 200.97175436406215 815.4825432369566 C 200.4086151293921 815.1345040495319, 200 808.1901239397481, 200 798.9676587111971 L 200 783.0533514111441 208.51368141147725 768.8027177734556 C 222.57828744690352 745.260663733345, 225.902349434813 733.6026968899155, 220.4111063580068 727.0767252819435 C 217.2901889689682 723.3677257008253, 211.34243793986425 722.856640501127, 206.5 725.8813557151582 M 493.4337243379611 730.25 C 485.5216380876752 739.6208784452909, 483.1690905970925 751.120019156194, 484.8198305469751 772.3543048728378 C 486.450021508287 793.3242587699684, 484.95171186613186 801.4296563739331, 477.97665207735275 809.373810594897 C 473.6185776662035 814.337383134347, 469.5964572182684 816.2734171733831, 463.52594571737893 816.3296091004809 C 452.60337049421656 816.4307143451659, 446.38581157041517 808.8119388951654, 449.46738767055706 799.1027523513617 C 450.2956638376519 796.4930852346744, 448.62703181881193 796.3651849768229, 443.02023644452777 798.6085797028052 C 438.38021590550727 800.4651478332262, 437.9985714686841 802.2421453776959, 440.8958634872027 808.5 C 444.7278511798946 816.7767017415061, 452.00419745311063 821.0274696346041, 462.21788136910334 820.9561071759422 C 473.2007260905078 820.8793706322165, 481.3782263861069 816.5075508177695, 488.101835914483 807.1181394269668 C 495.6746826596824 796.5427820701642, 497.44941967422454 785.1373409100465, 494.5 766 C 492.2210030714091 751.2127042019342, 492.5504452664547 740.706551586185, 495.51910487412215 733.5 C 498.3692353048219 726.581183196907, 498.268088548931 727, 497.0888936419932 727 C 496.5877851450894 727, 494.94295895827497 728.4625, 493.4337243379611 730.25 M 214.3892890279016 729.5321461707588 C 219.55937914219166 734.7022362850488, 216.33776829566423 747.2437434024504, 204.63626265151558 767.5 L 200.01487346727146 775.5 200.0130136680384 759.5 C 200.01199077846024 750.7, 200.50971313546836 741.7, 201.11906335027865 739.5 C 203.57315486890877 730.6397399889862, 210.38226149622545 725.5251186390825, 214.3892890279016 729.5321461707588 M 596.6563024220194 746.1325346004116 C 594.8135560539308 747.2036989031834, 591.4758617827149 753.8091951160482, 592.3404771405874 754.6738104739206 C 592.5921787423543 754.9255120756876, 594.6435402228087 754.6345287232485, 596.8990582082637 754.0271808018337 C 604.8197758777446 751.8943530240482, 613.1814137612583 756.334306406608, 618.5742704959551 765.5365206530826 C 621.2324543053267 770.0723683723382, 623.2313460434012 779.3993274547247, 622.3046858190742 782.9428815961483 C 621.7769639190948 784.9608932417322, 621.6420498278371 784.9860346705609, 619.883045509679 783.3941576409263 C 617.47763721726 781.2172930544859, 609.238426475258 780.4361782398164, 604.6511773836216 781.9501069641178 C 599.575516792758 783.6252260190919, 592.0122512259322 790.7865366453724, 584.8701770852986 800.6798324224151 C 578.4988959108298 809.5054155648679, 572.9154203092952 814.4203925969258, 568.0456777613309 815.4899674806658 C 564.5414350276047 816.2596282948887, 558.5512712131983 813.8985767759115, 557.0924203795778 811.1726890588736 C 556.1569869748688 809.4248157539146, 556.5602926974743 808.8616902240159, 560.3295610155216 806.6527518653324 C 569.4655434638103 801.2987095495714, 576.0378745834248 792.1277933706906, 574.2879902025409 787.1754033061648 C 572.2715640139404 781.4686668318208, 564.7824527299266 780.173756454064, 557.5348881513079 784.2786956885243 C 553.449361744449 786.5926919915603, 539 802.4801702156091, 539 804.6583247058552 C 539 807.0740219722182, 541.3437982113301 807.2936501557031, 543.1619522150263 805.0483250055047 L 545 802.7784320753804 545 805.9213346685867 C 545 810.1446341928548, 547.1661546509754 814.9686190918598, 550.4034274093273 817.9546639665326 C 552.5030191915818 819.8913173622441, 554.4102349240371 820.4950107408088, 559.4410301119916 820.8153476410916 C 570.4790231221785 821.5181940767193, 576.900279565732 818.2039071076396, 584.7099762655284 807.7729563746409 L 586.7517253012892 805.0459127492817 587.4108229659271 809.1676831106734 C 588.7601444033617 817.6058758204971, 594.1851361928783 821.621018636863, 603.0818972765173 820.7661525432898 C 625.6215614729022 818.6003762005432, 636.6831694496813 776.0069672984073, 620.2725037544906 754.5726540456845 C 614.111159278113 746.5251933260801, 602.8836817262948 742.5126406605431, 596.6563024220194 746.1325346004116 M 324.493166028696 762.4200725833482 L 321.7626222724624 766 324.54941167873255 769.6536692653857 L 327.3362010850027 773.3073385307714 330.16810054250135 770.1378927229265 C 333.71566205261627 766.1674820056487, 333.7083125472055 765.0527888974083, 330.1118548924648 761.6071637881141 L 327.2237097849296 758.8401451666963 324.493166028696 762.4200725833482 M 325.85405091388657 784.014704371862 C 323.03972870513047 785.501632339599, 321.84013012427044 787.020954277324, 320.59487102363585 790.6755886953258 C 318.2002251521258 797.70348772171, 311.26696000859675 808.6156456923243, 306.72746287672624 812.5012862864952 C 304.5316923665383 814.3807841211715, 300.31974346510714 816.919686381718, 297.3675764291014 818.1432913099319 C 291.47045173060815 820.5875130478493, 290.50574025893224 822.0053081081637, 294.75 821.990231084296 C 301.96579242122664 821.9645981868775, 312.33744769214866 814.0485191435333, 318.90488242569666 803.5542193224528 L 322 798.6084386449056 322 807.5817130790474 C 322 818.3953855250479, 323.2823567665883 821, 328.60636389553326 821 C 334.6748665676423 821, 339.73861889155665 817.1471036730783, 346.874790108802 807.0999615002231 L 350 802.6999230004463 350 805.8820801311197 C 350 810.1419566802447, 352.15619996798057 814.9594369399824, 355.40342740932726 817.9546639665326 C 358.95039274705607 821.2263677919339, 368.5619601027328 821.9705202037879, 375.8796201056764 819.5399837813677 C 380.99042849848934 817.8424457785436, 390 809.4908740476831, 390 806.450863445881 C 390 803.4572733401909, 387.8708415461043 804.2243965491338, 383.19120663603337 808.9040314592047 C 376.9857096424672 815.109528452771, 372.0035989352788 816.8639971297716, 366.7824160627606 814.6824476326418 C 364.79062776679217 813.8502253447901, 362.6801297093599 812.2708339865944, 362.0924203795778 811.1726890588736 C 361.1569869748689 809.4248157539146, 361.5602926974744 808.8616902240159, 365.3295610155218 806.6527518653323 C 380.8540655136906 797.5547862677747, 384.62441087167383 782, 371.30517437059143 782 C 362.92046006573366 782, 354.65426903524076 788.9182910411859, 343.0226623978159 805.6707146594722 C 338.00066674850217 812.9036448254396, 333.8623708508796 816.6510084855006, 332.09983127399465 815.5616991204689 C 331.37221593312665 815.1120081090767, 331 809.3178436084274, 331 798.4409830056251 C 331 789.3984423525313, 330.6625 782.0198882019224, 330.25 782.044196004272 C 329.8375 782.0685038066215, 327.85932291124897 782.9552325720371, 325.85405091388657 784.014704371862 M 650.5 784.3086684316523 C 644.0776147568988 787.3878544137276, 630.9716638506933 801.4156899288465, 630.3575252061819 805.867983379286 C 629.9839596874443 808.5762046046538, 621.3937249244344 815.6455921936193, 615.5163341216045 818.0816346883937 C 609.4859831223099 820.5810756453593, 608.4699121646415 822.0122195599241, 612.75 821.9780379995091 C 619.6363590142306 821.9230422831268, 631.3539423013613 813.4129249102893, 634.7501655466901 806 L 636.3536866267635 802.5 636.9648050684689 807.5 C 637.7325639860782 813.7815885204403, 639.2746913914614 816.5869395893502, 643.3138218934112 819.0497727841441 C 646.7949163986453 821.172347208904, 654.1663673604083 821.6476441928824, 658.4349003388254 820.0247508470637 C 660.1015670054921 819.3910853098154, 661 819.3910853098154, 661 820.0247508470637 C 661 821.5553500228337, 664.4545680467817 821.1760017163604, 670.2448938547095 819.0095631941306 C 676.1622501669809 816.7955964693025, 681.6452834235688 811.6746622966712, 687.3721942399295 803.0133483759523 L 691 797.5266967519045 691 809.2633483759523 C 691 815.7185067691785, 691.2483469130001 821, 691.5518820288892 821 C 691.8554171447781 821, 693.8769511933198 819.9875, 696.0441799145372 818.75 L 699.9845957712962 816.5 699.9922978856481 809.1951305911666 C 699.9995520185616 802.3151374897006, 700.2349178616253 801.5443292919913, 704.0389267916768 795.9426777575084 C 708.3256393106957 789.6302136698587, 712.5272930881036 786.0956194911302, 713.9544599742135 787.6013465287358 C 714.4229317784213 788.095605937931, 714.9701322241677 794.8527434949524, 715.1704609647609 802.617207766561 C 715.4272505627071 812.5700165980368, 715.9344316871968 817.2160687290361, 716.8897922347255 818.367207766561 C 718.5791275273162 820.4027322685932, 724.1502175196 820.490799891571, 727.9196184264704 818.5415669271399 C 731.7861095242963 816.5421266736967, 740.1564835556142 807.0510702380416, 739.7795398277688 805.0937588696981 C 739.2502938864583 802.3456057076929, 737.2895258963068 803.3332148497717, 733.5490566604697 808.2319588844366 C 729.2454736128672 813.8681907187053, 726.1646756926864 815.867753292242, 724.8881388106956 813.8532451984278 C 724.4165065167817 813.1089603392925, 724.0237348005014 806.9579163456598, 724.015312774517 800.1842585459107 C 723.9963926769115 784.9672232439541, 722.821407350425 782.0487920275224, 716.7003400731157 782.015312774517 C 712.5694239116928 781.9927186775978, 708.7063805343922 784.3572718256229, 704.1065587415158 789.7239151340332 L 700.0129124921606 794.5 700.0064562460802 788.25 C 699.9993604947008 781.3809238262198, 699.9700849042903 781.3542113785268, 695.1273075909543 783.7980316055383 C 692.6613591214201 785.0424280249277, 691.2879335314378 786.7452939755755, 690.0187627638254 790.1319510453152 C 686.1872375088006 800.3559984500837, 676.3875436575338 812.1864301284677, 668.2996599268843 816.3517866981414 C 663.7173767548368 818.7117171756854, 663.4701855718985 818.4040802429006, 667.2688011224013 815.0688516153618 C 676.5241046122651 806.9425875211006, 679.0551531286411 793.3043788177074, 672.612628700302 786.2743677045177 C 669.4266170979117 782.7978272240449, 668.8173136839082 782.5582910152077, 662.362628700302 782.2447724582845 C 656.7291356920965 781.971141041282, 654.6044716640124 782.3407965066183, 650.5 784.3086684316523 M 299.59093406325314 787.085428116787 C 308.0926689441512 795.0723933343901, 296.66084083857834 818.2118367347015, 285.5864086462236 815.4323311880119 C 280.6100892051994 814.183354513797, 278.49963252335715 810.4779527062979, 278.50389777209426 802.9973218270418 C 278.50730796824286 797.0163298179486, 278.88576959104927 795.6194736695135, 281.5293898319036 791.8305959792576 C 286.8651404365043 784.1833151353167, 294.39579245858187 782.204845991101, 299.59093406325314 787.085428116787 M 617.5909340632531 787.085428116787 C 626.0926689441512 795.0723933343901, 614.6608408385785 818.2118367347014, 603.5864086462236 815.4323311880119 C 598.6100892051994 814.183354513797, 596.4996325233571 810.4779527062979, 596.5038977720942 802.9973218270418 C 596.5073079682429 797.0163298179486, 596.8857695910493 795.6194736695135, 599.5293898319036 791.8305959792576 C 604.8651404365041 784.1833151353167, 612.3957924585817 782.204845991101, 617.5909340632531 787.085428116787 M 246.57137574107924 788.6387241353793 C 252.74126432829502 792.6813904050379, 252.12978091573711 809.0640437497195, 245.65054127225136 813.3094046163696 C 239.15366571328946 817.5663209786532, 231.0166695470985 815.677480633748, 228.34916210732115 809.2932366937396 C 226.5068312623474 804.8839183326643, 226.98484790525757 796.863767830648, 229.36422355972434 792.2625626830891 C 232.3810790163516 786.4286075316963, 240.56716247399922 784.7046125047484, 246.57137574107924 788.6387241353793 M 370.42857142857144 787.5714285714286 C 374.1829397746571 791.3257969175141, 370.96485833723165 798.3864638263877, 363.35605372317343 803.0889636916328 C 359.2705820293722 805.6139240584777, 358.041810985508 804.765006981441, 358.01531277451704 799.3992232652265 C 357.99038722782075 794.3518978957251, 360.0505097884069 789.9402322992338, 363.38064557396035 787.9095893095185 C 367.1767041399713 785.5948369354386, 368.3935932369213 785.5364503797784, 370.42857142857144 787.5714285714286 M 565.4285714285714 787.5714285714286 C 569.182939774657 791.3257969175141, 565.9648583372317 798.3864638263877, 558.3560537231734 803.0889636916328 C 554.2705820293721 805.6139240584776, 553.0418109855079 804.7650069814409, 553.015312774517 799.3992232652265 C 552.9903872278207 794.3518978957251, 555.0505097884069 789.9402322992338, 558.3806455739604 787.9095893095185 C 562.1767041399713 785.5948369354386, 563.3935932369213 785.5364503797784, 565.4285714285714 787.5714285714286 M 664.5713757410792 788.6387241353793 C 670.7412643282951 792.681390405038, 670.1297809157371 809.0640437497196, 663.6505412722513 813.3094046163696 C 657.1536657132895 817.5663209786532, 649.0166695470984 815.677480633748, 646.3491621073211 809.2932366937396 C 644.5068312623474 804.8839183326644, 644.9848479052577 796.863767830648, 647.3642235597243 792.2625626830891 C 650.3810790163515 786.4286075316965, 658.5671624739992 784.7046125047484, 664.5713757410792 788.6387241353793 M 429.5 845 C 429.1518282891883 845.5633536620145, 424.3229490168751 846, 418.44098300562507 846 C 412.1469943352083 846, 408 846.3971842816883, 408 847 C 408 847.55, 408.41785714285714 848, 408.92857142857144 848 C 412.1786934868363 848, 412.9999269600349 851.2033322980006, 412.98468722548296 863.8214285714286 C 412.96871099573707 877.0493233442565, 412.7724925600994 877.9493415880739, 409.5 879.805054507184 C 407.9040439693275 880.7100638143281, 409.5202198466377 880.9480843974939, 417.5 880.9832459973917 C 423 881.0074808504479, 428.45537547667465 881.2837104744624, 429.62305661483254 881.5970896063127 C 431.44666564254186 882.0865049058006, 431.84206098050515 881.6261810909349, 432.42637420306653 878.3334349230203 C 432.80051773843735 876.2250457153591, 433.33796671351337 873.7125, 433.6207052587911 872.75 C 434.3308711415728 870.3324496744647, 431.3098632140663 870.4483469611631, 430.54185828855265 872.8681162110704 C 429.5788099477681 875.9024128461418, 426.72828654641233 877.8599071305406, 422.22387514067094 878.5801915660592 L 418 879.2556164434408 418 871.6278082217204 L 418 864 423.5 864 C 429.8714349294906 864, 430.8223525474273 862.5470223692553, 425.05453465135827 861.6247110874419 C 420.1510159637976 860.8406068234702, 418 857.9905231979164, 418 852.2774937565946 C 418 848.7816276941734, 418.3381929779326 848, 419.85077673477343 848 C 423.79882983403667 848, 428.01541261801214 850.213227414845, 428.61443595369474 852.599926488195 C 429.81049223004766 857.3653942695015, 432 855.3606136659293, 432 849.5 C 432 844.4093929294588, 430.98933775594287 842.590200890156, 429.5 845 M 577.5 845 C 577.1518282891883 845.5633536620145, 572.3229490168752 846, 566.4409830056251 846 C 560.1469943352083 846, 556 846.3971842816883, 556 847 C 556 847.55, 556.4178571428572 848, 556.9285714285714 848 C 560.1786934868363 848, 560.9999269600349 851.2033322980008, 560.984687225483 863.8214285714286 C 560.9687109957372 877.0493233442563, 560.7724925600994 877.9493415880739, 557.5 879.805054507184 C 555.9040439693275 880.7100638143281, 557.5202198466377 880.9480843974939, 565.5 880.9832459973917 C 571 881.0074808504479, 576.4553754766747 881.2837104744624, 577.6230566148326 881.5970896063127 C 579.4466656425419 882.0865049058006, 579.8420609805052 881.626181090935, 580.4263742030666 878.3334349230203 C 580.8005177384374 876.2250457153591, 581.3379667135134 873.7125, 581.6207052587911 872.75 C 582.3308711415729 870.3324496744647, 579.3098632140664 870.4483469611631, 578.5418582885527 872.8681162110704 C 577.578809947768 875.9024128461419, 574.7282865464123 877.8599071305406, 570.223875140671 878.5801915660592 L 566 879.2556164434408 566 871.6278082217204 L 566 864 571.5 864 C 577.8714349294906 864, 578.8223525474273 862.5470223692553, 573.0545346513583 861.6247110874419 C 568.1510159637976 860.8406068234702, 566 857.9905231979164, 566 852.2774937565946 C 566 848.7816276941734, 566.3381929779325 848, 567.8507767347735 848 C 571.7988298340366 848, 576.0154126180121 850.213227414845, 576.6144359536947 852.599926488195 C 577.8104922300477 857.3653942695015, 580 855.3606136659292, 580 849.5 C 580 844.4093929294588, 578.9893377559429 842.5902008901559, 577.5 845 M 308.5 860.5346984869775 C 302.26098037011644 876.7345046873826, 299.6952614976722 880.6728304388454, 296.1198151527702 879.5380278522351 C 293.7937689654632 878.7997694712376, 293.56551169470856 877.7946788315156, 291.9195081044986 861.0427164686419 C 290.80249596123565 849.6744876907031, 290.8115164964285 849.5710430001483, 293.08003941069876 847.7341045867104 L 295.36633314509436 845.8827762361371 290.12166332462493 846.1913881180685 L 284.87699350415556 846.5 279.28242773604404 859.7939309839663 C 276.20541656358273 867.1055930251479, 273.3427889360058 872.7305930251479, 272.9210330080953 872.2939309839663 C 272.49927708018487 871.8572689427848, 269.91992890531753 865.875, 267.1891481750568 859 L 262.2240923018555 846.5 256.9288795783805 846.1913881180685 C 251.69639956193777 845.886432379863, 251.6595621751037 845.9042029710483, 253.819468097654 847.6913881180685 C 255.92519691664123 849.4337451483706, 255.96728998275188 849.8296968634467, 254.96851632042313 858.5 C 253.66186080744816 869.8430097527064, 252.399314597539 874.7712776259892, 249.9088709669541 878.25 L 247.9401251896898 881 254.65862404147714 881 L 261.37712289326447 881 259.1885614466322 878.9610448525805 C 257.28712769970053 877.18958984877, 257.00972455932674 875.9104413576969, 257.07412310149857 869.2110448525805 C 257.11489080732275 864.9699701836612, 257.45239080732273 859.5221993651508, 257.82412310149857 857.1048874781129 L 258.5 852.7097749562258 264.43022007894507 867.3548874781129 C 267.8586809557874 875.8217225449113, 270.9172106517833 882, 271.68022007894507 882 C 272.4060990355253 882, 273.02091302277665 881.4375, 273.04647338394807 880.75 C 273.07203374511954 880.0625, 275.9206279169696 873.65, 279.376682654726 866.5 L 285.6604185415557 853.5 286.4214033111399 863.9058603915405 C 286.8399449344112 869.6290836068877, 287.39686126257146 874.8706289358838, 287.6589951514959 875.5537389004206 C 287.9211290404204 876.2368488649574, 287.12023907127303 877.7417116887643, 285.8792396645017 878.8978785088802 L 283.6228771067357 881 297.56143855336785 880.9366136995809 C 307.01405216604 880.8936274697255, 310.76873251279613 880.5795222552995, 309.2278342991078 879.9606382772095 C 306.177909118985 878.7356710395403, 305.5872722995999 876.7806069773073, 306.9863891005017 872.5412414305625 C 308.14487546763104 869.0309932597049, 308.20555260879905 869, 313.91926444944795 869 L 319.6834247331519 869 320.9130391572471 873.1040871687514 C 321.5893270904994 875.3613351115647, 322.36859799188863 877.7969760331132, 322.6447522714454 878.5166225499703 C 322.92090655100213 879.2362690668274, 322.3263094952001 880.0372292331754, 321.3234254807743 880.2965340307436 C 320.3205414663484 880.5558388283118, 322.39094131201927 880.8201979067634, 325.92431402670945 880.8839986495248 L 332.34862805341896 881 330.23238615016675 878.7473637213739 C 329.06845310337803 877.5084137681296, 325.6760323019477 869.5209137681296, 322.6936732580994 860.9973637213739 C 319.5452309879106 851.9991496013707, 316.6901209173994 845.3858291197835, 315.8856011346421 845.2277570504405 C 314.9408840852367 845.0421390182385, 312.59086147139783 849.9126509601633, 308.5 860.5346984869775 M 345.5 846.5725928374945 C 338.19802859533 850.3702784418118, 334.0583639521061 857.2022565301342, 334.02196200049093 865.5156017205777 C 333.96526815680966 878.4631353494703, 345.0105658514654 885.6063909645349, 356.2339735019517 879.8806356260429 L 360.38827086931053 877.7612712520857 362.10442802430487 879.8806356260429 C 364.6462706013424 883.0196783333515, 365 882.572793255863, 365 876.2225062434054 C 365 872.611890000961, 365.5838494973714 869.6114505641525, 366.55670396864906 868.2225062434054 L 368.1134079372981 866 360.30670396864906 866.090188267184 C 353.8142276250545 866.1651936975824, 353.03642813305737 866.3355813339767, 355.68646142829346 867.1023157037783 C 361.12867956351033 868.6769131625083, 361.2995111764174 874.7595162638137, 355.9787913293142 877.5109674298526 C 352.3610278621111 879.3817856267002, 351.5843639278362 879.3711334467614, 347.4168917131568 877.3935383961297 C 338.45773015858305 873.142137874315, 336.3494994708589 857.738388962954, 343.7731151698571 850.7703518117964 C 349.10058295165004 845.7698244501582, 358.8015404942003 846.7176132976341, 360.98161020376335 852.4516311704001 C 362.4791223434116 856.3903865853124, 364 855.4700009752917, 364 850.625 C 364 846.525, 363.80357142857144 846.2107142857143, 360.875 845.625 C 355.43467089846104 844.5369341796923, 348.60467534070733 844.9578808379457, 345.5 846.5725928374945 M 434 850.25 C 434 855.518582011641, 436.28208020658184 856.9965563034987, 437.4195211813228 852.4646304857653 C 437.7814356474607 851.0226483967388, 439.15002250776377 849.5132605277346, 440.593028872372 848.9646304857653 C 446.0350625259241 846.8955729784841, 446 846.8049256804853, 446 862.9432960313509 C 446 877.2516566494885, 445.9055664883393 877.952735868962, 443.7774937565946 879.4432960313509 C 441.6808332835518 880.911854191302, 441.97654913288864 881, 449 881 C 456.02345086711136 881, 456.3191667164482 880.911854191302, 454.2225062434054 879.4432960313509 C 452.0944335116607 877.952735868962, 452 877.2516566494885, 452 862.9432960313509 C 452 854.3414603242871, 452.3967420168473 848, 452.9349003388255 848 C 455.5938816137682 848, 459.146909571509 850.2562021330807, 459.99318195920773 852.4820671937285 C 461.52153299918115 856.5019350633779, 463 855.4044168082764, 463 850.25 L 463 845.5 448.5 845.5 L 434 845.5 434 850.25 M 489.3881174468619 845.9800691274247 C 486.5234190414537 847.1375374702642, 483 851.7884331156844, 483 854.412352448396 C 483 857.5069752466298, 485.4062262503099 860.4982653710382, 491.5414510489645 865.0306216853785 C 497.72712734487965 869.60024870612, 499.42599414786406 872.1665681129102, 498.55710197386315 875.628510282769 C 497.8730759403557 878.3538870804181, 493.774420767643 880.3805669445874, 490.8340892845871 879.4473419845147 C 488.1877872582938 878.607438348799, 485 874.9815342233748, 485 872.8114385533679 C 485 871.8151473490155, 484.325 871, 483.5 871 C 482.38767331074496 871, 482 872.1694167607849, 482 875.5247508470637 C 482 879.5364702799674, 482.31180421566324 880.1700322953285, 484.75 881.1125378451869 C 486.2625 881.6972077282696, 489.7220885336609 881.968998617031, 492.4379745192465 881.71651759799 C 496.53705187873305 881.3354488659652, 497.9386187643141 880.6434822432583, 500.6879745192465 877.6434157745512 C 506.3600038343423 871.4541603727303, 505.372440656164 867.9480780528329, 496 861 C 487.2774677661873 854.5337190170393, 485.88080732142976 851.434654332902, 490.3650207888552 848.4964848223094 C 493.613136959562 846.3682373673299, 497.4261439748302 847.9150783044736, 498.8252623086977 851.9285917837215 C 500.37380661574434 856.3707488901648, 502 855.6987244388646, 502 850.616631363961 C 502 846.9162421653039, 501.64942402482995 846.1393119999975, 499.75 845.6302860472534 C 496.6472388084042 844.7987782053798, 491.91654127118034 844.9584709974417, 489.3881174468619 845.9800691274247 M 371.77173622251917 847.230193616551 C 374.8636588600802 848.7203046034159, 375.3917351691839 851.6099349860662, 374.6475036185411 862.9663754859556 C 374.0043221981384 872.7808633629205, 372.55158072373683 879, 370.9021748573656 879 C 370.4059786858145 879, 370 879.45, 370 880 C 370 880.5555555555555, 372.6666666666667 881, 376 881 C 379.3333333333333 881, 382 880.5555555555555, 382 880 C 382 879.45, 381.5940213141855 879, 381.0978251426344 879 C 379.4040132213684 879, 377.9553625488267 872.581582921361, 377.32541501592755 862.2858935257293 C 376.9792735240212 856.6286520865782, 376.95030817902034 852, 377.26104758259225 852 C 377.5717869861641 852, 382.810036298593 858.75, 388.90160161021186 867 C 394.9931669218308 875.25, 400.3832636900985 882, 400.8795944285845 882 C 401.37592516707053 882, 401.945801715781 875.2846701849946, 402.1459867590522 867.0770448555438 C 402.47873619397996 853.4342539364754, 402.70511657878194 851.8901257236702, 404.784917187655 849.0770448555438 L 407.05987481031025 846 400.34137595852303 846 L 393.62287710673576 846 395.7470055073703 847.9789266337111 C 398.21382598331564 850.2771195014183, 399.2685923247725 855.945347210022, 398.8166088641078 864.47472301744 L 398.5 870.4494460348801 389.57373776263387 858.22472301744 L 380.6474755252678 846 375.07373776263387 846.0676802812072 C 370.2938116509019 846.1257215377516, 369.82354063969444 846.2912866700244, 371.77173622251917 847.230193616551 M 465.5 847.194945492816 C 468.7791190518575 849.0544160572493, 468.96937445096586 849.9485612977218, 468.96937445096586 863.5 C 468.96937445096586 877.0514387022782, 468.7791190518575 877.9455839427507, 465.5 879.805054507184 C 463.88489687500396 880.7209214433822, 465.03958750001595 880.9320097679185, 471.5 880.901911032892 C 477.79967481000085 880.872561166632, 479.04023157794535 880.6422360827397, 477.3367976913646 879.8182355795284 C 474.4366364273007 878.415343245515, 474.02730936658486 876.3970568065437, 474.02730936658486 863.5 C 474.02730936658486 850.6029431934561, 474.43663642730064 848.584656754485, 477.33679769136455 847.1817644204716 C 479.04023157794535 846.3577639172603, 477.7996748100009 846.127438833368, 471.5 846.098088967108 C 465.03958750001595 846.0679902320815, 463.88489687500396 846.2790785566178, 465.5 847.194945492816 M 510.81946809765407 847.6913881180685 C 512.9251969166411 849.4337451483705, 512.9672899827518 849.8296968634468, 511.9685163204231 858.5 C 510.66186080744814 869.8430097527064, 509.39931459753893 874.7712776259893, 506.90887096695405 878.25 L 504.9401251896897 881 511.65862404147697 881 L 518.3771228932643 881 516.1885614466321 878.9610448525805 C 514.2871276997006 877.18958984877, 514.0097245593267 875.9104413576966, 514.0741231014986 869.2110448525805 C 514.1148908073227 864.9699701836612, 514.4523908073227 859.5221993651508, 514.8241231014986 857.1048874781129 L 515.5 852.7097749562258 521.430220078945 867.3548874781129 C 524.8586809557873 875.8217225449113, 527.9172106517833 882, 528.680220078945 882 C 529.4060990355252 882, 530.0209130227767 881.4375, 530.0464733839481 880.75 C 530.0720337451195 880.0625, 532.9206279169696 873.65, 536.376682654726 866.5 L 542.6604185415557 853.5 543.42140331114 863.9058603915405 C 543.8399449344113 869.6290836068877, 544.3968612625715 874.8706289358838, 544.6589951514959 875.5537389004206 C 544.9211290404204 876.2368488649574, 544.120239071273 877.7417116887643, 542.8792396645017 878.8978785088802 L 540.6228771067357 881 548.0614385533679 880.9323197187928 C 554.120816552294 880.8771880364304, 555.0861956436314 880.6649476386027, 553.2681655498028 879.7876110556158 C 550.7600094218413 878.5772366320169, 550.5559963806094 877.6978381049171, 548.9195081044986 861.0427164686419 C 547.8024959612356 849.6744876907031, 547.8115164964286 849.5710430001483, 550.0800394106988 847.7341045867104 L 552.3663331450944 845.8827762361371 547.1216633246249 846.1913881180685 L 541.8769935041555 846.5 536.282427736044 859.7939309839662 C 533.2054165635827 867.1055930251478, 530.3427889360058 872.7305930251478, 529.9210330080953 872.2939309839662 C 529.4992770801848 871.8572689427848, 526.9199289053174 865.875, 524.1891481750567 859 L 519.2240923018554 846.5 513.9288795783805 846.1913881180685 C 508.696399561938 845.886432379863, 508.6595621751039 845.9042029710483, 510.81946809765407 847.6913881180685 M 316.6028458743988 861 L 318.70479003666355 867 313.7690616849984 867 C 311.0544110915826 867, 308.9833333333333 866.6499135586831, 309.16666666666663 866.222030130407 C 309.35 865.7941467021309, 310.3763949856657 863.0941467021308, 311.44754441259045 860.222030130407 C 312.5186938395152 857.3499135586832, 313.64389672474533 855, 313.94799526865745 855 C 314.25209381256957 855, 315.44677658515315 857.7, 316.6028458743988 861" stroke="none" fill-rule="evenodd" data-fill-layer-id="trace-color" style="fill:#2773aa" data-layer-color="#2773aa" fill="#2773aa" />
</svg>