<svg xmlns="http://www.w3.org/2000/svg" width="690" height="710" viewBox="0 0 690 710">
<g>
<path d="M 16.48 701.03 C15.47,702.67 12.41,702.11 10.42,699.92 C8.17,697.42 7.86,687.54 9.11,657.50 C10.10,633.84 12.03,618.37 17.43,591.00 C21.83,568.65 23.96,556.79 24.97,549.00 C26.14,540.04 27.55,531.48 29.09,524.00 C35.02,495.19 36.52,483.94 38.95,450.00 C40.89,422.90 41.72,412.72 44.07,387.50 C45.02,377.35 45.75,373.36 48.12,365.60 C48.60,364.01 49.00,360.25 49.00,357.25 C49.00,351.45 50.75,343.34 54.13,333.50 C61.99,310.58 80.38,288.48 106.22,270.91 C117.88,262.99 140.86,249.88 148.50,246.79 C150.70,245.90 157.00,243.08 162.50,240.51 C176.79,233.86 176.93,233.80 194.00,227.02 C225.34,214.58 231.69,211.90 240.50,207.37 C257.45,198.65 266.10,190.75 270.05,180.37 C270.64,178.81 271.76,176.17 272.54,174.52 C273.31,172.86 276.61,164.98 279.85,157.00 C289.09,134.33 299.87,109.99 302.03,106.95 C303.12,105.43 304.00,103.94 304.00,103.63 C304.00,103.32 305.24,101.14 306.75,98.78 C319.37,79.10 335.43,63.49 360.90,46.15 C375.15,36.44 379.01,32.84 378.96,29.32 C378.86,22.75 377.28,18.44 373.67,14.85 C371.65,12.84 370.00,10.69 370.00,10.07 C370.00,6.99 373.71,8.19 382.78,14.23 C394.19,21.83 398.74,24.39 417.50,33.77 C432.59,41.32 435.55,42.69 444.00,46.00 C447.02,47.19 449.95,48.51 450.50,48.92 C451.05,49.33 454.20,50.72 457.50,52.01 C460.80,53.30 465.76,55.36 468.52,56.60 C485.06,64.01 512.80,73.00 519.17,73.00 C522.01,73.00 524.00,73.49 524.25,74.25 C524.58,75.22 531.56,75.47 555.09,75.39 C581.34,75.29 587.16,74.98 597.66,73.14 C608.07,71.31 613.69,71.00 636.66,71.01 C663.62,71.02 679.47,72.07 681.38,73.98 C681.95,74.55 682.47,78.94 682.54,83.75 C682.66,91.63 682.34,93.29 679.27,100.50 C670.38,121.38 660.16,134.72 644.50,145.88 C636.29,151.73 622.15,159.38 613.79,162.49 C606.81,165.09 602.05,169.75 596.83,179.12 C591.53,188.63 588.02,192.36 579.63,197.39 C567.02,204.96 529.48,218.71 507.06,223.99 C499.92,225.67 488.99,228.86 482.79,231.08 C473.11,234.55 463.27,237.84 450.50,241.90 C444.88,243.68 436.51,244.85 425.02,245.46 C418.70,245.79 413.11,246.49 412.59,247.01 C412.00,247.60 412.36,248.76 413.57,250.12 C416.59,253.52 428.75,262.27 437.00,266.97 C441.12,269.32 446.30,272.32 448.50,273.64 C454.54,277.26 493.04,296.00 494.43,296.00 C494.74,296.00 498.26,297.49 502.25,299.31 C506.24,301.13 511.08,303.21 513.00,303.93 C514.92,304.65 517.85,305.82 519.50,306.54 C521.15,307.25 527.00,309.64 532.50,311.84 C550.91,319.20 556.55,322.16 567.03,329.95 C578.40,338.41 590.81,353.30 602.29,372.29 C604.88,376.57 607.00,380.24 607.00,380.45 C607.00,380.66 609.09,384.36 611.65,388.67 C615.70,395.47 629.00,422.16 629.00,423.47 C629.00,423.73 630.08,426.32 631.40,429.22 C633.99,434.94 640.51,455.20 645.17,472.00 C646.77,477.77 648.66,484.61 649.37,487.18 C650.09,489.76 650.48,493.18 650.25,494.77 C649.99,496.51 650.42,498.27 651.30,499.16 C652.58,500.43 654.96,510.47 659.11,532.00 C659.69,535.03 660.59,539.42 661.10,541.76 C661.61,544.10 661.73,547.21 661.37,548.66 C660.92,550.44 661.18,551.67 662.15,552.41 C664.75,554.39 668.43,599.03 667.26,614.50 C666.53,624.17 666.42,624.50 664.11,624.50 C662.71,624.50 660.95,623.46 659.88,622.00 C658.32,619.87 657.90,616.19 657.02,597.00 C655.79,570.22 654.16,554.72 650.96,539.50 C649.69,533.46 648.54,527.51 647.08,519.50 C644.96,507.83 644.21,504.36 641.02,491.50 C636.45,473.11 635.86,470.81 635.00,468.00 C634.58,466.62 633.76,463.70 633.18,461.50 C630.01,449.38 628.94,445.87 626.51,439.50 C625.04,435.65 623.57,431.63 623.25,430.57 C622.67,428.63 619.23,421.85 610.78,406.00 C599.59,385.01 580.15,354.21 572.29,345.03 C568.05,340.08 556.94,332.41 546.84,327.48 C539.19,323.73 520.40,317.00 517.61,317.00 C516.72,317.00 516.00,316.52 516.00,315.93 C516.00,314.58 501.07,315.31 500.14,316.70 C499.79,317.24 498.06,318.16 496.30,318.77 C492.12,320.20 483.45,326.64 478.84,331.75 C475.01,336.00 472.22,341.44 468.72,351.50 C465.57,360.53 465.92,378.24 469.48,390.50 C470.92,395.45 472.44,401.08 472.87,403.00 C473.30,404.92 474.13,407.40 474.72,408.50 C475.31,409.60 477.68,416.12 479.98,423.00 C484.88,437.61 497.43,463.97 505.46,476.50 C516.94,494.41 521.74,501.08 527.86,507.61 C529.49,509.34 531.52,513.26 532.44,516.46 C533.36,519.61 535.44,525.09 537.06,528.62 C538.68,532.16 540.00,535.24 540.00,535.46 C540.00,535.69 542.08,540.29 544.62,545.69 C547.17,551.09 551.21,559.69 553.61,564.81 C556.03,569.97 558.16,576.17 558.40,578.70 C558.63,581.22 559.25,583.55 559.76,583.89 C560.30,584.24 560.60,591.78 560.48,601.50 C560.27,617.77 560.13,618.86 557.16,626.86 C553.11,637.79 549.86,643.21 543.07,650.38 C535.67,658.20 528.52,663.39 518.10,668.51 C504.63,675.14 498.33,676.75 482.97,677.46 C463.85,678.35 446.93,675.08 433.50,667.92 C401.81,651.02 391.45,641.50 373.29,612.61 C371.52,609.80 370.06,606.95 370.04,606.29 C370.02,605.62 370.92,602.60 372.05,599.58 C373.80,594.92 375.26,593.17 381.80,587.91 C397.26,575.49 411.17,572.50 430.07,577.53 C433.06,578.33 436.74,578.98 438.26,578.99 C439.78,578.99 441.81,579.42 442.76,579.94 C443.72,580.46 447.36,581.92 450.86,583.19 C460.60,586.73 467.14,593.44 480.86,613.98 C492.05,630.73 492.78,631.58 498.41,634.46 C507.09,638.90 514.43,638.74 522.51,633.95 C528.00,630.71 528.68,629.91 530.62,624.45 C531.84,621.03 532.54,617.17 532.27,615.36 C531.58,610.71 526.83,605.63 520.30,602.53 C515.22,600.13 513.92,599.90 509.51,600.65 C504.89,601.43 504.32,601.85 502.19,606.00 C496.98,616.16 503.93,626.02 512.39,620.48 C515.19,618.64 518.12,619.46 517.29,621.83 C516.96,622.75 514.99,625.18 512.91,627.23 C509.21,630.87 509.06,630.92 505.81,629.54 C501.67,627.76 497.17,623.57 495.94,620.34 C494.14,615.62 494.86,607.55 497.60,601.55 C501.53,592.97 501.59,589.92 498.10,576.57 C494.18,561.58 493.99,552.13 497.36,539.99 C499.68,531.61 502.12,526.79 509.47,516.00 C513.08,510.72 513.20,510.25 512.65,504.21 C512.14,498.67 511.28,496.65 505.39,487.21 C501.72,481.32 497.21,474.37 495.37,471.76 C490.08,464.27 478.56,440.59 470.20,420.00 C460.86,396.98 457.24,373.98 460.47,358.13 C464.80,336.92 473.73,323.27 488.39,315.44 C494.51,312.17 497.00,310.14 497.00,308.40 C497.00,307.69 492.84,305.02 487.75,302.47 C478.82,297.98 478.28,297.84 472.00,298.43 C468.34,298.77 463.97,298.57 462.00,297.98 C451.47,294.78 436.14,292.85 414.00,291.92 C401.08,291.38 390.18,290.84 389.78,290.72 C389.39,290.60 389.47,289.84 389.98,289.03 C391.37,286.79 425.39,287.09 442.79,289.49 C452.94,290.90 456.35,291.05 457.24,290.16 C459.20,288.20 458.67,287.84 431.00,272.14 C410.90,260.73 388.44,238.90 379.73,222.29 C374.65,212.58 370.64,199.29 371.62,195.38 C372.07,193.60 372.90,193.00 374.95,193.00 C377.29,193.00 377.86,193.60 378.96,197.25 C382.69,209.62 385.35,217.61 386.03,218.50 C386.44,219.05 387.78,221.30 389.00,223.50 C392.39,229.64 398.20,236.93 400.20,237.56 C401.19,237.88 402.47,239.01 403.04,240.07 C404.06,241.98 404.13,241.98 408.00,240.00 C410.35,238.80 413.89,238.00 416.85,238.00 C423.70,238.00 441.87,236.10 445.50,235.00 C447.15,234.51 455.92,231.66 465.00,228.68 C482.44,222.95 492.08,220.06 507.50,215.93 C517.99,213.11 536.73,206.90 543.50,203.99 C545.70,203.04 552.55,200.14 558.73,197.55 C579.95,188.63 585.31,184.55 590.78,173.12 C594.96,164.40 600.98,159.28 615.57,152.03 C633.92,142.91 642.33,137.59 650.30,130.08 C660.75,120.22 667.35,109.67 671.92,95.52 C674.20,88.45 674.51,84.81 673.04,82.07 C672.22,80.55 669.66,80.08 656.29,79.00 C640.22,77.71 620.70,78.10 609.50,79.94 C594.82,82.36 582.68,83.10 557.00,83.13 C525.09,83.18 523.13,82.99 508.50,78.45 C502.45,76.57 493.47,73.83 488.54,72.36 C480.11,69.85 456.44,60.08 440.25,52.43 C405.88,36.18 404.69,35.79 399.54,38.97 C395.47,41.49 384.23,56.14 378.80,66.00 C372.57,77.32 367.24,92.51 364.07,108.00 C363.45,111.03 362.48,115.53 361.91,118.00 C361.31,120.60 361.14,126.54 361.50,132.05 C362.13,141.52 362.11,141.60 359.60,142.95 C356.59,144.56 354.00,143.07 354.00,139.71 C354.00,137.37 350.94,130.00 349.97,130.00 C348.91,130.00 343.75,148.57 342.46,157.00 C342.09,159.48 341.12,163.07 340.31,165.00 C337.42,171.92 329.95,204.89 327.37,222.12 C326.51,227.83 325.33,246.23 324.74,263.00 C323.57,296.29 324.24,307.21 328.06,317.44 C331.62,326.95 336.94,327.46 341.75,318.75 C348.31,306.86 349.32,305.36 352.83,302.29 C354.85,300.52 357.17,299.07 358.00,299.07 C359.03,299.07 358.76,299.69 357.11,301.06 C355.80,302.15 354.59,304.05 354.43,305.27 C354.26,306.50 353.83,309.75 353.45,312.50 C353.08,315.25 351.80,319.08 350.62,321.00 C349.43,322.92 347.81,325.78 347.01,327.35 C344.81,331.66 340.30,335.00 336.67,334.99 C330.84,334.98 325.71,330.15 321.61,320.80 C316.69,309.60 316.35,269.35 320.88,234.50 C323.21,216.58 327.31,193.22 328.59,190.60 C329.36,189.00 330.00,186.70 330.00,185.50 C330.00,183.50 334.38,165.52 336.95,157.01 C337.53,155.09 338.00,152.14 338.00,150.46 C338.00,148.78 338.37,146.97 338.83,146.45 C339.28,145.93 340.21,143.48 340.89,141.00 C344.50,127.82 345.58,125.42 349.60,121.50 C353.33,117.87 353.93,116.57 356.02,107.50 C361.03,85.71 367.83,68.25 378.06,50.90 C384.00,40.83 381.43,40.55 369.16,49.93 C364.17,53.74 357.48,58.64 354.28,60.81 C347.29,65.56 328.54,83.73 324.16,90.00 C307.51,113.86 304.91,118.48 295.84,140.50 C293.13,147.10 289.97,154.52 288.82,157.00 C287.68,159.48 286.16,163.07 285.45,165.00 C283.68,169.78 277.80,183.48 275.09,189.17 C270.85,198.04 257.53,208.87 241.59,216.41 C238.58,217.84 235.68,219.00 235.14,219.00 C234.03,219.00 217.74,225.24 211.00,228.25 C208.52,229.36 203.57,231.36 200.00,232.71 C189.53,236.65 175.44,242.97 161.50,249.97 C151.98,254.75 148.42,257.04 148.21,258.51 C148.05,259.67 150.50,264.29 154.07,269.51 C161.88,280.95 166.39,289.76 166.16,293.17 C166.06,294.64 166.59,296.45 167.33,297.19 C168.89,298.74 174.55,320.08 176.17,330.49 C176.77,334.35 177.35,347.17 177.46,359.00 C177.68,382.92 177.16,386.43 171.32,400.80 C166.33,413.06 166.19,413.75 167.22,421.00 C168.77,431.93 168.73,463.25 167.16,464.91 C166.43,465.68 166.04,467.42 166.30,468.77 C166.90,471.91 163.73,479.88 154.82,497.69 L 147.73 511.89 L 149.11 518.19 C150.13,522.89 151.41,525.52 154.12,528.50 C158.78,533.64 162.48,541.05 163.84,548.00 C166.39,561.04 166.95,565.96 166.73,573.41 C166.57,579.02 166.86,581.45 167.75,581.75 C168.44,581.98 169.00,583.18 169.00,584.41 C169.00,587.84 173.88,599.18 176.59,602.05 C179.52,605.16 187.32,609.48 191.76,610.45 C195.72,611.32 201.61,608.73 207.83,603.42 C211.90,599.93 212.00,599.69 212.00,593.61 C212.00,584.65 206.23,572.11 201.53,570.85 C196.38,569.47 191.00,573.14 191.00,578.04 C191.00,581.98 193.82,583.35 200.17,582.48 C204.98,581.82 205.15,581.88 204.83,584.09 C204.64,585.42 203.13,587.20 201.27,588.28 C197.33,590.58 193.26,589.93 188.98,586.33 C186.49,584.24 186.00,583.08 186.00,579.35 C186.00,573.68 187.10,571.66 192.20,567.97 C197.18,564.36 201.44,564.15 206.10,567.28 C210.18,570.02 216.24,579.68 215.45,582.17 C214.78,584.28 216.34,587.53 219.81,591.25 C221.76,593.34 223.31,594.00 226.27,594.00 C231.60,594.00 230.68,595.91 224.32,598.07 C220.61,599.33 217.52,601.54 212.79,606.32 C207.47,611.69 205.31,613.15 200.61,614.51 C195.75,615.92 194.11,615.99 189.70,614.95 C177.76,612.14 166.50,603.26 164.34,594.96 C162.64,588.44 161.19,577.81 160.52,567.00 C159.58,551.88 156.75,540.37 152.78,535.55 C148.17,529.96 139.00,530.40 139.00,536.23 C139.00,537.28 138.41,538.74 137.68,539.46 C135.87,541.28 136.09,588.82 137.92,589.95 C138.64,590.39 138.86,591.69 138.49,593.20 C138.07,594.85 138.40,596.25 139.43,597.28 C140.29,598.15 141.00,599.51 141.00,600.31 C141.00,602.85 146.01,615.26 149.73,621.94 C157.10,635.19 166.79,642.85 186.50,651.04 C187.60,651.49 190.30,652.41 192.50,653.07 C194.70,653.72 198.29,654.99 200.47,655.88 C206.12,658.18 230.30,658.06 237.93,655.69 C240.92,654.76 244.75,654.00 246.45,654.00 C250.34,654.00 262.77,649.26 270.00,645.01 C284.22,636.67 302.00,618.96 302.00,613.14 C302.00,609.41 295.95,604.48 287.28,601.15 C282.76,599.42 278.34,598.00 277.46,598.00 C276.58,598.00 275.18,597.33 274.36,596.50 C273.53,595.67 271.73,595.00 270.35,595.00 C268.77,595.00 268.00,594.54 268.27,593.75 C268.52,593.06 269.57,592.63 270.61,592.79 C271.65,592.95 275.42,593.47 279.00,593.94 C282.58,594.42 288.65,596.03 292.50,597.52 C296.35,599.01 300.81,600.46 302.41,600.75 C306.44,601.48 314.00,609.19 314.00,612.57 C314.00,620.54 289.97,643.92 272.06,653.36 C254.67,662.53 247.10,664.08 219.62,664.09 C198.25,664.10 193.78,663.48 181.82,658.88 C159.55,650.30 146.03,637.94 138.23,619.00 C137.67,617.62 136.44,614.76 135.50,612.63 C131.83,604.30 129.39,594.43 127.96,582.12 C126.32,567.99 127.25,544.81 129.85,535.00 C132.21,526.10 134.97,517.91 136.10,516.45 C136.54,515.88 138.90,510.70 141.34,504.95 C143.78,499.20 148.03,489.75 150.78,483.94 C157.86,468.99 160.48,457.53 159.63,445.14 C158.82,433.36 158.14,430.00 156.54,430.00 C155.86,430.00 152.30,433.57 148.62,437.93 C133.20,456.21 116.38,469.21 92.39,481.42 C78.20,488.63 61.57,495.00 56.90,495.00 C50.15,495.00 43.53,501.37 40.85,510.43 C39.34,515.54 35.97,530.98 34.39,540.00 C33.57,544.67 31.55,556.15 29.90,565.50 C20.30,619.89 17.15,649.56 17.10,686.28 C17.08,693.87 16.81,700.50 16.48,701.03 ZM 47.13 488.43 C49.03,490.86 49.67,491.06 53.38,490.44 C58.42,489.59 70.24,485.90 75.57,483.50 C103.96,470.73 117.06,462.01 135.56,443.54 C149.61,429.52 156.97,418.57 166.45,397.58 C170.24,389.18 171.32,384.53 173.16,368.50 C173.43,366.16 173.64,364.35 173.73,362.53 C174.08,356.29 173.14,349.98 168.99,322.01 L 168.99 322.00 C167.97,315.12 159.92,291.60 156.22,284.68 C151.46,275.78 144.88,266.00 142.96,264.98 C136.94,261.76 124.71,267.20 105.00,281.87 C82.20,298.84 65.48,321.08 59.80,342.00 C54.91,360.01 50.28,400.62 48.01,445.50 C47.40,457.60 46.47,470.51 45.95,474.19 C44.60,483.72 44.74,485.39 47.13,488.43 ZM 473.50 670.38 C478.33,671.32 490.92,670.86 495.50,669.56 C502.50,667.58 516.10,660.74 523.44,655.51 C532.54,649.01 539.32,641.31 543.78,632.40 C549.71,620.57 551.28,613.03 551.40,596.00 C551.40,595.58 551.40,595.18 551.41,594.79 C551.45,588.25 551.48,584.65 550.78,581.19 C549.88,576.72 547.78,572.49 542.97,562.50 C527.31,530.01 525.00,524.86 525.00,522.47 C525.00,519.10 522.32,514.00 520.56,514.00 C519.21,514.00 508.67,527.01 506.06,531.90 C504.10,535.55 501.15,546.58 500.43,552.89 C499.98,556.92 500.41,561.47 501.96,568.83 C506.15,588.70 508.83,593.17 517.75,595.10 C529.42,597.64 537.99,607.12 537.98,617.50 C537.97,625.07 531.84,635.61 524.81,640.12 C520.20,643.08 518.58,643.54 511.76,643.86 C506.07,644.12 503.05,643.78 500.58,642.61 C498.72,641.72 496.71,641.00 496.12,641.00 C493.38,641.00 480.85,627.44 476.40,619.67 C470.62,609.56 462.85,598.89 458.76,595.45 C457.07,594.03 451.77,590.90 447.00,588.50 C439.15,584.56 437.29,584.05 427.32,583.12 C414.06,581.88 403.08,582.64 397.03,585.21 C391.51,587.56 384.40,593.29 381.89,597.41 C378.78,602.51 379.46,605.67 385.76,615.21 C395.35,629.76 403.21,637.77 419.25,649.39 C424.70,653.33 447.78,665.00 450.13,665.00 C451.17,665.00 452.81,665.41 453.76,665.91 C455.24,666.69 458.85,667.50 473.50,670.38 ZM 367.89 295.61 C365.12,297.14 362.00,297.40 362.00,296.10 C362.00,294.88 367.97,292.86 369.25,293.65 C369.82,294.01 369.22,294.87 367.89,295.61 Z" fill="rgb(51,112,161)"/>
<path d="M 424.16 292.45 C414.03,291.98 403.47,292.13 393.51,292.97 C368.35,295.08 355.91,300.71 353.64,311.12 C353.96,308.74 354.29,306.30 354.43,305.27 C354.59,304.05 355.80,302.15 357.11,301.06 C358.76,299.69 359.03,299.07 358.00,299.07 C357.17,299.07 354.85,300.52 352.83,302.29 C349.32,305.36 348.31,306.86 341.75,318.75 C341.48,319.24 341.20,319.70 340.93,320.14 C340.97,320.06 341.00,319.99 341.04,319.92 C342.12,317.81 343.00,315.63 343.00,315.08 C343.00,314.54 344.47,311.60 346.26,308.55 C350.47,301.41 359.00,294.95 367.86,292.21 C390.58,285.17 411.01,284.46 444.27,289.55 C447.68,290.07 450.23,290.42 452.13,290.60 C449.95,290.43 446.93,290.06 442.79,289.49 C425.39,287.09 391.37,286.79 389.98,289.03 C389.47,289.84 389.39,290.60 389.78,290.72 C390.18,290.84 401.08,291.38 414.00,291.92 C417.56,292.07 420.95,292.24 424.16,292.45 ZM 214.80 578.94 C215.18,579.69 215.57,580.48 215.99,581.33 C221.80,593.09 223.17,593.94 233.18,592.04 C251.76,588.52 270.33,589.86 287.99,596.01 C284.81,595.07 281.36,594.26 279.00,593.94 C275.42,593.47 271.65,592.95 270.61,592.79 C269.57,592.63 268.52,593.06 268.27,593.75 C268.00,594.54 268.77,595.00 270.35,595.00 C271.73,595.00 273.53,595.67 274.36,596.50 C274.67,596.81 275.05,597.10 275.46,597.33 C265.07,594.85 249.55,594.46 238.92,596.50 C234.29,597.38 229.15,598.36 227.50,598.68 C225.85,598.99 224.05,599.58 223.50,599.99 C222.95,600.39 221.29,601.01 219.81,601.37 C218.33,601.72 214.68,604.45 211.69,607.44 C211.14,607.99 210.58,608.52 210.02,609.02 C210.85,608.25 211.76,607.36 212.79,606.32 C217.52,601.54 220.61,599.33 224.32,598.07 C230.68,595.91 231.60,594.00 226.27,594.00 C223.31,594.00 221.76,593.34 219.81,591.25 C216.34,587.53 214.78,584.28 215.45,582.17 C215.66,581.51 215.38,580.34 214.80,578.94 ZM 592.91 82.03 C587.53,82.61 581.15,83.55 578.50,84.17 C570.32,86.07 538.81,85.77 530.69,83.72 C526.94,82.77 522.89,82.01 521.69,82.02 C520.48,82.03 514.55,80.46 508.50,78.54 C502.45,76.61 493.47,73.83 488.54,72.36 C493.47,73.83 502.45,76.57 508.50,78.45 C523.13,82.99 525.09,83.18 557.00,83.13 C572.88,83.11 583.58,82.82 592.91,82.03 ZM 510.36 600.51 C509.11,601.08 507.72,602.08 506.40,603.40 C503.37,606.43 503.00,607.39 503.00,612.24 C503.00,620.54 507.29,623.52 512.00,618.50 C515.49,614.78 520.00,615.69 520.00,620.12 C520.00,622.41 515.47,627.71 511.96,629.52 C510.25,630.41 509.34,630.67 507.94,630.31 C509.41,630.62 510.23,629.86 512.91,627.23 C514.99,625.18 516.96,622.75 517.29,621.83 C518.12,619.46 515.19,618.64 512.39,620.48 C503.93,626.02 496.98,616.16 502.19,606.00 C504.32,601.85 504.89,601.43 509.51,600.65 C509.81,600.60 510.09,600.55 510.36,600.51 ZM 177.46 359.00 C177.35,347.96 176.84,336.06 176.29,331.38 C176.85,334.75 177.73,339.32 178.43,342.50 C179.28,346.41 179.97,354.36 179.98,360.50 C180.00,369.85 178.52,379.27 175.46,389.26 C177.42,382.06 177.61,375.22 177.46,359.00 ZM 554.41 566.58 C557.24,572.73 558.00,574.61 558.00,575.13 C558.00,575.65 558.62,577.07 559.39,578.29 C561.55,581.75 563.35,596.32 562.67,604.86 C562.37,608.53 561.14,613.95 559.47,619.57 C560.24,615.87 560.35,611.63 560.48,601.50 C560.60,591.78 560.30,584.24 559.76,583.89 C559.25,583.55 558.63,581.22 558.40,578.70 C558.19,576.45 556.48,571.31 554.41,566.58 ZM 141.40 532.29 C139.64,533.72 138.94,537.42 138.12,545.50 C135.01,575.91 139.19,603.23 149.79,621.93 C152.67,627.00 155.72,631.17 159.43,634.84 C155.60,631.11 152.50,626.92 149.73,621.94 C146.01,615.26 141.00,602.85 141.00,600.31 C141.00,599.51 140.29,598.15 139.43,597.28 C138.40,596.25 138.07,594.85 138.49,593.20 C138.86,591.69 138.64,590.39 137.92,589.95 C136.09,588.82 135.87,541.28 137.68,539.46 C138.41,538.74 139.00,537.28 139.00,536.23 C139.00,534.35 139.96,533.03 141.40,532.29 ZM 167.68 425.32 C168.12,428.32 168.71,432.00 169.44,436.68 C170.73,444.99 170.83,448.68 169.96,456.68 C169.02,465.36 167.24,471.55 161.18,484.54 C165.25,475.66 166.72,471.00 166.30,468.77 C166.04,467.42 166.43,465.68 167.16,464.91 C168.56,463.44 168.75,438.51 167.68,425.32 ZM 166.68 397.06 C168.93,391.69 170.48,386.87 171.10,383.10 C172.49,374.63 172.46,350.79 171.25,337.30 C173.49,352.70 174.00,357.64 173.73,362.53 C173.64,364.35 173.43,366.16 173.16,368.50 C171.35,384.19 170.29,388.98 166.68,397.06 ZM 249.51 662.18 C240.77,664.36 231.41,665.29 220.07,665.26 C209.77,665.24 201.69,664.48 194.00,662.67 C199.96,663.87 206.70,664.09 219.62,664.09 C233.29,664.08 242.04,663.70 249.51,662.18 ZM 681.84 75.31 C682.77,76.59 683.79,78.47 685.21,81.33 C686.32,83.57 685.38,88.30 682.90,93.00 C682.30,94.13 681.07,96.63 679.66,99.58 C682.36,93.14 682.66,91.29 682.54,83.75 C682.49,80.31 682.21,77.08 681.84,75.31 ZM 523.62 318.53 C518.15,316.90 516.22,316.97 506.71,317.73 C499.58,318.31 496.75,318.59 494.22,319.69 C494.99,319.29 495.69,318.97 496.30,318.77 C498.06,318.16 499.79,317.24 500.14,316.70 C501.07,315.31 516.00,314.58 516.00,315.93 C516.00,316.52 516.72,317.00 517.61,317.00 C518.44,317.00 520.68,317.59 523.62,318.53 ZM 649.37 487.18 C648.66,484.61 646.77,477.77 645.17,472.00 C646.77,477.77 648.70,484.52 649.47,487.00 C651.80,494.54 652.82,498.95 655.48,513.00 C659.72,535.39 660.10,537.27 661.69,543.50 C662.53,546.80 663.41,551.53 663.64,554.00 C663.77,555.43 664.10,558.79 664.50,562.87 C663.72,557.02 662.89,552.97 662.15,552.41 C661.18,551.67 660.92,550.44 661.37,548.66 C661.73,547.21 661.61,544.10 661.10,541.76 C660.59,539.42 659.69,535.03 659.11,532.00 C654.96,510.47 652.58,500.43 651.30,499.16 C650.42,498.27 649.99,496.51 650.25,494.77 C650.48,493.18 650.09,489.76 649.37,487.18 ZM 503.22 674.66 C499.63,675.85 496.04,676.84 492.57,677.57 C484.93,679.20 473.09,678.63 461.43,676.58 C468.21,677.51 475.42,677.81 482.97,677.46 C491.63,677.06 497.41,676.37 503.22,674.66 ZM 361.39 141.56 C361.19,145.40 360.68,145.62 359.31,145.81 C356.18,146.26 353.32,142.90 352.53,137.86 C352.08,134.97 351.66,132.89 351.24,131.60 C352.48,133.91 354.00,138.06 354.00,139.71 C354.00,143.07 356.59,144.56 359.60,142.95 C360.47,142.48 361.04,142.17 361.39,141.56 ZM 164.35 550.65 C164.89,553.27 165.39,556.19 165.90,559.50 C166.49,563.35 167.42,569.46 167.98,573.08 C168.54,576.70 169.00,581.24 169.00,583.16 C169.00,585.54 170.26,589.78 171.90,593.74 C170.29,590.02 169.00,586.17 169.00,584.41 C169.00,583.18 168.44,581.98 167.75,581.75 C166.86,581.45 166.57,579.02 166.73,573.41 C166.93,566.48 166.46,561.75 164.35,550.65 ZM 320.41 317.17 C317.62,307.73 316.66,294.68 317.43,277.70 C318.32,258.04 319.46,244.33 321.47,230.12 C321.26,231.60 321.06,233.07 320.88,234.50 C316.75,266.27 316.66,302.53 320.41,317.17 ZM 162.75 283.62 C166.53,290.28 169.00,295.64 169.00,297.51 C169.00,298.80 170.36,305.15 172.03,311.62 C172.39,313.03 172.76,314.51 173.12,316.00 C170.92,307.00 168.31,298.17 167.33,297.19 C166.59,296.45 166.06,294.64 166.16,293.17 C166.28,291.37 165.08,288.05 162.75,283.62 ZM 367.89 295.61 C369.22,294.87 369.82,294.01 369.25,293.65 C367.97,292.86 362.00,294.88 362.00,296.10 C362.00,297.40 365.12,297.14 367.89,295.61 ZM 325.92 202.42 C326.14,201.01 326.35,199.68 326.54,198.50 C327.40,193.00 329.15,184.90 330.44,180.50 C331.49,176.90 332.43,173.62 333.26,170.67 C331.50,177.68 330.00,184.32 330.00,185.50 C330.00,186.70 329.36,189.00 328.59,190.60 C328.06,191.67 327.07,196.21 325.92,202.42 ZM 523.83 73.78 C524.74,73.91 525.63,74.03 526.50,74.13 C532.96,74.87 541.56,75.28 550.73,75.40 C530.69,75.44 524.56,75.15 524.25,74.25 C524.20,74.08 524.05,73.92 523.83,73.78 ZM 566.74 75.31 C579.27,75.02 591.17,74.21 598.52,72.96 C607.10,71.49 611.19,71.02 624.27,71.06 C611.12,71.20 605.88,71.69 597.66,73.14 C588.93,74.67 583.43,75.14 566.74,75.31 ZM 496.91 67.33 C504.79,69.80 512.38,71.75 519.10,73.00 C515.79,72.97 506.96,70.61 496.91,67.33 ZM 666.55 584.06 C667.69,597.87 667.88,607.40 667.23,615.50 C666.65,622.65 666.46,624.13 665.11,624.43 C666.47,624.12 666.65,622.53 667.26,614.50 C667.76,607.85 667.37,595.79 666.55,584.06 ZM 219.57 657.53 C227.26,657.18 235.66,656.39 238.41,655.53 C241.11,654.69 244.72,654.00 246.43,654.00 C244.72,654.01 240.91,654.76 237.93,655.69 C234.30,656.82 226.92,657.44 219.57,657.53 ZM 560.18 335.17 C554.21,331.31 546.97,327.49 539.44,324.26 C542.32,325.42 544.93,326.54 546.84,327.48 C551.32,329.66 556.00,332.39 560.18,335.17 ZM 361.94 117.87 C361.62,120.89 361.51,124.93 361.51,131.00 C361.51,131.38 361.51,131.75 361.51,132.12 L 361.50 132.05 C361.14,126.54 361.31,120.60 361.91,118.00 ZM 116.36 460.62 C127.28,452.11 139.62,440.04 147.43,430.41 C143.98,434.76 140.12,438.99 135.56,443.54 C128.77,450.32 122.71,455.78 116.36,460.62 ZM 190.82 615.20 C187.43,614.65 183.81,613.38 179.87,611.41 C177.53,610.23 175.16,608.59 173.00,606.73 C177.63,610.47 183.57,613.51 189.70,614.95 C190.09,615.04 190.46,615.13 190.82,615.20 ZM 206.10 567.28 C202.61,564.93 199.34,564.47 195.82,565.90 C198.88,564.65 201.77,564.83 204.80,566.40 C207.84,567.97 209.80,569.92 212.56,574.75 C210.64,571.71 208.13,568.64 206.10,567.28 ZM 537.17 656.09 C535.46,657.63 533.76,659.04 532.14,660.25 C526.71,664.28 519.71,668.12 512.27,671.26 C514.08,670.45 516.01,669.55 518.10,668.51 C525.76,664.75 531.65,660.94 537.17,656.09 ZM 328.80 319.24 C328.55,318.68 328.30,318.08 328.06,317.44 C326.47,313.19 325.43,308.82 324.84,302.78 C325.64,309.12 327.16,315.19 328.80,319.24 ZM 156.86 544.07 C154.62,537.20 151.44,533.21 147.28,531.98 C149.28,532.54 151.27,533.72 152.78,535.55 C154.33,537.43 155.71,540.33 156.86,544.07 ZM 365.00 103.72 C365.00,103.82 365.00,103.92 365.00,104.01 C365.00,105.57 364.26,108.87 363.34,111.47 C363.61,110.23 363.86,109.03 364.07,108.00 C364.36,106.57 364.68,105.14 365.00,103.72 ZM 479.82 330.71 C475.15,335.83 472.05,341.93 468.72,351.50 C472.22,341.44 475.01,336.00 478.84,331.75 C479.15,331.41 479.48,331.06 479.82,330.71 ZM 161.85 249.79 C155.08,253.29 150.03,256.25 148.57,257.74 C149.69,256.25 153.48,254.00 161.50,249.97 C161.62,249.91 161.73,249.85 161.85,249.79 ZM 324.48 297.95 C324.11,291.10 324.15,282.27 324.51,269.98 C324.24,281.11 324.19,291.45 324.48,297.95 ZM 161.61 540.65 C159.77,536.14 157.15,531.84 154.12,528.50 C157.47,532.20 159.79,535.79 161.61,540.65 ZM 328.98 331.84 C326.07,329.37 323.70,325.91 321.88,321.41 C324.00,326.08 326.38,329.57 328.98,331.84 ZM 673.39 72.19 C676.10,72.35 677.86,72.51 678.33,72.66 C678.78,72.80 679.18,72.96 679.57,73.17 C678.19,72.80 676.12,72.47 673.39,72.19 ZM 296.24 635.71 C306.23,626.61 314.00,617.10 314.00,612.57 C314.00,617.19 306.29,626.62 296.24,635.71 ZM 336.45 158.70 C337.49,154.45 338.00,151.70 338.00,150.40 C338.00,148.75 338.37,146.97 338.83,146.45 C338.37,146.97 338.00,148.78 338.00,150.46 C338.00,152.14 337.53,155.09 336.95,157.01 C336.79,157.54 336.62,158.10 336.45,158.70 ZM 152.49 423.51 C155.25,419.25 157.83,414.90 160.14,410.63 C157.64,415.37 155.16,419.57 152.49,423.51 ZM 554.49 633.50 C553.47,635.87 552.46,637.97 551.49,639.62 C550.77,640.86 549.82,642.24 548.72,643.69 C550.94,640.63 552.73,637.46 554.49,633.50 ZM 156.22 284.68 C157.98,287.96 160.72,294.99 163.22,302.20 C160.59,294.85 157.70,287.46 156.22,284.68 ZM 346.68 139.00 C344.84,145.72 342.99,153.52 342.46,157.00 C343.16,152.45 344.98,144.94 346.68,139.00 ZM 293.59 625.81 C287.14,632.66 278.01,640.32 270.00,645.01 C277.82,640.43 287.06,632.67 293.59,625.81 ZM 202.55 656.47 C201.71,656.30 201.01,656.10 200.47,655.88 C198.29,654.99 194.70,653.72 192.50,653.07 C194.70,653.72 198.07,654.86 200.00,655.59 C200.77,655.89 201.67,656.19 202.55,656.47 ZM 167.54 410.73 C167.35,411.41 167.20,412.07 167.09,412.73 C166.80,414.40 166.73,416.11 166.86,418.26 C166.56,415.50 166.65,413.66 167.54,410.73 ZM 532.17 618.27 C532.42,615.80 532.03,613.74 530.96,611.70 C531.64,612.92 532.09,614.16 532.27,615.36 C532.38,616.07 532.34,617.09 532.17,618.27 ZM 525.77 605.90 C522.82,603.73 518.85,601.66 515.69,600.65 C516.92,601.00 518.33,601.60 520.30,602.53 C522.32,603.49 524.16,604.63 525.77,605.90 ZM 202.97 613.73 C201.18,614.53 199.36,615.06 197.47,615.32 C198.38,615.13 199.39,614.87 200.61,614.51 C201.47,614.26 202.24,614.01 202.97,613.73 ZM 341.02 333.68 C343.40,332.32 345.65,330.02 347.01,327.35 C345.51,330.28 343.39,332.44 341.02,333.68 ZM 367.41 94.45 C370.47,83.88 374.41,73.98 378.80,66.00 C374.91,73.08 371.07,82.37 368.49,91.00 C368.15,92.13 367.78,93.33 367.41,94.45 ZM 661.67 130.25 C656.77,136.08 651.18,141.12 644.50,145.88 C651.08,141.19 656.71,136.11 661.67,130.25 ZM 296.88 599.11 C299.47,599.96 301.55,600.58 302.41,600.74 C303.96,601.02 306.03,602.34 308.00,604.04 C306.03,602.34 303.96,601.03 302.41,600.75 C301.41,600.57 299.28,599.93 296.88,599.11 ZM 300.96 610.22 C301.64,611.24 302.00,612.22 302.00,613.14 C301.96,612.27 301.60,611.24 300.96,610.22 ZM 435.38 668.89 C434.73,668.58 434.10,668.26 433.50,667.94 C431.52,666.88 429.63,665.85 427.81,664.84 C429.63,665.84 431.52,666.87 433.50,667.92 C434.12,668.25 434.75,668.58 435.38,668.89 ZM 148.55 259.98 C149.04,261.18 149.94,262.91 151.13,264.93 C149.92,262.91 149.02,261.17 148.55,259.98 ZM 288.18 601.51 C290.01,602.25 291.71,603.06 293.26,603.92 C291.74,603.09 290.04,602.29 288.18,601.51 ZM 333.24 334.40 C332.42,334.13 331.62,333.74 330.85,333.24 C331.63,333.73 332.42,334.12 333.24,334.40 ZM 550.45 558.08 C548.44,553.80 546.23,549.10 544.62,545.69 C546.93,550.58 548.85,554.67 550.45,558.08 ZM 468.52 56.60 C465.76,55.36 460.80,53.30 457.50,52.01 C460.80,53.30 465.75,55.35 468.50,56.59 C469.02,56.82 469.55,57.05 470.08,57.29 C469.55,57.06 469.03,56.82 468.52,56.60 ZM 350.03 130.01 C349.93,130.04 349.83,130.11 349.72,130.21 C349.82,130.07 349.90,130.00 349.97,130.00 C349.99,130.00 350.01,130.00 350.03,130.01 ZM 334.36 324.92 C334.09,324.89 333.81,324.83 333.55,324.73 C333.82,324.82 334.09,324.88 334.36,324.92 ZM 609.13 80.00 C609.25,79.98 609.37,79.96 609.50,79.94 C610.29,79.81 611.12,79.69 611.98,79.58 C611.12,79.69 610.29,79.81 609.50,79.94 C609.38,79.96 609.26,79.98 609.13,80.00 Z" fill="rgb(111,150,184)"/>
<path d="M 0.00 355.00 L 0.00 0.00 L 345.00 0.00 L 690.00 0.00 L 690.00 355.00 L 690.00 710.00 L 345.00 710.00 L 0.00 710.00 L 0.00 355.00 ZM 16.48 701.03 C16.81,700.50 17.08,693.87 17.10,686.28 C17.15,649.56 20.30,619.89 29.90,565.50 C31.55,556.15 33.57,544.67 34.39,540.00 C35.97,530.98 39.34,515.54 40.85,510.43 C43.53,501.37 50.15,495.00 56.90,495.00 C61.57,495.00 78.20,488.63 92.39,481.42 C116.38,469.21 133.20,456.21 148.62,437.93 C152.30,433.57 155.86,430.00 156.54,430.00 C158.14,430.00 158.82,433.36 159.63,445.14 C160.48,457.53 157.86,468.99 150.78,483.94 C148.03,489.75 143.78,499.20 141.34,504.95 C138.90,510.70 136.54,515.88 136.10,516.45 C134.97,517.91 132.21,526.10 129.85,535.00 C127.25,544.81 126.32,567.99 127.96,582.12 C129.39,594.43 131.83,604.30 135.50,612.63 C136.44,614.76 137.67,617.62 138.23,619.00 C146.03,637.93 159.55,650.30 181.79,658.87 C193.74,663.46 204.29,665.23 220.07,665.26 C240.99,665.31 255.17,662.12 271.19,653.78 C289.73,644.13 314.00,620.76 314.00,612.57 C314.00,609.20 306.44,601.48 302.41,600.74 C300.81,600.44 295.02,598.56 289.55,596.56 C271.42,589.95 252.31,588.41 233.18,592.04 C223.17,593.94 221.80,593.09 215.99,581.33 C211.09,571.40 208.95,568.54 204.80,566.40 C200.61,564.23 196.69,564.72 192.20,567.97 C187.10,571.66 186.00,573.68 186.00,579.35 C186.00,583.08 186.49,584.24 188.98,586.33 C193.26,589.93 197.33,590.58 201.27,588.28 C203.13,587.20 204.64,585.42 204.83,584.09 C205.15,581.88 204.98,581.82 200.17,582.48 C193.82,583.35 191.00,581.98 191.00,578.04 C191.00,573.14 196.38,569.47 201.53,570.85 C206.23,572.11 212.00,584.65 212.00,593.61 C212.00,599.69 211.90,599.93 207.83,603.42 C201.61,608.73 195.72,611.32 191.76,610.45 C187.32,609.48 179.52,605.16 176.59,602.05 C173.46,598.74 169.00,587.63 169.00,583.16 C169.00,581.24 168.54,576.70 167.98,573.08 C167.42,569.46 166.49,563.35 165.90,559.50 C163.32,542.64 160.71,535.77 154.12,528.50 C151.41,525.52 150.13,522.89 149.11,518.19 L 147.73 511.89 L 154.80 497.69 C166.14,474.91 168.75,467.87 169.96,456.68 C170.83,448.68 170.73,444.99 169.44,436.68 C165.70,412.68 165.58,414.91 171.39,400.63 C177.22,386.28 180.00,373.32 179.98,360.50 C179.97,354.36 179.28,346.41 178.43,342.50 C177.58,338.65 176.48,332.77 175.97,329.43 C175.47,326.10 173.70,318.08 172.03,311.62 C170.36,305.15 169.00,298.80 169.00,297.51 C169.00,294.44 162.35,281.99 154.24,269.87 C150.56,264.36 147.95,259.45 148.15,258.37 C148.65,255.67 179.25,240.52 200.00,232.71 C203.57,231.36 208.52,229.36 211.00,228.25 C217.74,225.24 234.03,219.00 235.14,219.00 C235.68,219.00 238.58,217.84 241.59,216.41 C257.53,208.87 270.85,198.04 275.09,189.17 C277.80,183.48 283.68,169.78 285.45,165.00 C286.16,163.07 287.68,159.48 288.82,157.00 C289.97,154.52 293.13,147.10 295.84,140.50 C304.91,118.48 307.51,113.86 324.16,90.00 C328.54,83.73 347.29,65.56 354.28,60.81 C357.48,58.64 364.17,53.74 369.16,49.93 C381.43,40.55 384.00,40.83 378.06,50.90 C367.83,68.25 361.03,85.71 356.02,107.50 C353.93,116.57 353.33,117.87 349.60,121.50 C345.58,125.42 344.50,127.82 340.89,141.00 C340.21,143.48 339.28,145.93 338.83,146.45 C338.37,146.97 338.00,148.75 338.00,150.40 C338.00,153.26 335.54,163.05 330.44,180.50 C329.15,184.90 327.40,193.00 326.54,198.50 C325.68,204.00 324.25,212.77 323.36,218.00 C320.10,237.17 318.57,252.57 317.43,277.70 C316.03,308.45 320.34,326.31 330.82,333.22 C336.38,336.89 343.45,334.32 347.01,327.35 C347.81,325.78 349.43,322.92 350.62,321.00 C351.80,319.08 353.05,315.27 353.40,312.55 C354.82,301.23 367.22,295.17 393.51,292.97 C417.71,290.93 445.49,292.97 462.00,297.98 C463.97,298.57 468.34,298.77 472.00,298.43 C478.28,297.84 478.82,297.98 487.75,302.47 C492.84,305.02 497.00,307.69 497.00,308.40 C497.00,310.14 494.51,312.17 488.39,315.44 C473.73,323.27 464.80,336.92 460.47,358.13 C457.24,373.98 460.86,396.98 470.20,420.00 C478.56,440.59 490.08,464.27 495.37,471.76 C497.21,474.37 501.72,481.32 505.39,487.21 C511.28,496.65 512.14,498.67 512.65,504.21 C513.20,510.25 513.08,510.72 509.47,516.00 C502.12,526.79 499.68,531.61 497.36,539.99 C493.99,552.13 494.18,561.58 498.10,576.57 C501.59,589.92 501.53,592.97 497.60,601.55 C494.86,607.55 494.14,615.62 495.94,620.34 C497.17,623.58 501.67,627.76 505.83,629.54 C508.72,630.78 509.53,630.77 511.96,629.52 C515.47,627.71 520.00,622.41 520.00,620.12 C520.00,615.69 515.49,614.78 512.00,618.50 C507.29,623.52 503.00,620.54 503.00,612.24 C503.00,607.39 503.37,606.43 506.40,603.40 C508.50,601.30 510.78,600.00 512.37,600.00 C516.44,600.00 525.81,604.94 528.94,608.75 C532.77,613.40 533.19,617.25 530.62,624.45 C528.68,629.91 528.00,630.71 522.51,633.95 C514.43,638.74 507.09,638.90 498.41,634.46 C492.78,631.58 492.05,630.73 480.86,613.98 C467.14,593.44 460.60,586.73 450.86,583.19 C447.36,581.92 443.72,580.46 442.76,579.94 C441.81,579.42 439.78,578.99 438.26,578.99 C436.74,578.98 433.06,578.33 430.07,577.53 C411.17,572.50 397.26,575.49 381.80,587.91 C375.26,593.17 373.80,594.92 372.05,599.58 C370.92,602.60 370.02,605.62 370.04,606.29 C370.06,606.95 371.52,609.80 373.29,612.61 C391.46,641.52 401.60,650.84 433.50,667.94 C448.16,675.80 478.02,680.67 492.57,677.57 C506.33,674.65 521.97,667.80 532.14,660.25 C539.22,654.99 547.95,645.68 551.49,639.62 C556.12,631.70 561.98,613.48 562.67,604.86 C563.35,596.32 561.55,581.75 559.39,578.29 C558.62,577.07 558.00,575.65 558.00,575.13 C558.00,574.24 555.77,569.32 544.62,545.69 C542.08,540.29 540.00,535.69 540.00,535.46 C540.00,535.24 538.68,532.16 537.06,528.62 C535.44,525.09 533.36,519.61 532.44,516.46 C531.52,513.26 529.49,509.34 527.86,507.61 C521.74,501.08 516.94,494.41 505.46,476.50 C497.43,463.97 484.88,437.61 479.98,423.00 C477.68,416.12 475.31,409.60 474.72,408.50 C474.13,407.40 473.30,404.92 472.87,403.00 C472.44,401.08 470.92,395.45 469.48,390.50 C465.92,378.24 465.57,360.53 468.72,351.50 C473.93,336.54 478.57,330.07 489.51,322.53 C494.92,318.81 495.56,318.63 506.71,317.73 C517.89,316.83 518.59,316.90 526.90,319.55 C545.19,325.39 565.01,336.52 572.29,345.03 C580.15,354.21 599.59,385.01 610.78,406.00 C619.23,421.85 622.67,428.63 623.25,430.57 C623.57,431.63 625.04,435.65 626.51,439.50 C628.94,445.87 630.01,449.38 633.18,461.50 C633.76,463.70 634.58,466.62 635.00,468.00 C635.86,470.81 636.45,473.11 641.02,491.50 C644.21,504.36 644.96,507.83 647.08,519.50 C648.54,527.51 649.69,533.46 650.96,539.50 C654.16,554.72 655.79,570.22 657.02,597.00 C657.90,616.19 658.32,619.87 659.88,622.00 C660.95,623.46 662.71,624.50 664.11,624.50 C666.40,624.50 666.53,624.12 667.23,615.50 C668.05,605.31 667.54,592.87 665.47,572.50 C664.69,564.80 663.86,556.47 663.64,554.00 C663.41,551.53 662.53,546.80 661.69,543.50 C660.10,537.27 659.72,535.39 655.48,513.00 C652.82,498.95 651.80,494.54 649.47,487.00 C648.70,484.52 646.77,477.77 645.17,472.00 C640.51,455.20 633.99,434.94 631.40,429.22 C630.08,426.32 629.00,423.73 629.00,423.47 C629.00,422.16 615.70,395.47 611.65,388.67 C609.09,384.36 607.00,380.66 607.00,380.45 C607.00,380.24 604.88,376.57 602.29,372.29 C590.81,353.30 578.40,338.41 567.03,329.95 C556.55,322.16 550.91,319.20 532.50,311.84 C527.00,309.64 521.15,307.25 519.50,306.54 C517.85,305.82 514.92,304.65 513.00,303.93 C511.08,303.21 506.24,301.13 502.25,299.31 C498.26,297.49 494.74,296.00 494.43,296.00 C493.04,296.00 454.54,277.26 448.50,273.64 C446.30,272.32 441.12,269.32 437.00,266.97 C428.75,262.27 416.59,253.52 413.57,250.12 C412.36,248.76 412.00,247.60 412.59,247.01 C413.11,246.49 418.70,245.79 425.02,245.46 C436.51,244.85 444.88,243.68 450.50,241.90 C463.27,237.84 473.11,234.55 482.79,231.08 C488.99,228.86 499.92,225.67 507.06,223.99 C529.48,218.71 567.02,204.96 579.63,197.39 C588.02,192.36 591.53,188.63 596.83,179.12 C602.05,169.75 606.81,165.09 613.79,162.49 C622.15,159.38 636.29,151.73 644.50,145.88 C658.89,135.63 668.22,124.05 676.57,106.12 C679.03,100.83 681.88,94.93 682.90,93.00 C685.38,88.30 686.32,83.57 685.21,81.33 C682.05,74.96 680.86,73.46 678.33,72.66 C676.77,72.17 661.04,71.54 643.37,71.27 C613.62,70.82 610.30,70.94 598.52,72.96 C582.60,75.68 545.37,76.29 526.50,74.13 C511.14,72.37 488.38,65.49 468.50,56.59 C465.75,55.35 460.80,53.30 457.50,52.01 C454.20,50.72 451.05,49.33 450.50,48.92 C449.95,48.51 447.02,47.19 444.00,46.00 C435.55,42.69 432.59,41.32 417.50,33.77 C398.74,24.39 394.19,21.83 382.78,14.23 C373.71,8.19 370.00,6.99 370.00,10.07 C370.00,10.69 371.65,12.84 373.67,14.85 C377.28,18.44 378.86,22.75 378.96,29.32 C379.01,32.84 375.15,36.44 360.90,46.15 C335.43,63.49 319.37,79.10 306.75,98.78 C305.24,101.14 304.00,103.32 304.00,103.63 C304.00,103.94 303.12,105.43 302.03,106.95 C299.87,109.99 289.09,134.33 279.85,157.00 C276.61,164.98 273.31,172.86 272.54,174.52 C271.76,176.17 270.64,178.81 270.05,180.37 C266.10,190.75 257.45,198.65 240.50,207.37 C231.69,211.90 225.34,214.58 194.00,227.02 C176.93,233.80 176.79,233.86 162.50,240.51 C157.00,243.08 150.70,245.90 148.50,246.79 C140.86,249.88 117.88,262.99 106.22,270.91 C80.38,288.48 61.99,310.58 54.13,333.50 C50.75,343.34 49.00,351.45 49.00,357.25 C49.00,360.25 48.60,364.01 48.12,365.60 C45.75,373.36 45.02,377.35 44.07,387.50 C41.72,412.72 40.89,422.90 38.95,450.00 C36.52,483.94 35.02,495.19 29.09,524.00 C27.55,531.48 26.14,540.04 24.97,549.00 C23.96,556.79 21.83,568.65 17.43,591.00 C12.03,618.37 10.10,633.84 9.11,657.50 C7.86,687.54 8.17,697.42 10.42,699.92 C12.41,702.11 15.47,702.67 16.48,701.03 ZM 473.50 670.38 C458.85,667.50 455.24,666.69 453.76,665.91 C452.81,665.41 451.17,665.00 450.13,665.00 C447.78,665.00 424.70,653.33 419.25,649.39 C403.21,637.77 395.35,629.76 385.76,615.21 C379.46,605.67 378.78,602.51 381.89,597.41 C384.40,593.29 391.51,587.56 397.03,585.21 C403.08,582.64 414.06,581.88 427.32,583.12 C437.29,584.05 439.15,584.56 447.00,588.50 C451.77,590.90 457.07,594.03 458.76,595.45 C462.85,598.89 470.62,609.56 476.40,619.67 C480.85,627.44 493.38,641.00 496.12,641.00 C496.71,641.00 498.72,641.72 500.58,642.61 C503.05,643.78 506.07,644.12 511.76,643.86 C518.58,643.54 520.20,643.08 524.81,640.12 C531.84,635.61 537.97,625.07 537.98,617.50 C537.99,607.12 529.42,597.64 517.75,595.10 C508.83,593.17 506.15,588.70 501.96,568.83 C500.41,561.47 499.98,556.92 500.43,552.89 C501.15,546.58 504.10,535.55 506.06,531.90 C508.67,527.01 519.21,514.00 520.56,514.00 C522.32,514.00 525.00,519.10 525.00,522.47 C525.00,524.86 527.31,530.01 542.97,562.50 C551.73,580.69 551.51,579.78 551.40,596.00 C551.28,613.03 549.71,620.57 543.78,632.40 C539.32,641.31 532.54,649.01 523.44,655.51 C516.10,660.74 502.50,667.58 495.50,669.56 C490.92,670.86 478.33,671.32 473.50,670.38 ZM 206.00 657.40 C204.62,657.14 201.93,656.33 200.00,655.59 C198.07,654.86 194.70,653.72 192.50,653.07 C190.30,652.41 187.60,651.49 186.50,651.04 C166.59,642.77 157.55,635.60 149.79,621.93 C139.19,603.23 135.01,575.91 138.12,545.50 C139.42,532.68 140.42,530.91 145.84,531.67 C154.34,532.86 159.12,544.35 160.52,567.00 C161.19,577.81 162.64,588.44 164.34,594.96 C165.73,600.32 172.91,607.92 179.87,611.41 C192.90,617.93 202.38,616.75 211.69,607.44 C214.68,604.45 218.33,601.72 219.81,601.37 C221.29,601.01 222.95,600.39 223.50,599.99 C224.05,599.58 225.85,598.99 227.50,598.68 C229.15,598.36 234.29,597.38 238.92,596.50 C250.14,594.35 266.80,594.90 277.14,597.77 C292.67,602.07 302.00,607.96 302.00,613.47 C302.00,618.98 283.79,636.93 270.00,645.01 C262.76,649.26 250.34,654.00 246.43,654.00 C244.72,654.00 241.11,654.69 238.41,655.53 C233.55,657.05 211.03,658.34 206.00,657.40 ZM 47.13 488.43 C44.74,485.39 44.60,483.72 45.95,474.19 C46.47,470.51 47.40,457.60 48.01,445.50 C50.28,400.62 54.91,360.01 59.80,342.00 C65.48,321.08 82.20,298.84 105.00,281.87 C124.71,267.20 136.94,261.76 142.96,264.98 C144.88,266.00 151.46,275.78 156.22,284.68 C159.21,290.26 167.88,314.58 168.63,319.50 C168.89,321.15 169.78,326.77 170.62,332.00 C172.42,343.25 172.71,373.35 171.10,383.10 C169.52,392.69 161.98,408.98 152.17,424.00 C145.21,434.66 128.04,451.94 114.03,462.39 C104.79,469.28 93.90,475.26 75.57,483.50 C70.24,485.90 58.42,489.59 53.38,490.44 C49.67,491.06 49.03,490.86 47.13,488.43 ZM 331.82 323.96 C329.25,322.46 326.11,312.90 324.82,302.68 C323.37,291.12 325.06,237.49 327.37,222.12 C329.95,204.89 337.42,171.92 340.31,165.00 C341.12,163.07 342.09,159.48 342.46,157.00 C343.14,152.55 345.98,141.03 348.18,133.75 C350.00,127.75 351.12,128.81 352.53,137.86 C353.32,142.90 356.18,146.26 359.31,145.81 C361.45,145.51 361.50,145.15 361.51,131.00 C361.51,119.72 361.90,115.44 363.26,111.72 C364.22,109.08 365.00,105.62 365.00,104.01 C365.00,102.41 365.41,100.06 365.92,98.80 C366.43,97.53 367.58,94.03 368.49,91.00 C371.07,82.37 374.91,73.08 378.80,66.00 C384.23,56.14 395.47,41.49 399.54,38.97 C404.69,35.79 405.88,36.18 440.25,52.43 C456.44,60.08 480.11,69.85 488.54,72.36 C493.47,73.83 502.45,76.61 508.50,78.54 C514.55,80.46 520.48,82.03 521.69,82.02 C522.89,82.01 526.94,82.77 530.69,83.72 C538.81,85.77 570.32,86.07 578.50,84.17 C581.25,83.53 588.00,82.54 593.50,81.97 C599.00,81.40 606.20,80.49 609.50,79.94 C620.70,78.10 640.22,77.71 656.29,79.00 C669.66,80.08 672.22,80.55 673.04,82.07 C674.51,84.81 674.20,88.45 671.92,95.52 C667.35,109.67 660.75,120.22 650.30,130.08 C642.33,137.59 633.92,142.91 615.57,152.03 C600.98,159.28 594.96,164.40 590.78,173.12 C585.31,184.55 579.95,188.63 558.73,197.55 C552.55,200.14 545.70,203.04 543.50,203.99 C536.45,207.02 517.25,213.36 506.50,216.21 C493.41,219.68 481.61,223.22 465.00,228.68 C455.92,231.66 447.15,234.51 445.50,235.00 C441.87,236.10 423.70,238.00 416.85,238.00 C413.89,238.00 410.35,238.80 408.00,240.00 C404.13,241.98 404.06,241.98 403.04,240.07 C402.47,239.01 401.19,237.88 400.20,237.56 C398.20,236.93 392.39,229.64 389.00,223.50 C387.78,221.30 386.44,219.05 386.03,218.50 C385.35,217.61 382.69,209.62 378.96,197.25 C377.86,193.60 377.29,193.00 374.95,193.00 C372.90,193.00 372.07,193.60 371.62,195.38 C370.64,199.29 374.65,212.58 379.73,222.29 C388.44,238.90 410.90,260.73 431.00,272.14 C458.70,287.86 459.20,288.20 457.23,290.17 C456.32,291.08 453.34,290.94 444.27,289.55 C411.01,284.46 390.58,285.17 367.86,292.21 C359.00,294.95 350.47,301.41 346.26,308.55 C344.47,311.60 343.00,314.54 343.00,315.08 C343.00,315.63 342.12,317.81 341.04,319.92 C338.53,324.83 335.55,326.14 331.82,323.96 Z" fill="rgb(186,206,225)"/>
<path d="M 0.00 355.00 L 0.00 0.00 L 345.00 0.00 L 690.00 0.00 L 690.00 355.00 L 690.00 710.00 L 345.00 710.00 L 0.00 710.00 L 0.00 355.00 ZM 16.48 701.03 C16.81,700.50 17.08,693.87 17.10,686.28 C17.15,649.56 20.30,619.89 29.90,565.50 C31.55,556.15 33.57,544.67 34.39,540.00 C35.97,530.98 39.34,515.54 40.85,510.43 C43.53,501.37 50.15,495.00 56.90,495.00 C61.57,495.00 78.20,488.63 92.39,481.42 C116.38,469.21 133.20,456.21 148.62,437.93 C152.30,433.57 155.86,430.00 156.54,430.00 C158.14,430.00 158.82,433.36 159.63,445.14 C160.48,457.53 157.86,468.99 150.78,483.94 C148.03,489.75 143.78,499.20 141.34,504.95 C138.90,510.70 136.54,515.88 136.10,516.45 C134.97,517.91 132.21,526.10 129.85,535.00 C127.25,544.81 126.32,567.99 127.96,582.12 C129.39,594.43 131.83,604.30 135.50,612.63 C136.44,614.76 137.67,617.62 138.23,619.00 C145.99,637.84 159.56,650.31 181.53,658.76 C191.58,662.63 212.85,667.08 220.62,666.93 C226.40,666.82 240.21,664.41 253.00,661.27 C263.24,658.75 279.29,650.05 290.03,641.18 C303.52,630.05 314.00,617.53 314.00,612.57 C314.00,609.20 306.44,601.48 302.41,600.74 C300.81,600.44 295.02,598.56 289.55,596.56 C274.35,591.02 264.52,589.64 245.73,590.41 C237.05,590.77 228.86,591.56 227.52,592.17 C223.65,593.94 220.43,591.06 216.41,582.24 C208.85,565.64 201.44,561.27 192.20,567.97 C187.10,571.66 186.00,573.68 186.00,579.35 C186.00,583.08 186.49,584.24 188.98,586.33 C193.26,589.93 197.33,590.58 201.27,588.28 C203.13,587.20 204.64,585.42 204.83,584.09 C205.15,581.88 204.98,581.82 200.17,582.48 C193.82,583.35 191.00,581.98 191.00,578.04 C191.00,573.14 196.38,569.47 201.53,570.85 C206.20,572.10 212.00,584.65 212.00,593.50 C212.00,598.90 211.67,599.93 209.25,602.18 C203.83,607.23 201.44,608.16 193.79,608.25 C185.66,608.34 180.95,606.67 176.73,602.20 C173.48,598.77 169.00,587.72 169.00,583.16 C169.00,581.24 168.54,576.70 167.98,573.08 C167.42,569.46 166.49,563.35 165.90,559.50 C163.32,542.64 160.71,535.77 154.12,528.50 C151.41,525.52 150.13,522.89 149.11,518.19 L 147.73 511.89 L 154.80 497.69 C166.14,474.91 168.75,467.87 169.96,456.68 C170.83,448.68 170.73,444.99 169.44,436.68 C165.70,412.68 165.58,414.91 171.39,400.63 C177.22,386.28 180.00,373.32 179.98,360.50 C179.97,354.36 179.28,346.41 178.43,342.50 C177.58,338.65 176.48,332.77 175.97,329.43 C175.47,326.10 173.70,318.08 172.03,311.62 C170.36,305.15 169.00,298.80 169.00,297.51 C169.00,294.44 162.35,281.99 154.24,269.87 C150.56,264.36 147.95,259.45 148.15,258.37 C148.65,255.67 179.25,240.52 200.00,232.71 C203.57,231.36 208.52,229.36 211.00,228.25 C217.74,225.24 234.03,219.00 235.14,219.00 C235.68,219.00 238.58,217.84 241.59,216.41 C257.53,208.87 270.85,198.04 275.09,189.17 C277.80,183.48 283.68,169.78 285.45,165.00 C286.16,163.07 287.68,159.48 288.82,157.00 C289.97,154.52 293.13,147.10 295.84,140.50 C304.92,118.47 307.43,113.99 324.16,90.00 C327.75,84.85 348.92,63.83 349.91,64.44 C350.27,64.67 355.25,61.51 360.97,57.42 C375.35,47.17 377.00,47.44 371.34,59.10 C369.36,63.17 367.62,67.40 367.46,68.50 C367.31,69.60 365.18,76.57 362.74,84.00 C360.29,91.43 357.26,102.00 356.01,107.50 C353.93,116.58 353.34,117.87 349.60,121.50 C345.58,125.42 344.50,127.82 340.89,141.00 C340.21,143.48 339.28,145.93 338.83,146.45 C338.37,146.97 338.00,148.40 338.00,149.62 C338.00,150.84 337.48,152.01 336.84,152.22 C336.19,152.44 335.55,155.03 335.40,158.05 C335.25,161.05 333.95,167.77 332.52,173.00 C326.58,194.64 321.43,224.67 319.05,251.50 C314.65,301.26 318.03,324.79 330.82,333.22 C336.38,336.89 343.45,334.32 347.01,327.35 C347.81,325.78 349.43,322.92 350.62,321.00 C351.80,319.08 353.05,315.27 353.40,312.55 C354.37,304.75 359.30,300.58 372.73,296.17 C381.95,293.14 408.23,291.27 419.85,292.82 C424.73,293.47 432.05,294.00 436.11,294.00 C443.19,294.00 454.59,295.75 462.00,297.99 C463.95,298.57 468.37,298.77 472.00,298.43 C478.28,297.84 478.82,297.98 487.75,302.47 C492.84,305.02 497.00,307.69 497.00,308.40 C497.00,310.14 494.51,312.17 488.39,315.44 C473.73,323.27 464.80,336.92 460.47,358.13 C457.24,373.98 460.86,396.98 470.20,420.00 C478.56,440.59 490.08,464.27 495.37,471.76 C497.21,474.37 501.72,481.32 505.39,487.21 C511.28,496.65 512.14,498.67 512.65,504.21 C513.20,510.25 513.08,510.72 509.47,516.00 C502.12,526.79 499.68,531.61 497.36,539.99 C494.55,550.09 494.22,562.90 496.56,570.50 C499.00,578.41 498.96,589.91 496.45,602.00 C495.32,607.47 494.83,615.29 495.43,618.47 C496.16,622.34 501.02,627.54 505.83,629.56 C508.71,630.77 509.55,630.77 511.96,629.52 C515.47,627.71 520.00,622.41 520.00,620.12 C520.00,615.69 515.49,614.78 512.00,618.50 C507.29,623.52 503.00,620.54 503.00,612.24 C503.00,607.39 503.37,606.43 506.40,603.40 C508.50,601.30 510.78,600.00 512.37,600.00 C516.44,600.00 525.81,604.94 528.94,608.75 C532.77,613.40 533.19,617.25 530.62,624.45 C528.68,629.91 528.00,630.71 522.51,633.95 C514.43,638.74 507.09,638.90 498.41,634.46 C492.78,631.58 492.05,630.73 480.86,613.98 C467.14,593.44 460.60,586.73 450.86,583.19 C447.36,581.92 443.72,580.46 442.76,579.94 C441.81,579.42 440.09,579.00 438.94,579.00 C437.80,579.00 436.16,578.30 435.30,577.45 C434.33,576.47 432.39,576.00 430.13,576.18 C428.13,576.33 423.08,576.09 418.90,575.63 C405.23,574.13 394.57,577.66 381.80,587.91 C375.26,593.17 373.80,594.92 372.05,599.58 C370.92,602.60 370.02,605.62 370.04,606.29 C370.06,606.95 371.52,609.80 373.29,612.61 C391.45,641.50 401.81,651.02 433.50,667.92 C447.29,675.28 482.17,681.99 491.95,679.16 C493.90,678.60 498.09,677.39 501.25,676.48 C504.41,675.56 507.00,674.41 507.00,673.91 C507.00,673.41 507.49,673.00 508.08,673.00 C510.21,673.00 526.81,664.20 532.10,660.27 C539.21,654.99 547.94,645.69 551.49,639.62 C556.12,631.70 561.98,613.48 562.67,604.86 C563.35,596.32 561.55,581.75 559.39,578.29 C558.62,577.07 558.00,575.65 558.00,575.13 C558.00,574.24 555.77,569.32 544.62,545.69 C542.08,540.29 540.00,535.69 540.00,535.46 C540.00,535.24 538.68,532.16 537.06,528.62 C535.44,525.09 533.36,519.61 532.44,516.46 C531.52,513.26 529.49,509.34 527.86,507.61 C521.74,501.08 516.94,494.41 505.46,476.50 C497.43,463.97 484.88,437.61 479.98,423.00 C477.68,416.12 475.31,409.60 474.72,408.50 C474.13,407.40 473.30,404.92 472.87,403.00 C472.44,401.08 470.92,395.45 469.48,390.50 C465.92,378.24 465.57,360.53 468.72,351.50 C473.93,336.54 478.57,330.07 489.51,322.53 C494.92,318.81 495.56,318.63 506.71,317.73 C517.89,316.83 518.59,316.90 526.90,319.55 C545.19,325.39 565.01,336.52 572.29,345.03 C580.15,354.21 599.59,385.01 610.78,406.00 C619.23,421.85 622.67,428.63 623.25,430.57 C623.57,431.63 625.04,435.65 626.51,439.50 C628.94,445.87 630.01,449.38 633.18,461.50 C633.76,463.70 634.58,466.62 635.00,468.00 C635.86,470.81 636.45,473.11 641.02,491.50 C644.21,504.36 644.96,507.83 647.08,519.50 C648.54,527.51 649.69,533.46 650.96,539.50 C654.16,554.72 655.79,570.22 657.02,597.00 C657.90,616.19 658.32,619.87 659.88,622.00 C660.95,623.46 662.71,624.50 664.11,624.50 C666.40,624.50 666.53,624.12 667.23,615.50 C668.05,605.31 667.54,592.87 665.47,572.50 C664.69,564.80 663.86,556.47 663.64,554.00 C663.41,551.53 662.53,546.80 661.69,543.50 C660.10,537.27 659.72,535.39 655.48,513.00 C652.82,498.95 651.80,494.54 649.47,487.00 C648.70,484.52 646.77,477.77 645.17,472.00 C640.51,455.20 633.99,434.94 631.40,429.22 C630.08,426.32 629.00,423.73 629.00,423.47 C629.00,422.16 615.70,395.47 611.65,388.67 C609.09,384.36 607.00,380.66 607.00,380.45 C607.00,380.24 604.88,376.57 602.29,372.29 C590.81,353.30 578.40,338.41 567.03,329.95 C556.55,322.16 550.91,319.20 532.50,311.84 C527.00,309.64 521.15,307.25 519.50,306.54 C517.85,305.82 514.92,304.65 513.00,303.93 C511.08,303.21 506.24,301.13 502.25,299.31 C498.26,297.49 494.74,296.00 494.43,296.00 C493.04,296.00 454.54,277.26 448.50,273.64 C446.30,272.32 441.12,269.32 437.00,266.97 C428.75,262.27 416.59,253.52 413.57,250.12 C412.36,248.76 412.00,247.60 412.59,247.01 C413.11,246.49 418.70,245.79 425.02,245.46 C436.51,244.85 444.88,243.68 450.50,241.90 C463.27,237.84 473.11,234.55 482.79,231.08 C488.99,228.86 499.92,225.67 507.06,223.99 C529.48,218.71 567.02,204.96 579.63,197.39 C588.02,192.36 591.53,188.63 596.83,179.12 C602.05,169.75 606.81,165.09 613.79,162.49 C622.15,159.38 636.29,151.73 644.50,145.88 C658.89,135.63 668.22,124.05 676.57,106.12 C679.03,100.83 681.88,94.93 682.90,93.00 C685.38,88.30 686.32,83.57 685.21,81.33 C682.01,74.88 680.88,73.47 678.33,72.75 C676.77,72.30 668.08,71.66 659.00,71.32 C648.74,70.94 642.23,70.29 641.79,69.60 C640.83,68.12 622.18,68.12 621.22,69.60 C620.47,70.75 608.22,71.92 592.17,72.39 C586.12,72.56 582.56,73.09 582.07,73.89 C580.65,76.18 547.64,76.58 531.46,74.49 C523.78,73.50 517.22,72.27 516.89,71.76 C516.55,71.24 514.75,70.75 512.89,70.66 C511.02,70.57 508.89,69.93 508.15,69.23 C507.41,68.52 505.39,68.03 503.65,68.12 C501.92,68.22 498.48,67.74 496.00,67.06 C491.06,65.70 471.10,58.14 469.50,57.02 C468.95,56.64 464.67,54.83 460.00,53.00 C455.33,51.17 451.05,49.34 450.50,48.92 C449.95,48.51 447.02,47.19 444.00,46.00 C435.55,42.69 432.59,41.32 417.50,33.77 C398.74,24.39 394.19,21.83 382.78,14.23 C373.71,8.19 370.00,6.99 370.00,10.07 C370.00,10.69 371.65,12.84 373.67,14.85 C377.28,18.44 378.86,22.75 378.96,29.32 C379.01,32.84 375.15,36.44 360.90,46.15 C335.43,63.49 319.37,79.10 306.75,98.78 C305.24,101.14 304.00,103.32 304.00,103.63 C304.00,103.94 303.12,105.43 302.03,106.95 C299.87,109.99 289.09,134.33 279.85,157.00 C276.61,164.98 273.31,172.86 272.54,174.52 C271.76,176.17 270.64,178.81 270.05,180.37 C266.10,190.75 257.45,198.65 240.50,207.37 C231.69,211.90 225.34,214.58 194.00,227.02 C176.93,233.80 176.79,233.86 162.50,240.51 C157.00,243.08 150.70,245.90 148.50,246.79 C140.86,249.88 117.88,262.99 106.22,270.91 C80.38,288.48 61.99,310.58 54.13,333.50 C51.39,341.46 49.00,351.19 49.00,354.31 C49.00,355.70 48.44,357.02 47.75,357.25 C46.92,357.53 46.47,360.00 46.43,364.58 C46.38,368.39 46.07,372.62 45.74,374.00 C44.66,378.38 41.70,411.47 38.95,450.00 C36.52,483.94 35.02,495.19 29.09,524.00 C27.55,531.48 26.14,540.04 24.97,549.00 C23.96,556.79 21.83,568.65 17.43,591.00 C12.03,618.37 10.10,633.84 9.11,657.50 C7.86,687.54 8.17,697.42 10.42,699.92 C12.41,702.11 15.47,702.67 16.48,701.03 ZM 459.33 667.50 C456.49,666.95 453.82,666.16 453.41,665.75 C453.00,665.34 451.67,665.00 450.45,665.00 C447.85,665.00 425.07,653.60 419.25,649.39 C403.21,637.77 395.35,629.76 385.76,615.21 C379.46,605.67 378.78,602.51 381.89,597.41 C384.46,593.20 391.52,587.57 397.53,584.94 C401.86,583.05 404.30,582.77 416.50,582.78 C427.38,582.79 431.17,583.15 433.50,584.39 C435.15,585.27 437.75,585.99 439.27,585.99 C442.53,586.00 454.35,591.74 458.77,595.46 C462.85,598.89 470.63,609.57 476.40,619.67 C480.85,627.44 493.38,641.00 496.12,641.00 C496.71,641.00 498.72,641.72 500.58,642.61 C503.05,643.78 506.07,644.12 511.76,643.86 C518.58,643.54 520.20,643.08 524.81,640.12 C528.96,637.46 530.91,635.24 534.02,629.62 C539.13,620.41 539.37,614.93 535.00,607.31 C532.32,602.62 524.80,596.00 522.18,596.00 C521.65,596.00 520.93,595.27 520.59,594.37 C520.10,593.10 519.07,592.86 515.96,593.28 C512.34,593.76 511.73,593.51 509.50,590.59 C508.15,588.81 506.39,585.52 505.60,583.28 C503.63,577.70 500.00,560.29 500.02,556.55 C500.04,552.35 502.78,539.76 503.82,539.07 C504.29,538.76 505.20,536.95 505.85,535.06 C507.55,530.11 516.10,519.10 518.81,518.37 C521.36,517.69 525.00,520.70 525.00,523.48 C525.00,524.94 527.86,531.15 542.97,562.50 C551.73,580.69 551.51,579.78 551.40,596.00 C551.28,613.03 549.71,620.57 543.78,632.40 C539.31,641.34 532.54,649.01 523.34,655.58 C516.11,660.74 505.50,666.00 502.32,666.00 C501.11,666.00 498.86,666.51 497.32,667.14 C493.74,668.58 466.26,668.85 459.33,667.50 ZM 198.50 654.98 C197.40,654.59 194.70,653.72 192.50,653.06 C190.30,652.41 187.60,651.49 186.50,651.04 C166.59,642.77 157.55,635.60 149.79,621.93 C139.19,603.23 135.01,575.91 138.12,545.50 C139.42,532.68 140.42,530.91 145.84,531.67 C154.34,532.86 159.12,544.35 160.52,567.00 C161.19,577.81 162.64,588.44 164.34,594.96 C165.73,600.32 172.91,607.92 179.87,611.41 C192.90,617.93 202.38,616.75 211.69,607.44 C214.68,604.45 218.33,601.72 219.81,601.37 C221.29,601.01 222.95,600.39 223.50,599.99 C224.05,599.58 225.85,598.99 227.50,598.68 C229.15,598.36 234.32,597.37 239.00,596.46 C258.44,592.70 290.14,598.68 298.75,607.72 C300.54,609.60 302.00,612.04 302.00,613.14 C302.00,617.26 291.76,628.94 280.00,638.24 C269.72,646.37 254.58,653.20 244.00,654.48 C235.99,655.44 200.85,655.83 198.50,654.98 ZM 47.13 488.43 C44.70,485.35 44.62,484.32 45.96,474.00 C46.50,469.88 47.42,457.05 48.01,445.50 C49.44,417.25 52.77,381.63 54.55,375.57 C55.35,372.86 56.00,367.80 56.00,364.33 C56.00,353.66 60.31,337.73 66.78,324.50 C73.00,311.77 89.38,293.50 105.00,281.87 C124.71,267.20 136.94,261.76 142.96,264.98 C144.89,266.01 151.47,275.81 156.33,284.88 C160.40,292.51 166.34,310.82 166.14,315.16 C166.04,317.17 166.58,319.43 167.33,320.18 C168.21,321.07 168.66,323.76 168.60,327.81 C168.55,332.07 168.95,334.35 169.87,334.92 C170.67,335.41 170.96,336.55 170.58,337.73 C170.24,338.82 170.62,344.17 171.43,349.61 C173.28,362.02 172.11,384.03 169.46,386.69 C168.57,387.57 168.06,389.12 168.32,390.13 C168.88,392.26 164.33,403.13 158.27,414.15 C145.05,438.18 117.91,463.32 91.53,475.96 C71.35,485.64 62.93,488.83 53.38,490.44 C49.67,491.06 49.03,490.86 47.13,488.43 ZM 331.82 323.96 C329.25,322.46 326.11,312.90 324.82,302.68 C323.37,291.12 325.06,237.49 327.37,222.12 C329.90,205.24 337.83,170.06 340.03,165.95 C340.62,164.83 341.76,160.52 342.56,156.35 C345.58,140.59 348.74,133.40 351.06,137.06 C351.56,137.85 351.98,139.44 351.98,140.60 C352.01,143.62 355.31,146.21 358.66,145.82 L 361.50 145.50 L 361.51 131.00 C361.51,119.72 361.90,115.44 363.26,111.72 C364.22,109.08 365.00,105.62 365.00,104.01 C365.00,102.41 365.41,100.06 365.92,98.80 C366.43,97.53 367.58,94.03 368.49,91.00 C371.07,82.37 374.91,73.08 378.80,66.00 C384.23,56.14 395.47,41.49 399.54,38.97 C404.69,35.79 405.88,36.18 440.25,52.43 C456.44,60.08 480.11,69.85 488.54,72.36 C493.47,73.83 502.45,76.61 508.50,78.54 C514.55,80.46 520.62,82.05 522.00,82.06 C523.38,82.06 527.20,82.73 530.50,83.53 C544.86,87.03 575.30,85.86 603.00,80.74 C607.30,79.95 619.97,79.60 640.46,79.70 C668.74,79.85 671.54,80.02 672.71,81.62 C674.54,84.12 674.31,88.11 671.92,95.52 C667.35,109.67 660.75,120.22 650.30,130.08 C642.33,137.59 633.92,142.91 615.57,152.03 C600.98,159.28 594.96,164.40 590.78,173.12 C585.31,184.55 579.95,188.63 558.73,197.55 C552.55,200.14 545.70,203.04 543.50,203.99 C536.45,207.02 517.25,213.36 506.50,216.21 C493.41,219.68 481.61,223.22 465.00,228.68 C455.92,231.66 447.15,234.51 445.50,235.00 C441.87,236.10 423.70,238.00 416.85,238.00 C413.89,238.00 410.35,238.80 408.00,240.00 C404.13,241.98 404.06,241.98 403.04,240.07 C402.47,239.01 401.19,237.88 400.20,237.56 C398.20,236.93 392.39,229.64 389.00,223.50 C387.78,221.30 386.44,219.05 386.03,218.50 C385.35,217.61 382.69,209.62 378.96,197.25 C377.86,193.60 377.29,193.00 374.95,193.00 C371.09,193.00 370.60,196.12 373.00,205.48 C376.31,218.43 383.00,229.74 395.27,243.14 C405.01,253.77 420.10,266.23 428.97,270.99 C430.25,271.67 432.24,273.29 433.39,274.59 C434.55,275.88 438.80,278.69 442.84,280.83 C446.88,282.97 451.15,285.56 452.34,286.61 L 454.50 288.50 L 451.80 288.81 C450.31,288.98 448.10,288.59 446.87,287.93 C445.48,287.19 437.30,286.55 424.94,286.23 C380.11,285.06 356.08,291.88 346.26,308.55 C344.47,311.60 343.00,314.54 343.00,315.08 C343.00,315.63 342.12,317.81 341.04,319.92 C338.53,324.83 335.55,326.14 331.82,323.96 Z" fill="rgb(254,254,254)"/>
</g>
</svg>