<svg width="690" height="710" style="background:transparent" version="1.1" xmlns="http://www.w3.org/2000/svg" desc="Created with imagetracer.js version 1.2.6" ><path fill="rgb(209,219,230)" stroke="rgb(209,219,230)" stroke-width="1" opacity="1" d="M 370.5 6 L 373.5 6 L 394.5 21 L 405 25 Q 403.8 28 407.5 27 L 431.5 40 L 434.5 40 L 452.5 49 L 455.5 49 L 471.5 57 L 495.5 66 L 499.5 66 L 502.5 68 L 507.5 68 L 510.5 70 L 515.5 70 L 531.5 74 L 565.5 75 L 566.5 74 L 577.5 74 L 586.5 72 L 596.5 72 L 603.5 70 L 617.5 70 L 621.5 68 L 640.5 68 L 648.5 70 L 675.5 70 L 683 73.5 L 686 81.5 L 686 87.5 Q 677.7 112.5 664 131 Q 661.3 129.9 662 132.5 L 644.5 148 L 633.5 155 L 610.5 165 L 602 172.5 Q 596.9 186.4 586.5 195 L 561.5 208 L 550.5 211 L 542.5 215 L 539.5 215 L 531.5 219 L 527.5 219 L 525.5 221 L 514.5 223 L 506.5 226 L 493.5 228 L 485.5 232 L 475.5 234 L 473.5 236 L 453.5 243 L 432.5 247 L 414 247 Q 412.5 250.8 415.5 250 Q 420.4 256.3 428 259 L 428 261 L 431 261 Q 429.8 264 433.5 263 L 450.5 274 L 480.5 289 L 484 289 Q 482.7 292.3 487.5 291 L 510.5 302 L 513.5 302 L 515.5 304 L 518.5 304 L 520.5 306 L 523.5 306 L 525.5 308 L 553.5 319 Q 570.7 328.3 583 342.5 L 587 349 Q 589.7 347.9 589 350.5 L 602 368.5 L 602 370.5 L 617 394.5 L 630 421.5 L 632 430 Q 635.3 428.7 634 433.5 L 638 441.5 Q 639 451.5 643 458.5 L 643 462.5 L 645 465.5 L 645 469.5 L 647 472.5 L 647 477.5 L 653 494.5 L 653 499.5 L 658 517.5 L 658 524.5 L 662 537.5 L 662 546.5 L 664 548.5 Q 662.7 556.8 666 560.5 L 666 573.5 L 668 577.5 L 668 624.5 L 664.5 628 L 663.5 627 L 657 621.5 L 656 597.5 L 655 596.5 L 655 573.5 L 652 557.5 L 652 549.5 Q 649.1 545.9 650 538.5 L 648 535.5 L 648 530.5 L 649 530.5 L 652 542.5 L 652 548.5 L 654 554.5 L 654 562.5 L 656 569.5 L 656 590.5 L 657 591.5 L 658 619.5 L 662.5 625 L 664.5 626 L 667 623.5 L 667 581.5 L 665 575.5 L 665 564.5 Q 661.9 560.1 663 551.5 L 661 547.5 L 659 530.5 L 657 526.5 L 656 513.5 L 654 510.5 L 654 504.5 L 652 501.5 L 650 488.5 L 648 485.5 L 648 481.5 L 646 478.5 L 646 474.5 L 644 471.5 L 644 467.5 L 635 437.5 L 622 407.5 L 605 376.5 L 590 353.5 L 572.5 334 Q 559.1 322.4 541.5 315 L 511.5 304 L 460.5 281 L 427.5 262 L 412 249.5 L 411 247.5 L 417.5 245 L 433.5 245 L 434.5 244 L 447.5 243 L 495.5 226 L 519.5 221 L 564.5 205 L 582.5 196 L 592 187.5 Q 597.2 172.7 608.5 164 L 628.5 156 L 652 141 Q 650.9 138.3 653.5 139 Q 663.9 129.9 671 117.5 L 680 99.5 L 685 83.5 L 680.5 73 L 678.5 72 L 646.5 71 L 645.5 70 L 619.5 70 L 608.5 72 L 598.5 72 L 591.5 74 L 581.5 74 L 574.5 76 L 534.5 76 L 528.5 74 L 512.5 72 L 477.5 61 L 463.5 54 L 430.5 41 L 410.5 31 L 393.5 22 L 375.5 9 L 371.5 8 L 370 10.5 L 374.5 16 L 378 18.5 L 379 31.5 L 374.5 37 L 341.5 60 L 322 78.5 Q 322.8 80.8 320.5 80 L 309 94.5 L 309 96.5 L 300 109.5 L 283 150.5 L 281 152.5 L 270 181.5 Q 266.3 190.3 259.5 196 L 232.5 212 L 173.5 235 L 122.5 260 L 95.5 278 L 76 296.5 Q 62.8 310.3 55 329.5 L 52 338.5 L 52 342.5 L 50 345.5 Q 50.7 352.2 48 355.5 L 48 363.5 L 44.5 380 L 44 372.5 L 46 368.5 L 46 359.5 L 48 353.5 L 48 348.5 L 53 330.5 L 66 306 Q 68.7 307.1 68 304.5 L 74 296 Q 76.7 297.1 76 294.5 L 87.5 283 L 89 283 Q 87.9 280.3 90.5 281 L 95 278 Q 93.9 275.3 96.5 276 L 114.5 263 L 117 263 Q 115.8 260 119.5 261 L 124.5 257 L 140.5 250 L 145.5 246 L 172.5 235 L 178.5 231 L 181.5 231 L 183.5 229 L 186.5 229 L 198.5 223 L 209.5 220 L 211.5 218 L 214.5 218 L 225.5 212 L 233.5 210 Q 249.5 202.5 262 191.5 L 273 171.5 L 273 168.5 L 275 166.5 L 279 153.5 L 286 140.5 L 288 132.5 L 290 130.5 L 295 116.5 L 297 114.5 L 297 111.5 L 314 85 Q 316.7 86.1 316 83.5 L 332.5 66 L 353.5 49 L 369.5 38 L 372 38 L 372 36 L 374 36 L 374 34 Q 376.7 35.1 376 32.5 Q 378.5 31 377 25.5 L 376 23.5 L 377 20.5 L 376 18 L 369 12.5 L 368 9.5 L 370.5 6 Z " /><path fill="rgb(209,219,230)" stroke="rgb(209,219,230)" stroke-width="1" opacity="1" d="M 401.5 37 L 410.5 38 L 449.5 57 L 461.5 61 L 467.5 65 L 470.5 65 L 492.5 74 L 504.5 76 L 511.5 80 L 526.5 83 L 534.5 83 L 535.5 84 L 561.5 85 L 562.5 84 L 588.5 83 L 604.5 80 L 612.5 80 L 619.5 78 L 650.5 78 L 651.5 79 L 666.5 79 L 673 81.5 L 675 87.5 L 671 96.5 L 671 100.5 L 665 112.5 L 654 128 L 635.5 142 Q 623.7 150.2 608.5 155 L 596 164.5 L 587 180.5 L 579.5 188 L 559.5 198 L 513.5 215 L 494.5 219 L 442.5 236 L 424.5 237 L 423.5 238 L 411.5 238 L 405.5 242 L 403 242 L 400.5 238 L 395 233.5 L 384 215.5 L 380 203.5 L 380 199.5 L 376.5 193 Q 372 192 371 194.5 L 371 200.5 L 375 213.5 L 384 230.5 L 407.5 256 L 437.5 277 L 453.5 285 L 457 288.5 L 455.5 291 L 440.5 288 L 432.5 288 L 431.5 287 L 401.5 286 L 400.5 287 L 383.5 288 L 366.5 292 L 354.5 299 L 348 305.5 L 338.5 324 L 332.5 325 L 329 321.5 L 326 313.5 L 325 302.5 L 324 301.5 Q 325.5 290 323 282.5 L 324 280.5 L 323 276.5 L 324 275.5 L 325 235.5 L 327 228.5 L 327 219.5 L 331 203.5 L 331 198.5 L 333 194.5 L 333 189.5 L 337 177.5 L 337 173.5 L 341 164.5 L 343 149.5 L 345 146.5 Q 345.4 136.7 349 131 Q 352 129.8 351 133.5 L 355.5 145 Q 360.9 145.6 361 144.5 L 361 117.5 L 365 106.5 L 365 100.5 L 367 93.5 L 376 69.5 Q 385.5 51.5 399.5 38 L 401.5 37 Z M 404 38 L 401 39 L 392 49 Q 393 51 390 50 L 381 64 L 373 80 L 366 103 L 366 110 L 364 113 Q 365 119 362 122 L 362 133 L 363 134 L 362 146 L 360 147 L 355 146 L 352 144 Q 353 138 350 136 L 347 140 L 347 146 L 343 155 L 343 164 L 336 184 Q 337 189 334 192 L 334 198 L 332 201 L 332 208 L 330 211 Q 331 218 328 221 L 328 234 L 326 237 L 326 266 L 325 267 L 325 298 L 326 299 L 326 307 L 328 311 L 328 316 L 330 319 L 330 321 Q 333 320 332 323 L 338 323 L 348 302 L 358 295 L 371 289 L 377 289 L 380 287 Q 388 288 392 285 L 436 285 Q 439 289 448 287 L 451 289 L 454 289 L 447 283 L 438 279 L 409 259 Q 393 245 381 229 L 372 210 L 370 203 L 370 194 L 372 192 L 379 192 Q 378 195 381 197 L 381 202 L 383 205 L 385 214 L 390 223 Q 389 226 392 225 L 396 233 L 406 240 L 410 237 L 442 235 L 445 233 L 450 233 L 452 231 L 456 231 L 483 221 L 490 220 L 493 218 Q 498 219 500 216 L 505 216 L 507 214 L 512 214 L 515 212 L 518 212 L 521 210 L 544 203 L 546 201 L 574 190 L 579 186 Q 581 187 580 184 L 584 182 Q 583 179 586 180 L 593 166 L 602 158 Q 604 159 603 156 L 606 156 L 638 139 L 652 128 L 659 119 Q 658 116 661 117 L 667 106 L 673 89 L 672 82 L 664 80 L 642 80 L 641 79 L 615 80 L 610 82 Q 600 81 595 84 L 581 84 L 575 86 L 538 86 L 531 84 L 523 84 L 520 82 L 514 82 L 502 77 L 491 75 L 482 71 L 479 71 L 477 69 L 474 69 L 472 67 L 431 50 L 421 44 L 404 38 Z " /><path fill="rgb(209,219,230)" stroke="rgb(209,219,230)" stroke-width="1" opacity="1" d="M 378.5 43 Q 381.5 42.1 380 46.5 Q 370.8 59.3 365 75.5 L 365 78.5 L 358 97.5 L 354 117.5 L 352 121 L 345 125.5 L 342 138.5 L 338 148.5 Q 337.2 160.2 333 168.5 L 333 173.5 L 326 197.5 L 326 206.5 Q 322.5 210.5 324 219.5 L 321 229.5 L 321 238.5 L 319 242.5 L 319 257.5 L 318 258.5 L 318 271.5 L 317 272.5 L 317 298.5 L 319 306.5 L 319 314.5 L 324 326.5 L 327.5 331 L 336.5 335 Q 343.1 334.1 346 329.5 L 353 316.5 L 354 306.5 L 357.5 302 L 361.5 299 L 377.5 293 L 398.5 292 L 399.5 291 L 416.5 291 L 417.5 292 L 430.5 292 L 431.5 293 L 446.5 294 L 465.5 299 L 469.5 299 L 470.5 298 L 479.5 298 L 498 308.5 Q 499.1 311.8 496.5 311 Q 481.9 316.4 473 327.5 L 462 349.5 L 461 358.5 L 459 363.5 L 459 376.5 L 460 377.5 L 462 396.5 L 469 418.5 L 491 465.5 L 512 497.5 L 513 511.5 L 500 530.5 L 496 542.5 L 495 547.5 L 495 566.5 L 499 579.5 L 500 593.5 L 495 607.5 L 495 618.5 L 498 625 L 503.5 629 L 509.5 630 Q 515.6 628.6 518 623.5 L 519 618 L 514.5 616 L 510.5 621 L 506.5 622 L 503 619.5 L 501 611.5 L 505.5 602 Q 508.8 599.3 515.5 600 Q 525.4 603.1 531 610.5 L 533 618.5 L 528 631 L 514.5 638 L 505.5 638 L 491 631 L 472 600.5 L 462.5 590 L 457.5 586 L 440.5 579 L 426.5 576 L 408.5 575 Q 407.2 577.2 402.5 576 L 390.5 581 L 373 595.5 L 370 607.5 Q 381.5 630 399.5 646 L 416.5 659 L 447.5 674 L 462.5 677 L 472.5 677 L 473.5 678 L 486.5 679 L 487.5 678 L 498.5 677 L 511.5 672 L 537 657 Q 535.9 654.3 538.5 655 Q 550.2 645.7 556 630.5 L 562 607.5 L 562 592.5 L 561 591.5 L 560 580.5 L 556 572.5 L 556 569.5 L 537 530.5 L 531 511.5 L 527.5 507 L 524 504.5 L 524 502.5 L 517 495.5 L 504 475.5 L 485 438.5 L 468 388.5 L 466 377.5 L 466 360.5 L 468 350.5 L 475 335.5 L 485.5 325 Q 491 319.5 499.5 317 L 517.5 316 L 520.5 318 L 524.5 318 L 538.5 323 L 554.5 331 Q 566 337 574 346.5 L 596 379.5 L 622 426.5 L 631 451.5 L 633 462.5 L 631 461.5 L 629 448.5 L 625 441.5 L 622 429.5 L 603 395.5 L 603 393 Q 600 394.3 601 390.5 L 573 347 L 571 347 L 571 345 Q 568.3 346.1 569 343.5 L 555.5 333 L 532.5 322 L 516.5 318 L 500.5 318 L 491.5 322 L 480 331 L 469 352.5 Q 470 358.5 467 360.5 L 467 375.5 L 469 380.5 L 469 387.5 Q 471.8 389.2 471 394.5 L 473 397.5 L 480 421.5 L 482 423.5 L 482 427.5 Q 484.8 428.3 484 432.5 L 499 463.5 L 510 480.5 L 512 486 Q 515 484.8 514 488.5 L 523 501 Q 526 499.8 525 503.5 L 531 508.5 L 533 511.5 L 533 515.5 L 537 526.5 L 542 535.5 L 542 538.5 L 548 548.5 L 561 578.5 Q 560 584.5 563 586.5 L 563 612.5 L 561 615.5 L 561 620.5 L 557 628.5 L 555 636.5 L 548 648 Q 545.3 646.9 546 649.5 L 538 656 L 536.5 659 L 521.5 669 L 508.5 675 L 502.5 676 L 500.5 678 Q 494.5 677 492.5 680 L 474.5 680 L 467.5 678 L 459.5 678 L 449.5 676 L 431.5 669 L 406.5 654 L 388 636.5 Q 380 628.5 376 618 Q 373.3 619.1 374 616.5 L 368 605.5 L 372 594.5 L 375.5 591 L 378.5 589 L 387.5 581 L 403.5 574 L 424.5 574 L 428.5 576 L 435.5 576 Q 436.7 579.3 442.5 578 L 455.5 583 L 462 587 Q 460.9 589.7 463.5 589 Q 472.3 595.5 476 606 Q 478.7 604.9 478 607.5 L 480 612 L 482 612 L 482 615 Q 484.7 613.9 484 616.5 L 495.5 631 L 505.5 636 L 514.5 636 L 523.5 632 L 528 627.5 L 530 623.5 L 531 615.5 L 522.5 605 Q 518.4 601.1 509.5 602 L 505 604.5 Q 502.1 608.1 503 615.5 L 505.5 619 L 507.5 620 L 511 619 L 514.5 614 Q 519.5 613.5 520 617.5 L 521 620.5 Q 519.5 627 514.5 630 L 510.5 633 L 507.5 633 L 496 626 L 494 621.5 L 493 610.5 Q 495.3 609.3 494 604.5 L 498 595.5 L 498 580.5 L 494 569.5 L 493 552.5 Q 495.8 550.7 494 544.5 L 496 541.5 L 498 531.5 L 507 516 Q 509.7 517.1 509 514.5 L 511 512.5 L 512 506.5 Q 509.2 504.8 511 498.5 L 488 463.5 L 466 414.5 L 464 404.5 L 460 394.5 L 460 388.5 L 458 381.5 L 458 360.5 L 464 339.5 L 471 327.5 L 477.5 321 L 480.5 319 L 494 309.5 Q 495.1 306.2 492.5 307 L 480.5 300 L 473.5 299 L 465.5 301 L 458.5 298 Q 451.8 299.2 449.5 296 L 440.5 296 L 437.5 294 L 419.5 294 L 408.5 292 L 405.5 293 L 403.5 292 L 397.5 294 L 379.5 294 L 358 303 L 358 305 Q 355.3 303.9 356 306.5 L 354 312.5 L 354 318.5 L 343.5 334 Q 340.6 336.6 334.5 336 Q 327.9 335.1 325 330.5 L 318 316.5 L 318 310.5 L 316 304.5 L 316 285.5 L 315 283.5 L 316 282.5 L 316 262.5 L 318 254.5 L 318 240.5 L 320 237.5 L 320 225.5 L 323 215.5 L 325 194.5 L 327 190.5 L 329 178.5 L 331 175.5 L 331 170.5 L 333 166.5 L 337 146.5 L 340 139.5 L 340 135.5 L 344 127.5 L 344 124.5 L 346.5 122 L 352 117.5 L 355 102.5 L 359 92.5 L 359 88.5 L 361 86.5 L 363 76.5 L 373 54.5 L 373 51 L 368.5 52 Q 359 61.3 347 67 L 347 69 L 345 69 Q 346.1 71.7 343.5 71 L 334 79.5 L 330 86 Q 327.3 84.9 328 87.5 L 320 97.5 L 319 101 L 317 101 L 317 104 Q 314.3 102.9 315 105.5 L 300 131.5 L 300 134.5 L 298 136.5 L 296 144.5 L 289 158.5 L 289 161.5 L 285 167.5 L 281 180.5 L 274 195 Q 271.3 193.9 272 196.5 L 270 200 L 244.5 217 L 236.5 219 L 229.5 223 L 226.5 223 L 213.5 228 L 211.5 230 L 208.5 230 L 206.5 232 L 203.5 232 L 201.5 234 L 193.5 236 L 191.5 238 L 160.5 251 L 149 258.5 L 169 292.5 L 169 296.5 L 173 307.5 L 178 331.5 L 178 339.5 L 180 342.5 L 180 376.5 L 178 380.5 L 178 386.5 L 175 396.5 L 169 408.5 L 169 411.5 L 167 413.5 L 167 418.5 L 169 422.5 Q 167.6 432.4 171 437.5 L 171 459.5 L 169 462.5 L 169 469.5 L 165 476.5 L 165 480.5 L 163 482.5 L 156 499.5 L 150 508.5 L 149 513.5 L 152 524.5 L 159 531.5 L 165 544.5 Q 163.6 551.9 167 554.5 L 167 569.5 L 169 572.5 L 169 583.5 L 174 597.5 L 180.5 604 L 187.5 608 L 200 608 L 200 606 L 204 606 Q 202.9 603.3 205.5 604 L 211 597.5 L 211 588.5 L 209 583 Q 206.3 581.9 207 584.5 L 204.5 588 L 201.5 590 L 190.5 590 L 187 588 L 184 581.5 L 184 576.5 Q 185.1 569.1 190.5 566 L 197.5 563 L 201.5 563 L 210 568.5 L 212 571.5 L 216 577.5 L 219 587.5 L 222.5 591 L 226.5 592 L 227.5 591 L 235.5 591 L 239.5 589 L 267.5 589 L 271.5 591 L 278.5 591 Q 279.8 594.3 285.5 593 L 309 602 Q 307.9 604.7 310.5 604 L 315 609.5 L 315 616.5 L 304 631 L 302 631 L 302 633 L 300 633 L 300 635 L 298 635 L 298 637 L 296 637 Q 297.1 639.7 294.5 639 L 274.5 654 L 253.5 663 L 243.5 665 L 236.5 665 L 231.5 667 L 208.5 667 L 204.5 665 L 196.5 665 Q 194.2 662.3 188.5 663 L 177.5 659 L 167.5 654 L 149 641 L 140 627.5 L 138 620.5 L 136 618.5 L 136 615.5 L 132 609.5 L 132 605.5 L 130 603.5 L 130 598.5 L 128 595.5 L 128 589.5 L 126 582.5 L 125 554.5 L 126 553.5 L 126 545.5 L 128 534.5 L 130 531.5 L 132 521.5 L 134 519.5 L 134 516.5 L 138 510.5 L 142 498.5 L 155 471.5 L 158 460.5 L 159 445.5 L 158 444.5 L 157 432 L 152 435.5 L 148 442 L 146 442 L 146 444 L 144 444 L 144 446 Q 141.3 444.9 142 447.5 L 139 449 L 139 451 L 137 451 L 137 453 L 135 453 L 135 455 L 133 455 Q 134.1 457.7 131.5 457 Q 121.9 468.5 107 474 Q 108.1 476.7 105.5 476 L 89.5 485 L 86 485 Q 87.3 488.3 82.5 487 L 70.5 493 L 49 498 L 49 500 Q 46.3 498.9 47 501.5 L 41 512.5 L 38 530.5 L 36 535.5 L 36 543.5 L 34 545.5 L 34 553.5 L 32 556.5 L 32 564.5 L 30 567.5 L 30 575.5 Q 26.8 578.8 28 586.5 L 26 589.5 L 26 598.5 L 25 599.5 L 25 605.5 L 23 612.5 L 23 621.5 L 21 628.5 L 21 638.5 L 19 644.5 L 18 701.5 L 14.5 705 L 8 699.5 L 8.5 697 L 12.5 702 L 14.5 703 L 17 700.5 L 18 640.5 L 20 633.5 L 20 623.5 L 25 595.5 L 25 588.5 L 29 572.5 L 29 566.5 L 31 560.5 L 31 555.5 L 35 539.5 L 35 532.5 L 37 527.5 L 39 514.5 L 47 498 L 53.5 495 L 62.5 494 L 79.5 488 L 105.5 475 L 134 454 Q 132.9 451.3 135.5 452 L 155.5 429 L 158 430.5 L 160 441.5 L 160 457.5 L 153 480.5 L 144 497.5 L 131 529.5 L 127 546.5 L 127 581.5 L 129 586.5 L 129 593.5 Q 131.7 595.8 131 601.5 L 140 624.5 Q 146.6 637.4 157.5 646 L 174.5 656 L 190.5 662 L 206.5 665 L 220.5 666 L 221.5 665 L 234.5 665 L 235.5 664 L 246.5 663 L 261.5 659 L 273.5 653 L 290 642 Q 288.9 639.3 291.5 640 L 299 634 Q 297.9 631.3 300.5 632 L 307 623 Q 309.7 624.1 309 621.5 L 314 615.5 L 314 611.5 L 307.5 603 L 304.5 601 L 300.5 601 L 275.5 592 L 269.5 592 L 262.5 590 L 244.5 590 L 231.5 593 L 223.5 593 L 218 588.5 L 213 574.5 L 206.5 567 Q 203.2 563.8 195.5 565 L 189 569.5 Q 185.5 573 185 579.5 Q 186.3 585.3 190.5 588 Q 193.7 590.3 200.5 589 L 205 585.5 Q 206.8 579.4 199.5 582 L 194.5 583 L 191 580.5 Q 190 574 193.5 572 L 201.5 570 L 206 573.5 L 212 587.5 L 213 595.5 Q 211.5 602 206.5 605 Q 201.5 610 191.5 610 Q 179.7 607.8 174 599.5 L 168 585.5 Q 169 576.5 166 571.5 L 166 558.5 L 164 553.5 L 163 543.5 L 159 534.5 L 149 521.5 L 148 510.5 Q 158.7 493.7 166 473.5 L 170 452.5 L 170 444.5 L 168 435.5 L 168 425.5 L 166 421.5 L 166 412.5 L 174 395.5 Q 174 388.5 177 384.5 L 177 378.5 L 179 370.5 L 179 349.5 L 178 348.5 L 177 334.5 L 175 329.5 L 174 317.5 L 168 298.5 L 168 294.5 L 162 281.5 L 147 258.5 L 148 256 L 187.5 237 L 242.5 216 L 261.5 205 L 271 195.5 L 277 185.5 L 305 117.5 L 324 89.5 L 337.5 74 L 350.5 63 L 373 48 Q 371.9 45.3 374.5 46 L 378.5 43 Z M 200 571 L 195 573 Q 191 574 192 580 L 196 582 L 202 580 Q 207 578 206 582 L 207 582 L 207 579 L 204 573 L 200 571 Z " /><path fill="rgb(209,219,230)" stroke="rgb(209,219,230)" stroke-width="1" opacity="1" d="M 135.5 263 Q 136.8 265.3 141.5 264 L 147 268.5 L 159 288.5 L 159 291.5 L 167 313.5 L 168 323.5 L 170 328.5 L 170 335.5 L 172 340.5 L 173 366.5 L 172 367.5 L 172 381.5 Q 169.3 383.8 170 389.5 L 157 417.5 Q 145.3 436.8 128.5 451 L 125.5 453 Q 107.6 470.6 82.5 481 L 57.5 490 L 48.5 491 Q 43 488 45 477.5 L 46 476.5 L 46 464.5 L 47 463.5 L 48 430.5 L 50 419.5 L 50 405.5 L 52 395.5 L 52 385.5 L 53 384.5 L 55 361.5 L 59 341.5 L 70 317.5 L 84 299.5 L 93.5 290 Q 111.9 273.9 135.5 263 Z M 136 265 L 123 271 L 100 287 L 95 292 Q 92 291 93 294 L 89 297 L 81 306 Q 82 308 79 307 Q 77 314 71 319 L 64 333 L 60 343 L 60 348 L 58 351 Q 59 359 56 363 L 56 374 L 54 382 L 54 390 L 53 391 L 52 412 L 51 413 L 51 430 L 49 435 L 49 460 L 47 470 L 47 483 L 46 484 L 47 488 L 51 490 L 72 484 L 102 469 Q 105 470 104 467 Q 121 458 135 443 Q 137 444 136 441 L 138 441 L 147 430 Q 146 427 149 428 L 149 426 L 157 415 L 166 397 L 171 377 L 171 347 L 168 334 L 168 325 Q 165 321 166 314 L 164 312 L 158 291 L 151 279 Q 152 276 149 277 L 149 275 L 145 270 Q 146 267 143 268 L 143 266 L 137 266 L 136 265 Z " /><path fill="rgb(209,219,230)" stroke="rgb(209,219,230)" stroke-width="1" opacity="1" d="M 43.5 382 L 44 392.5 L 43 393.5 L 43 403.5 L 41 414.5 L 41 430.5 L 40 431.5 L 39 459.5 L 37 470.5 L 37 482.5 L 35 488.5 L 33 506.5 L 29 520.5 L 24 558.5 L 22 563.5 L 22 569.5 L 20 574.5 L 20 580.5 L 11 624.5 L 8.5 658 L 8 637.5 Q 11.6 632.1 10 621.5 L 12 618.5 L 12 608.5 L 14 605.5 L 14 598.5 L 16 594.5 L 18 578.5 L 21 567.5 L 21 560.5 L 23 556.5 Q 22 547.5 25 542.5 L 25 533.5 L 27 529.5 L 27 523.5 L 29 519.5 L 29 512.5 L 31 508.5 L 31 503.5 L 35 485.5 L 36 466.5 L 38 455.5 L 38 436.5 L 39 435.5 L 39 425.5 L 40 424.5 L 40 408.5 L 42 402.5 L 42 385.5 L 43.5 382 Z " /><path fill="rgb(209,219,230)" stroke="rgb(209,219,230)" stroke-width="1" opacity="1" d="M 633.5 464 L 635 469.5 L 634 469.5 L 633.5 464 Z " /><path fill="rgb(209,219,230)" stroke="rgb(209,219,230)" stroke-width="1" opacity="1" d="M 635.5 471 L 639 482.5 L 641 495.5 L 644 502.5 L 646 516.5 L 645 516.5 L 644 507.5 L 642 504.5 L 642 499.5 L 640 496.5 L 637 483.5 L 637 478.5 L 635 474.5 L 635.5 471 Z " /><path fill="rgb(209,219,230)" stroke="rgb(209,219,230)" stroke-width="1" opacity="1" d="M 519.5 514 L 522 515.5 L 526 528.5 L 549 573.5 L 552 588.5 L 552 601.5 L 551 602.5 L 551 613.5 L 545 631.5 Q 538.7 644.7 527.5 653 Q 515.7 662.7 499.5 668 L 492.5 670 L 473.5 670 L 472.5 669 L 455.5 667 L 438.5 661 Q 411.3 648.2 393 626.5 L 382 610.5 L 379 602.5 L 381 597.5 L 390.5 588 L 405.5 582 L 426.5 582 L 443.5 586 L 456.5 593 L 464 600.5 Q 473.8 611.8 480 626.5 L 490.5 638 L 503.5 644 L 517.5 644 Q 526.8 640.8 532 633.5 L 538 621.5 L 538 613.5 Q 534.5 603.5 526.5 598 L 517.5 594 L 513.5 594 L 508 589.5 L 504 580.5 L 502 567.5 L 500 563.5 L 500 549.5 L 507 529.5 L 519.5 514 Z M 520 518 L 518 519 L 510 528 L 505 537 Q 506 542 503 544 L 503 549 L 501 553 L 501 561 Q 504 564 503 571 L 507 585 L 510 590 L 515 593 L 520 593 L 525 595 L 533 601 L 538 609 L 540 616 L 540 621 L 532 637 L 523 644 L 515 646 L 506 646 L 499 644 Q 489 640 483 633 Q 484 630 481 631 L 464 603 L 456 594 L 445 588 L 431 584 L 421 584 L 420 583 Q 414 586 404 584 L 395 588 L 392 588 Q 393 591 391 590 L 381 601 L 381 606 L 390 620 Q 389 622 392 621 L 394 626 L 410 641 L 427 653 Q 435 655 440 660 L 457 666 Q 464 665 468 668 L 481 668 L 482 669 L 495 668 Q 496 665 502 666 L 504 664 L 507 664 L 515 660 L 527 651 L 532 647 L 534 644 L 537 642 L 547 623 L 550 609 L 550 596 L 551 595 Q 549 590 550 582 Q 547 570 541 563 Q 542 559 539 560 L 539 557 L 524 528 Q 525 522 522 520 L 520 518 Z " /><path fill="rgb(209,219,230)" stroke="rgb(209,219,230)" stroke-width="1" opacity="1" d="M 646.5 518 L 648 526.5 L 646 525.5 L 646.5 518 Z " /><path fill="rgb(209,219,230)" stroke="rgb(209,219,230)" stroke-width="1" opacity="1" d="M 142.5 531 L 152 533 L 157 542.5 Q 156.4 548.6 159 551.5 L 160 565.5 L 161 566.5 L 161 578.5 L 164 595.5 L 162 594.5 Q 163.4 587.1 160 584.5 L 160 568.5 L 158 560.5 L 158 553.5 L 155 541.5 L 151 534 L 141 533 L 139 537.5 Q 140.4 548.4 137 554.5 L 137 573.5 Q 140.7 579.3 139 590.5 L 141 593.5 L 141 598.5 Q 143.8 600.2 143 605.5 L 152 624.5 L 159 634 L 161 634 Q 159.9 636.7 162.5 636 Q 170.2 644.2 182 647 Q 180.7 650.7 186.5 649 L 188.5 651 L 192.5 651 L 194.5 653 Q 200.5 652 202.5 655 L 221.5 656 L 222.5 655 L 234.5 655 L 239.5 653 L 248.5 653 L 264.5 647 Q 283.5 636.5 297 620.5 L 301 612.5 L 296.5 607 L 289.5 603 L 281.5 601 L 279.5 599 L 274.5 599 L 264.5 596 L 242.5 596 L 227.5 599 L 216 604.5 L 210.5 611 L 201.5 616 L 187.5 616 Q 176.6 612.9 170 607 L 170 605 Q 167.3 606.1 168 603.5 L 164 597.5 L 166 598.5 L 168 603 L 170 603 Q 168.9 605.7 171.5 605 L 176.5 610 L 185.5 614 L 199.5 615 Q 209.4 611.9 215 604.5 L 217.5 601 L 238.5 595 L 261.5 594 L 283.5 599 L 296.5 605 L 300 608.5 L 302 614.5 L 294 627 L 272.5 644 L 253.5 653 L 230.5 657 L 206.5 657 Q 177.4 651.4 159 636 L 149 622.5 L 145 614.5 L 140 599.5 L 140 595.5 L 138 592.5 L 138 583.5 L 136 576.5 L 136 551.5 L 137 550.5 L 138 535.5 L 140.5 532 L 142.5 531 Z " /><path fill="rgb(69,126,173)" stroke="rgb(69,126,173)" stroke-width="1" opacity="1" d="M 371.5 8 L 375.5 9 L 393.5 22 L 430.5 41 L 482.5 63 L 512.5 72 L 517.5 72 L 534.5 76 L 574.5 76 L 581.5 74 L 591.5 74 L 598.5 72 L 608.5 72 L 619.5 70 L 645.5 70 L 646.5 71 L 660.5 71 L 661.5 72 L 678.5 72 L 682 74.5 L 685 84.5 L 680 99.5 L 671 117.5 Q 663.9 129.9 653.5 139 L 650.5 141 Q 633.4 156.4 608.5 164 L 600 172.5 Q 595.8 184.3 587.5 192 L 582.5 196 L 564.5 205 L 519.5 221 L 495.5 226 L 447.5 243 L 434.5 244 L 433.5 245 L 417.5 245 L 411 247.5 L 416.5 254 L 435.5 267 L 466.5 284 L 511.5 304 L 541.5 315 L 555.5 322 Q 570.2 330.3 581 342.5 L 597 363.5 L 618 399.5 L 629 422.5 L 637 443.5 Q 639 457 644 467.5 L 644 471.5 L 646 474.5 L 646 478.5 L 648 481.5 L 648 485.5 L 650 488.5 L 652 501.5 L 654 504.5 L 654 510.5 L 656 513.5 L 657 526.5 L 659 530.5 L 659 535.5 L 661 541.5 L 661 547.5 L 663 551.5 Q 661.9 560.1 665 564.5 L 665 575.5 L 667 581.5 L 667 623.5 Q 665.3 627.7 663.5 625 L 659 621.5 Q 656.5 618 658 610.5 L 657 609.5 L 656 569.5 L 654 562.5 L 654 554.5 L 652 548.5 L 650 533.5 L 648 529.5 L 648 522.5 L 646 517.5 L 644 502.5 L 641 495.5 L 639 482.5 L 635 470.5 L 635 466.5 L 633 463.5 L 631 451.5 L 622 426.5 L 605 394.5 L 582 357.5 L 566.5 339 Q 554 329.5 538.5 323 L 524.5 318 L 520.5 318 L 517.5 316 L 509.5 316 L 508.5 317 L 499.5 317 L 490.5 321 L 475 335.5 L 468 350.5 L 466 360.5 L 466 377.5 L 472 402.5 L 476 410.5 L 481 428.5 L 489 447.5 L 509 483.5 L 526.5 507 L 530 509.5 L 537 530.5 L 556 569.5 L 556 572.5 L 560 580.5 L 560 585.5 L 562 592.5 L 562 607.5 L 560 613.5 L 560 618.5 L 552 639.5 L 538.5 655 L 535.5 657 Q 516.3 674.8 483.5 679 L 482.5 678 L 456.5 676 L 437.5 670 L 416.5 659 L 406.5 652 L 388 634.5 L 374 614.5 L 370 607.5 L 370 604.5 L 373 595.5 L 377.5 591 Q 386.2 581.7 399.5 577 L 408.5 575 L 418.5 575 L 419.5 576 L 426.5 576 L 436.5 578 L 449.5 582 Q 461 586.5 468 595.5 L 491 631 L 505.5 638 L 514.5 638 L 528 631 Q 532.3 625.6 533 615.5 Q 531.5 609 526.5 606 Q 521.5 600 510.5 600 L 504 603.5 Q 501 607.5 501 614.5 L 504.5 621 L 507.5 622 L 513 618.5 L 514.5 616 L 519 618 Q 519 626.1 512.5 629 L 507.5 630 L 503.5 629 L 498 625 Q 493.4 619.9 495 607.5 L 500 593.5 L 500 585.5 L 495 566.5 L 495 547.5 L 500 530.5 L 513 511.5 L 513 501.5 L 511 495.5 L 491 465.5 L 469 418.5 L 461 391.5 L 460 377.5 L 459 376.5 L 459 363.5 L 465 341.5 Q 470.1 328.1 480.5 320 L 493.5 312 L 498 311 Q 498.8 307.2 495.5 306 L 479.5 298 L 470.5 298 L 465.5 299 L 456.5 296 L 439.5 293 L 417.5 292 L 416.5 291 L 399.5 291 L 398.5 292 L 377.5 293 L 361.5 299 L 355 304.5 L 353 310.5 L 353 316.5 L 343.5 332 L 336.5 335 Q 329.8 333.8 326 329.5 L 319 314.5 L 319 306.5 L 317 298.5 L 317 272.5 L 318 271.5 L 318 258.5 L 319 257.5 L 319 242.5 L 321 238.5 L 321 229.5 L 324 219.5 L 324 210.5 Q 327.5 206.5 326 197.5 L 333 173.5 L 333 168.5 L 335 164.5 L 338 148.5 L 342 138.5 L 345 125.5 L 347.5 123 L 352 121 L 354 117.5 L 358 97.5 L 365 78.5 L 365 75.5 Q 370.8 59.3 380 46.5 L 380 43 L 373 46 Q 374.1 48.7 371.5 48 L 350.5 63 L 333 78.5 L 305 117.5 L 277 185.5 Q 271.4 197.4 261.5 205 L 242.5 216 L 187.5 237 L 148 256 L 147 259.5 L 159 276.5 L 168 294.5 L 168 298.5 L 172 309.5 L 175 323.5 L 175 329.5 L 177 334.5 L 178 348.5 L 179 349.5 L 179 370.5 L 174 395.5 L 166 412.5 L 166 421.5 L 168 425.5 L 170 452.5 L 166 473.5 L 159 490.5 L 149 507.5 L 148 516.5 L 151 525.5 Q 158.4 531.1 162 540.5 L 164 547.5 L 164 553.5 L 166 558.5 L 166 571.5 Q 169 576.5 168 585.5 L 172 593.5 L 172 596.5 L 179.5 605 Q 185.4 610.1 196.5 610 Q 205.7 607.2 211 600.5 L 213 594.5 L 211 584.5 L 206 573.5 L 203.5 571 L 198.5 570 L 192 573.5 L 191 580.5 Q 192.7 583.8 198.5 583 L 205 582 Q 206 586.7 202.5 588 Q 199.3 590.3 192.5 589 L 187 584.5 L 185 577.5 L 190.5 568 L 195.5 565 L 202.5 565 L 211 571.5 L 215 578.5 L 218 588.5 L 221.5 592 Q 224.7 594.3 231.5 593 L 244.5 590 L 262.5 590 L 269.5 592 L 275.5 592 L 300.5 601 L 304.5 601 L 312 607.5 Q 314.7 609.8 314 615.5 L 309 623 Q 306.3 621.9 307 624.5 L 300.5 632 L 297.5 634 L 290 640 Q 291.1 642.7 288.5 642 L 281.5 648 L 261.5 659 L 234.5 665 Q 224.2 663.7 217.5 666 L 216.5 665 L 206.5 665 L 205.5 664 L 194.5 663 L 174.5 656 Q 157.6 648.9 147 635.5 L 140 624.5 L 134 610.5 L 129 593.5 Q 130 585.5 127 581.5 L 127 546.5 L 134 520.5 L 157 469.5 L 160 457.5 L 160 441.5 Q 157.3 439.8 159 433.5 L 156.5 429 L 153 431.5 L 151 435.5 L 135.5 452 L 132.5 454 L 124.5 462 L 105.5 475 L 79.5 488 L 62.5 494 L 53.5 495 L 47 498 L 39 514.5 L 39 518.5 L 35 532.5 L 35 539.5 L 33 544.5 L 31 560.5 L 29 566.5 L 29 572.5 L 25 588.5 L 25 595.5 L 20 623.5 L 20 633.5 L 18 640.5 L 17 700.5 L 14.5 703 L 9 698.5 L 8 696.5 L 8 658.5 L 9 657.5 L 9 643.5 L 11 634.5 L 11 624.5 L 20 580.5 L 20 574.5 L 22 569.5 L 22 563.5 L 24 558.5 L 29 520.5 L 33 506.5 L 33 500.5 L 35 495.5 Q 34.1 487.1 37 482.5 L 37 470.5 L 39 459.5 L 39 444.5 L 40 443.5 L 41 414.5 L 42 413.5 L 43 393.5 L 44 392.5 L 44 380.5 L 46 375.5 L 50 345.5 L 52 342.5 L 52 338.5 L 55 329.5 L 63 313.5 Q 73.9 296.9 88.5 284 Q 108.4 266.4 133.5 254 L 180.5 232 L 232.5 212 Q 250.8 204.3 264 191.5 L 270 181.5 L 271 176.5 L 273 174.5 L 281 152.5 L 283 150.5 L 300 109.5 L 309 96.5 L 309 94.5 L 320.5 80 Q 322.8 80.8 322 78.5 L 341.5 60 L 378 33.5 L 379 25.5 Q 376.5 24 378 18.5 L 375.5 16 L 371 12.5 L 370 9.5 L 371.5 8 Z M 402 37 L 400 38 Q 386 52 376 70 L 367 94 L 365 101 L 365 107 L 361 118 L 361 145 Q 361 146 356 145 L 351 134 Q 352 130 349 131 Q 345 137 345 147 L 343 150 L 341 165 L 337 174 L 337 178 L 333 190 L 333 195 L 331 199 L 331 204 L 327 220 L 327 229 L 325 236 L 324 276 L 323 277 L 324 281 L 323 283 Q 326 290 324 302 L 325 303 L 326 314 L 329 322 L 333 325 L 339 324 L 348 306 L 355 299 L 367 292 L 384 288 L 401 287 L 402 286 L 432 287 L 433 288 L 441 288 L 456 291 L 457 289 L 454 285 L 438 277 L 408 256 L 384 231 L 375 214 L 371 201 L 371 195 Q 372 192 377 193 L 380 200 L 380 204 L 384 216 L 395 234 L 401 238 L 403 242 L 406 242 L 412 238 L 424 238 L 425 237 L 443 236 L 495 219 L 514 215 L 560 198 L 580 188 L 587 181 L 596 165 L 609 155 Q 624 150 636 142 L 654 128 L 665 113 L 671 101 L 671 97 L 675 88 L 673 82 L 667 79 L 652 79 L 651 78 L 620 78 L 613 80 L 605 80 L 589 83 L 563 84 L 562 85 L 536 84 L 535 83 L 527 83 L 512 80 L 505 76 L 493 74 L 471 65 L 468 65 L 462 61 L 450 57 L 411 38 L 402 37 Z M 136 263 Q 112 274 94 290 L 84 300 L 70 318 L 59 342 L 55 362 L 53 385 L 52 386 L 52 396 L 50 406 L 50 420 L 48 431 L 47 464 L 46 465 L 46 477 L 45 478 Q 43 488 49 491 L 58 490 L 83 481 Q 108 471 126 453 L 129 451 Q 145 437 157 418 L 170 390 Q 169 384 172 382 L 172 368 L 173 367 L 172 341 L 170 336 L 170 329 L 168 324 L 167 314 L 159 292 L 159 289 L 147 269 L 142 264 Q 137 265 136 263 Z M 520 514 L 507 530 L 500 550 L 500 564 L 502 568 L 504 581 L 508 590 L 514 594 L 518 594 L 527 598 Q 535 604 538 614 L 538 622 L 532 634 Q 527 641 518 644 L 504 644 L 491 638 L 480 627 Q 474 612 464 601 L 457 593 L 444 586 L 427 582 L 406 582 L 391 588 L 381 598 L 379 603 L 382 611 L 393 627 Q 411 648 439 661 L 456 667 L 473 669 L 474 670 L 493 670 L 500 668 Q 516 663 528 653 Q 539 645 545 632 L 551 614 L 551 603 L 552 602 L 552 589 L 549 574 L 526 529 L 522 516 L 520 514 Z M 143 531 L 141 532 L 138 536 L 137 551 L 136 552 L 136 577 L 138 584 L 138 593 L 140 596 L 140 600 L 145 615 L 149 623 L 159 636 Q 177 651 207 657 L 231 657 L 254 653 L 273 644 L 294 627 L 302 615 L 300 609 L 297 605 L 284 599 L 262 594 L 239 595 L 218 601 L 215 605 Q 209 612 200 615 L 186 614 L 177 610 L 172 605 Q 169 606 170 603 L 168 603 L 163 593 L 162 580 L 161 579 L 160 558 L 157 543 L 152 533 L 143 531 Z " /></svg>